STARTFONT 2.1
COMMENT
COMMENT Converted from OpenType font "BeVietnam-Regular.ttf" by "otf2bdf 3.0".
COMMENT
FONT -FreeType-Be Vietnam-Medium-R-Normal--39-280-100-100-P-182-ISO10646-1
SIZE 28 100 100
FONTBOUNDINGBOX 60 53 -15 -10
STARTPROPERTIES 19
FOUNDRY "FreeType"
FAMILY_NAME "Be Vietnam"
WEIGHT_NAME "Medium"
SLANT "R"
SETWIDTH_NAME "Normal"
ADD_STYLE_NAME ""
PIXEL_SIZE 39
POINT_SIZE 280
RESOLUTION_X 100
RESOLUTION_Y 100
SPACING "P"
AVERAGE_WIDTH 182
CHARSET_REGISTRY "ISO10646"
CHARSET_ENCODING "1"
FONT_ASCENT 46
FONT_DESCENT 10
COPYRIGHT "Copyright 2019 The Bevietnam Project Authors (https://github.com/bettergui/beVietnam)"
_OTF_FONTFILE "BeVietnam-Regular.ttf"
_OTF_PSNAME "BeVietnam-Regular"
ENDPROPERTIES
CHARS 445
STARTCHAR 000D
ENCODING 13
SWIDTH 591 0
DWIDTH 23 0
BBX 0 0 0 0
BITMAP
ENDCHAR
STARTCHAR 0020
ENCODING 32
SWIDTH 205 0
DWIDTH 8 0
BBX 0 0 0 0
BITMAP
ENDCHAR
STARTCHAR 0021
ENCODING 33
SWIDTH 231 0
DWIDTH 9 0
BBX 4 29 3 0
BITMAP
F0
F0
F0
F0
F0
F0
F0
E0
E0
E0
E0
E0
E0
E0
E0
E0
E0
E0
E0
60
60
60
00
00
00
E0
F0
F0
E0
ENDCHAR
STARTCHAR 0022
ENCODING 34
SWIDTH 488 0
DWIDTH 19 0
BBX 14 10 3 20
BITMAP
0008
3018
6030
4060
C060
C060
F878
F87C
F87C
7838
ENDCHAR
STARTCHAR 0023
ENCODING 35
SWIDTH 874 0
DWIDTH 34 0
BBX 28 27 3 0
BITMAP
00380600
00380E00
00380E00
00380E00
00380E00
00701C00
00701C00
3FFFFFF0
3FFFFFF0
3FFFFFF0
00E03800
00E03800
00E03800
00E03800
01C03000
01C07000
01C07000
7FFFFFC0
FFFFFFC0
FFFFFFC0
0380E000
0380E000
0380E000
0700E000
0701C000
0701C000
0701C000
ENDCHAR
STARTCHAR 0024
ENCODING 36
SWIDTH 565 0
DWIDTH 22 0
BBX 19 33 2 -3
BITMAP
00C000
00C000
00C000
03F800
0FFE00
3FFF00
3CCF80
78C780
70C3C0
F0C3C0
F0C1C0
F0C000
70C000
78C000
3EC000
1FF000
0FFE00
01FF00
00CF80
00C3C0
00C1C0
E0C1E0
E0C1E0
F0C1E0
F0C1C0
78C3C0
3CC780
3FFF80
0FFF00
07FC00
00C000
00C000
00C000
ENDCHAR
STARTCHAR 0025
ENCODING 37
SWIDTH 822 0
DWIDTH 32 0
BBX 30 28 1 0
BITMAP
04000000
3F800E00
7BC00E00
60C01C00
E0C01C00
E0E03800
E0E03800
E0C07000
60C07000
7BC0E000
3F80E000
0401C000
0001C000
00038000
00038000
00070000
00060000
000E01E0
001C07F0
001C0E38
00380C1C
00380C1C
00701C1C
00700C1C
00E00C1C
00E00E18
01C007F8
01C003F0
ENDCHAR
STARTCHAR 0026
ENCODING 38
SWIDTH 617 0
DWIDTH 24 0
BBX 23 28 2 0
BITMAP
007800
01FF00
03FF80
07C7C0
0F03C0
0E01E0
0E01E0
0E01E0
0E0000
0F0000
070000
078000
03C000
01E000
07F078
1FF870
3C3CF0
781CE0
701FC0
F00FC0
E00780
E003C0
F007E0
F00EF0
781E78
7FFC38
3FF83C
0FE01E
ENDCHAR
STARTCHAR 0027
ENCODING 39
SWIDTH 282 0
DWIDTH 11 0
BBX 5 10 3 21
BITMAP
70
F8
F8
78
18
18
18
10
70
40
ENDCHAR
STARTCHAR 0028
ENCODING 40
SWIDTH 437 0
DWIDTH 17 0
BBX 11 39 4 -8
BITMAP
0040
00E0
01C0
0380
0700
0E00
0E00
1C00
1C00
3C00
3800
7800
7800
7000
7000
7000
F000
F000
F000
F000
F000
F000
F000
7000
7000
7000
7800
7800
3800
3800
3C00
1C00
1E00
0E00
0700
0300
0380
00C0
0060
ENDCHAR
STARTCHAR 0029
ENCODING 41
SWIDTH 488 0
DWIDTH 19 0
BBX 11 39 4 -8
BITMAP
4000
E000
7000
3800
1C00
0E00
0E00
0700
0700
0780
0380
03C0
03C0
01C0
01C0
01C0
01E0
01E0
01E0
01E0
01E0
01E0
01E0
01C0
01C0
01C0
03C0
03C0
0380
0380
0780
0700
0F00
0E00
1C00
1800
3800
7000
C000
ENDCHAR
STARTCHAR 002A
ENCODING 42
SWIDTH 488 0
DWIDTH 19 0
BBX 14 14 3 16
BITMAP
0300
0300
0300
6318
F378
3FF0
0FC0
0F80
3FE0
FB7C
6338
4300
0300
0300
ENDCHAR
STARTCHAR 002B
ENCODING 43
SWIDTH 565 0
DWIDTH 22 0
BBX 15 16 4 4
BITMAP
0380
0380
0380
0380
0380
0380
FFFE
FFFE
FFFE
0380
0380
0380
0380
0380
0380
0380
ENDCHAR
STARTCHAR 002C
ENCODING 44
SWIDTH 282 0
DWIDTH 11 0
BBX 5 10 3 -6
BITMAP
70
F8
F8
F8
18
18
18
10
70
60
ENDCHAR
STARTCHAR 002D
ENCODING 45
SWIDTH 591 0
DWIDTH 23 0
BBX 14 3 5 11
BITMAP
FFFC
FFFC
FFFC
ENDCHAR
STARTCHAR 002E
ENCODING 46
SWIDTH 257 0
DWIDTH 10 0
BBX 5 4 3 0
BITMAP
70
F8
F8
70
ENDCHAR
STARTCHAR 002F
ENCODING 47
SWIDTH 488 0
DWIDTH 19 0
BBX 17 37 2 -6
BITMAP
000780
000700
000700
000E00
000E00
001E00
001C00
001C00
003C00
003800
003800
007800
007000
007000
00F000
00E000
00E000
01C000
01C000
03C000
038000
038000
078000
070000
070000
0F0000
0E0000
0E0000
1C0000
1C0000
3C0000
380000
380000
780000
700000
700000
F00000
ENDCHAR
STARTCHAR 0030
ENCODING 48
SWIDTH 591 0
DWIDTH 23 0
BBX 19 28 2 0
BITMAP
01F000
07FE00
1FFF00
3F0F80
3C07C0
7803C0
7801E0
7001E0
F001E0
F000E0
F000E0
F000E0
F000E0
F000E0
F000E0
F000E0
F000E0
F000E0
F000E0
F000E0
F001E0
7001E0
7801C0
7803C0
3E0780
1FFF80
0FFF00
07FC00
ENDCHAR
STARTCHAR 0031
ENCODING 49
SWIDTH 488 0
DWIDTH 19 0
BBX 14 27 4 0
BITMAP
0F00
1F00
3F00
7F00
F700
E700
C700
8700
0700
0700
0700
0700
0700
0700
0700
0700
0700
0700
0700
0700
0700
0700
0700
0700
FFFC
FFFC
FFFC
ENDCHAR
STARTCHAR 0032
ENCODING 50
SWIDTH 565 0
DWIDTH 22 0
BBX 18 28 3 0
BITMAP
03F000
0FFC00
3FFE00
3E1F00
780780
700780
F00380
E00380
E00380
000380
000380
000780
000780
000F00
001E00
003E00
007C00
00F800
01E000
03C000
078000
0F0000
1E0000
3C0000
F80000
FFFFC0
FFFFC0
FFFFC0
ENDCHAR
STARTCHAR 0033
ENCODING 51
SWIDTH 565 0
DWIDTH 22 0
BBX 19 28 2 0
BITMAP
01F800
0FFE00
1FFF00
3E0F80
3C03C0
7801C0
7001C0
0001C0
0001C0
0001C0
0003C0
000780
003F00
01FE00
01FE00
001F80
0003C0
0001C0
0001E0
0001E0
0000E0
F001E0
7001E0
7803C0
3C07C0
3FFF80
1FFF00
07FC00
ENDCHAR
STARTCHAR 0034
ENCODING 52
SWIDTH 591 0
DWIDTH 23 0
BBX 20 27 2 0
BITMAP
001F00
003F00
003F00
007F00
00FF00
00EF00
01CF00
03CF00
038F00
070F00
0F0F00
0E0F00
1C0F00
3C0F00
380F00
700F00
F00F00
E00F00
FFFFF0
FFFFF0
000F00
000F00
000F00
000F00
000F00
000F00
000F00
ENDCHAR
STARTCHAR 0035
ENCODING 53
SWIDTH 591 0
DWIDTH 23 0
BBX 18 27 3 0
BITMAP
7FFF80
7FFF80
7FFF80
700000
700000
700000
700000
700000
700000
73FC00
EFFE00
EE1F00
F80780
F003C0
3003C0
0001C0
0001C0
0001C0
0001C0
0001C0
E001C0
F003C0
780780
7C0F80
3FFF00
1FFE00
07F800
ENDCHAR
STARTCHAR 0036
ENCODING 54
SWIDTH 565 0
DWIDTH 22 0
BBX 19 27 2 0
BITMAP
007000
00E000
01E000
01C000
038000
078000
070000
0E0000
1E0000
1C0000
3BFC00
3FFF00
7F1F80
7C07C0
7803C0
F001C0
F001E0
E001E0
E000E0
F001E0
F001E0
7001C0
7803C0
3C0780
1FBF80
0FFE00
03FC00
ENDCHAR
STARTCHAR 0037
ENCODING 55
SWIDTH 488 0
DWIDTH 19 0
BBX 17 27 1 0
BITMAP
FFFF80
FFFF80
FFFF80
000380
000780
000700
000F00
000E00
000E00
001E00
001C00
003C00
003800
007800
007000
00F000
00F000
00E000
01E000
01C000
03C000
038000
078000
070000
0F0000
0F0000
0E0000
ENDCHAR
STARTCHAR 0038
ENCODING 56
SWIDTH 591 0
DWIDTH 23 0
BBX 20 28 2 0
BITMAP
01F800
07FE00
0FFF00
1E0F80
3C03C0
3801C0
7801E0
7801E0
7801E0
3801C0
3801C0
3C03C0
1F9F80
07FE00
0FFF00
3E07C0
3801C0
7000E0
7000E0
F000F0
F000F0
F000F0
F000E0
7801E0
7C03E0
3FFFC0
1FFF80
07FE00
ENDCHAR
STARTCHAR 0039
ENCODING 57
SWIDTH 565 0
DWIDTH 22 0
BBX 19 28 2 0
BITMAP
01F000
0FFC00
1FFF00
3E0F80
780780
7803C0
7001C0
F001E0
E001E0
E001E0
F001E0
F001E0
7001C0
7803C0
3C07C0
3FFFC0
0FFF80
07F780
000700
000E00
001E00
001C00
003C00
007800
007000
00F000
01E000
01C000
ENDCHAR
STARTCHAR 003A
ENCODING 58
SWIDTH 282 0
DWIDTH 11 0
BBX 4 20 3 0
BITMAP
F0
F0
F0
F0
00
00
00
00
00
00
00
00
00
00
00
00
F0
F0
F0
F0
ENDCHAR
STARTCHAR 003B
ENCODING 59
SWIDTH 308 0
DWIDTH 12 0
BBX 6 26 3 -6
BITMAP
70
78
78
70
00
00
00
00
00
00
00
00
00
00
00
00
78
F8
FC
7C
1C
0C
08
18
30
60
ENDCHAR
STARTCHAR 003C
ENCODING 60
SWIDTH 565 0
DWIDTH 22 0
BBX 14 17 4 4
BITMAP
000C
003C
00FC
01F0
07E0
1F80
7E00
F800
F000
FC00
3F00
0FC0
03E0
01F8
007C
001C
0004
ENDCHAR
STARTCHAR 003D
ENCODING 61
SWIDTH 694 0
DWIDTH 27 0
BBX 18 12 5 6
BITMAP
FFFFC0
FFFFC0
FFFFC0
000000
000000
000000
000000
000000
000000
FFFFC0
FFFFC0
FFFFC0
ENDCHAR
STARTCHAR 003E
ENCODING 62
SWIDTH 565 0
DWIDTH 22 0
BBX 14 17 4 4
BITMAP
C000
F000
FC00
3E00
1F80
07E0
01F8
007C
003C
00FC
03F0
07C0
1F00
7E00
F800
E000
8000
ENDCHAR
STARTCHAR 003F
ENCODING 63
SWIDTH 565 0
DWIDTH 22 0
BBX 18 28 2 0
BITMAP
01F000
0FFE00
1FFF00
3F1F80
7C07C0
7803C0
7001C0
F001C0
F001C0
0001C0
0003C0
000380
000780
000F00
001E00
003C00
007800
00F000
00E000
01E000
01E000
000000
000000
000000
00C000
01E000
01E000
01E000
ENDCHAR
STARTCHAR 0040
ENCODING 64
SWIDTH 1002 0
DWIDTH 39 0
BBX 34 34 3 -6
BITMAP
0003E00000
003FFE0000
00FFFFC000
03F007E000
07C000F800
0F00003C00
1E00001C00
3C00000E00
3800000700
70078C0700
701FEC0380
603FEC0380
E0783C0380
E0701C0180
E0701C01C0
E0E00C01C0
C0E00C01C0
C0E00C01C0
C0E00E0180
E0600E0180
E0701E0380
E0701E0300
E03C370700
703FE3FE00
700FC1F800
7800000000
3800000000
1C00000000
1E00000000
0F80000000
07C0000000
01FC000000
00FFFFF000
001FFFF000
ENDCHAR
STARTCHAR 0041
ENCODING 65
SWIDTH 668 0
DWIDTH 26 0
BBX 23 27 2 0
BITMAP
007800
007800
007C00
00FC00
00FE00
01EE00
01CE00
01C700
03C700
038780
038380
070380
0703C0
0F01C0
0E01C0
0E01E0
1FFFE0
1FFFF0
1FFFF0
3C0070
380078
780038
700038
70003C
F0001C
E0001E
E0000E
ENDCHAR
STARTCHAR 0042
ENCODING 66
SWIDTH 617 0
DWIDTH 24 0
BBX 20 27 3 0
BITMAP
FFFE00
FFFF00
FFFF80
E007C0
E001C0
E001C0
E001C0
E001C0
E001C0
E001C0
E00380
E01F00
FFFC00
FFFF00
E00FC0
E001E0
E000E0
E000F0
E000F0
E000F0
E000F0
E000E0
E001E0
E003E0
FFFFC0
FFFF80
FFFE00
ENDCHAR
STARTCHAR 0043
ENCODING 67
SWIDTH 694 0
DWIDTH 27 0
BBX 24 28 2 0
BITMAP
007E00
01FFC0
07FFF0
0FC3F8
1F007C
3E003C
3C001E
78000E
78000F
700007
F00000
F00000
F00000
F00000
F00000
F00000
F00000
F00000
700000
70000F
78000E
38001E
3C001C
1E003C
0F80F8
07FFF0
03FFE0
00FF80
ENDCHAR
STARTCHAR 0044
ENCODING 68
SWIDTH 668 0
DWIDTH 26 0
BBX 22 27 3 0
BITMAP
FFFC00
FFFF00
FFFFC0
E007E0
E001F0
E000F0
E00078
E00078
E00038
E0003C
E0003C
E0003C
E0003C
E0003C
E0003C
E0003C
E0003C
E0003C
E00038
E00078
E00078
E000F0
E003E0
E00FE0
FFFF80
FFFF00
FFFC00
ENDCHAR
STARTCHAR 0045
ENCODING 69
SWIDTH 565 0
DWIDTH 22 0
BBX 17 27 3 0
BITMAP
FFFF80
FFFF80
FFFF80
E00000
E00000
E00000
E00000
E00000
E00000
E00000
E00000
E00000
FFFE00
FFFE00
E00000
E00000
E00000
E00000
E00000
E00000
E00000
E00000
E00000
E00000
FFFF80
FFFF80
FFFF80
ENDCHAR
STARTCHAR 0046
ENCODING 70
SWIDTH 514 0
DWIDTH 20 0
BBX 16 27 3 0
BITMAP
FFFF
FFFF
FFFF
E000
E000
E000
E000
E000
E000
E000
E000
E000
FFFE
FFFE
E000
E000
E000
E000
E000
E000
E000
E000
E000
E000
E000
E000
E000
ENDCHAR
STARTCHAR 0047
ENCODING 71
SWIDTH 694 0
DWIDTH 27 0
BBX 23 28 2 0
BITMAP
007E00
03FFC0
07FFE0
0FC3F0
1F0078
3C003C
3C001E
78001E
70000E
700000
F00000
F00000
F00000
F00000
E007FE
F007FE
F0000E
F0000E
70000E
70000E
78000E
38001E
3C001E
1E0036
1F00F6
0FFFE6
03FFC6
01FF06
ENDCHAR
STARTCHAR 0048
ENCODING 72
SWIDTH 668 0
DWIDTH 26 0
BBX 20 27 3 0
BITMAP
E00070
E00070
E00070
E00070
E00070
E00070
E00070
E00070
E00070
E00070
E00070
E00070
FFFFF0
FFFFF0
FFFFF0
E00070
E00070
E00070
E00070
E00070
E00070
E00070
E00070
E00070
E00070
E00070
E00070
ENDCHAR
STARTCHAR 0049
ENCODING 73
SWIDTH 231 0
DWIDTH 9 0
BBX 3 27 3 0
BITMAP
E0
E0
E0
E0
E0
E0
E0
E0
E0
E0
E0
E0
E0
E0
E0
E0
E0
E0
E0
E0
E0
E0
E0
E0
E0
E0
E0
ENDCHAR
STARTCHAR 004A
ENCODING 74
SWIDTH 334 0
DWIDTH 13 0
BBX 8 27 2 0
BITMAP
07
07
07
07
07
07
07
07
07
07
07
07
07
07
07
07
07
07
07
07
07
07
07
0F
BF
FE
FC
ENDCHAR
STARTCHAR 004B
ENCODING 75
SWIDTH 617 0
DWIDTH 24 0
BBX 19 27 3 0
BITMAP
E003C0
E00780
E00F00
E01E00
E03C00
E07800
E0F000
E1E000
E3C000
E78000
E70000
EF0000
FF0000
FF8000
FBC000
F1E000
E1E000
E0F000
E07800
E03C00
E03C00
E01E00
E00F00
E00780
E00780
E003C0
E001E0
ENDCHAR
STARTCHAR 004C
ENCODING 76
SWIDTH 514 0
DWIDTH 20 0
BBX 16 27 3 0
BITMAP
E000
E000
E000
E000
E000
E000
E000
E000
E000
E000
E000
E000
E000
E000
E000
E000
E000
E000
E000
E000
E000
E000
E000
E000
FFFF
FFFF
FFFF
ENDCHAR
STARTCHAR 004D
ENCODING 77
SWIDTH 822 0
DWIDTH 32 0
BBX 26 27 3 0
BITMAP
F80007C0
FC000FC0
FC000FC0
FC000FC0
FE001FC0
EE001DC0
EE001DC0
EF003DC0
E70039C0
E78079C0
E78079C0
E38071C0
E3C0F1C0
E1C0E1C0
E1E1E1C0
E1E1E1C0
E0E1C1C0
E0F3C1C0
E07381C0
E07F81C0
E07F81C0
E03F01C0
E03F01C0
E03F01C0
E01E01C0
E01E01C0
E00C01C0
ENDCHAR
STARTCHAR 004E
ENCODING 78
SWIDTH 694 0
DWIDTH 27 0
BBX 22 27 3 0
BITMAP
F0003C
F8003C
FC003C
FC003C
FE003C
FF003C
EF003C
E7803C
E7C03C
E3C03C
E1E03C
E1F03C
E0F03C
E0783C
E07C3C
E03C3C
E01E3C
E01F3C
E00F3C
E007BC
E003FC
E003FC
E001FC
E000FC
E000FC
E0007C
E0003C
ENDCHAR
STARTCHAR 004F
ENCODING 79
SWIDTH 720 0
DWIDTH 28 0
BBX 25 28 2 0
BITMAP
003E0000
01FFC000
07FFF000
0FE3F800
1F007C00
3E003C00
3C001E00
78001E00
78000F00
70000F00
F0000700
F0000700
F0000700
F0000700
F0000780
F0000700
F0000700
F0000700
F0000F00
70000F00
78000E00
78001E00
3C003E00
1E007C00
1F80F800
0FFFF000
03FFE000
00FF8000
ENDCHAR
STARTCHAR 0050
ENCODING 80
SWIDTH 565 0
DWIDTH 22 0
BBX 19 27 3 0
BITMAP
FFF800
FFFE00
FFFF00
E00F80
E003C0
E001C0
E001C0
E001E0
E001E0
E001E0
E001C0
E001C0
E003C0
E00780
E03F80
FFFF00
FFFC00
FFC000
E00000
E00000
E00000
E00000
E00000
E00000
E00000
E00000
E00000
ENDCHAR
STARTCHAR 0051
ENCODING 81
SWIDTH 720 0
DWIDTH 28 0
BBX 25 30 2 -2
BITMAP
003E0000
01FFC000
07FFF000
0FE3F800
1F007C00
3E003C00
3C001E00
78001E00
78000F00
70000F00
F0000700
F0000700
F0000700
F0000700
F0000780
F0000700
F0000700
F0000700
F01E0F00
700E0F00
78070F00
78039E00
3C01FE00
1E01FC00
1F80F800
0FFFF000
03FFF800
00FFBC00
00001E00
00000E00
ENDCHAR
STARTCHAR 0052
ENCODING 82
SWIDTH 591 0
DWIDTH 23 0
BBX 19 27 3 0
BITMAP
FFFC00
FFFE00
FFFF80
E00F80
E003C0
E001C0
E001C0
E001E0
E001E0
E001C0
E001C0
E003C0
E00780
FFFF80
FFFE00
FFF800
E0F000
E07800
E03800
E03C00
E01E00
E00E00
E00F00
E00780
E00380
E003C0
E001C0
ENDCHAR
STARTCHAR 0053
ENCODING 83
SWIDTH 591 0
DWIDTH 23 0
BBX 19 28 2 0
BITMAP
01F000
0FFE00
1FFF00
3E0F80
7C03C0
7803C0
7001E0
7001E0
7001E0
700000
780000
3C0000
3FC000
1FFC00
07FF00
007FC0
0007C0
0001E0
0001E0
F000E0
F000E0
F000E0
7801E0
7801E0
3E07C0
1FFF80
0FFF00
07FC00
ENDCHAR
STARTCHAR 0054
ENCODING 84
SWIDTH 565 0
DWIDTH 22 0
BBX 19 27 2 0
BITMAP
FFFFE0
FFFFE0
FFFFE0
00E000
00E000
00E000
00E000
00E000
00E000
00E000
00E000
00E000
00E000
00E000
00E000
00E000
00E000
00E000
00E000
00E000
00E000
00E000
00E000
00E000
00E000
00E000
00E000
ENDCHAR
STARTCHAR 0055
ENCODING 85
SWIDTH 668 0
DWIDTH 26 0
BBX 21 27 3 0
BITMAP
E00038
E00038
E00038
E00038
E00038
E00038
E00038
E00038
E00038
E00038
E00038
E00038
E00038
E00038
E00038
E00038
E00038
E00078
E00078
F00078
F00070
7800F0
7801E0
3E03E0
1FFFC0
0FFF80
03FE00
ENDCHAR
STARTCHAR 0056
ENCODING 86
SWIDTH 617 0
DWIDTH 24 0
BBX 23 27 1 0
BITMAP
E0001E
F0001C
F0001C
70003C
780038
380038
380078
3C0070
1C0070
1C00F0
1E00E0
0E00E0
0E01E0
0F01C0
0701C0
0703C0
078380
038380
038780
03C700
01CF00
01CF00
01EE00
00FE00
00FE00
00FC00
007C00
ENDCHAR
STARTCHAR 0057
ENCODING 87
SWIDTH 977 0
DWIDTH 38 0
BBX 37 27 1 0
BITMAP
E000700078
E000F00078
F000F80070
7000F80070
7001F800F0
7001FC00F0
7801DC00E0
3803DC00E0
38039E01E0
38038E01C0
3C078E01C0
1C070F01C0
1C070703C0
1E0F070380
0E0E078380
0E0E038380
0E1E038780
0F1C03C700
071C01C700
073C01CF00
073801EE00
07B800EE00
03F800EE00
03F000FE00
03F000FC00
03F0007C00
01E0007C00
ENDCHAR
STARTCHAR 0058
ENCODING 88
SWIDTH 642 0
DWIDTH 25 0
BBX 22 27 2 0
BITMAP
F0003C
700078
780070
3C00F0
1C01E0
1E01C0
0F03C0
070780
078700
03CF00
01DE00
01FC00
00FC00
007800
00FC00
01FE00
01DE00
03CF00
078700
070780
0F03C0
1E01C0
1C01E0
3C00F0
780070
700078
F0003C
ENDCHAR
STARTCHAR 0059
ENCODING 89
SWIDTH 591 0
DWIDTH 23 0
BBX 20 27 2 0
BITMAP
E000F0
F000F0
7001E0
7801E0
3803C0
3C03C0
1C0780
1E0780
0E0F00
0F0E00
071E00
079C00
03BC00
03F800
01F800
01F000
00F000
00F000
00F000
00F000
00F000
00F000
00F000
00F000
00F000
00F000
00F000
ENDCHAR
STARTCHAR 005A
ENCODING 90
SWIDTH 591 0
DWIDTH 23 0
BBX 19 27 2 0
BITMAP
FFFFE0
FFFFE0
FFFFE0
0001E0
0003C0
000780
000780
000F00
001E00
003C00
003C00
007800
00F000
00F000
01E000
03C000
078000
078000
0F0000
1E0000
3E0000
3C0000
780000
F00000
FFFFE0
FFFFE0
FFFFE0
ENDCHAR
STARTCHAR 005B
ENCODING 91
SWIDTH 437 0
DWIDTH 17 0
BBX 11 39 3 -7
BITMAP
FFE0
FFE0
FFE0
E000
E000
E000
E000
E000
E000
E000
E000
E000
E000
E000
E000
E000
E000
E000
E000
E000
E000
E000
E000
E000
E000
E000
E000
E000
E000
E000
E000
E000
E000
E000
E000
E000
FFE0
FFE0
FFE0
ENDCHAR
STARTCHAR 005C
ENCODING 92
SWIDTH 488 0
DWIDTH 19 0
BBX 17 37 1 -6
BITMAP
F00000
700000
700000
780000
380000
380000
3C0000
1C0000
1C0000
0E0000
0E0000
0F0000
070000
070000
078000
038000
038000
03C000
01C000
01C000
00E000
00E000
00E000
007000
007000
007800
003800
003800
003C00
001C00
001C00
001E00
000E00
000E00
000700
000700
000780
ENDCHAR
STARTCHAR 005D
ENCODING 93
SWIDTH 411 0
DWIDTH 16 0
BBX 11 39 3 -7
BITMAP
FFE0
FFE0
FFE0
00E0
00E0
00E0
00E0
00E0
00E0
00E0
00E0
00E0
00E0
00E0
00E0
00E0
00E0
00E0
00E0
00E0
00E0
00E0
00E0
00E0
00E0
00E0
00E0
00E0
00E0
00E0
00E0
00E0
00E0
00E0
00E0
00E0
FFE0
FFE0
FFE0
ENDCHAR
STARTCHAR 005E
ENCODING 94
SWIDTH 411 0
DWIDTH 16 0
BBX 14 7 1 22
BITMAP
07C0
0FC0
1CE0
3CF0
3870
7038
E01C
ENDCHAR
STARTCHAR 005F
ENCODING 95
SWIDTH 694 0
DWIDTH 27 0
BBX 19 3 4 0
BITMAP
FFFFE0
FFFFE0
FFFFE0
ENDCHAR
STARTCHAR 0060
ENCODING 96
SWIDTH 231 0
DWIDTH 9 0
BBX 6 7 2 24
BITMAP
E0
F0
70
38
38
1C
0C
ENDCHAR
STARTCHAR 0061
ENCODING 97
SWIDTH 617 0
DWIDTH 24 0
BBX 19 21 2 0
BITMAP
07F0E0
0FF8E0
1FFCE0
3E0EE0
7803E0
7803E0
F001E0
F001E0
E001E0
E000E0
E000E0
E000E0
E001E0
F001E0
F001E0
7003E0
7803E0
3C06E0
3FFCE0
1FF8E0
07F0E0
ENDCHAR
STARTCHAR 0062
ENCODING 98
SWIDTH 617 0
DWIDTH 24 0
BBX 19 29 3 0
BITMAP
E00000
E00000
E00000
E00000
E00000
E00000
E00000
E00000
E1FC00
E3FE00
E7FF00
EE0F80
F803C0
F803C0
F001E0
F001E0
F001E0
E000E0
E000E0
E000E0
E000E0
F001E0
F001E0
F801C0
F803C0
EC0780
E7FF80
E3FF00
E1FC00
ENDCHAR
STARTCHAR 0063
ENCODING 99
SWIDTH 565 0
DWIDTH 22 0
BBX 19 21 2 0
BITMAP
03F800
0FFE00
1FFF00
3E0780
7803C0
7801C0
7001C0
F001E0
F00000
E00000
E00000
E00000
E00000
F001E0
7001C0
7801C0
7803C0
3C0780
1FFF00
0FFE00
03FC00
ENDCHAR
STARTCHAR 0064
ENCODING 100
SWIDTH 617 0
DWIDTH 24 0
BBX 19 29 2 0
BITMAP
0000E0
0000E0
0000E0
0000E0
0000E0
0000E0
0000E0
0000E0
07F0E0
0FF8E0
1FFCE0
3E0EE0
7803E0
7803E0
F001E0
F001E0
F000E0
E000E0
E000E0
E000E0
E000E0
F001E0
F001E0
7001E0
7803E0
3C06E0
3FFCE0
1FF8E0
07F0E0
ENDCHAR
STARTCHAR 0065
ENCODING 101
SWIDTH 565 0
DWIDTH 22 0
BBX 19 21 2 0
BITMAP
03F800
0FFE00
1FFF00
3C0780
780380
7001C0
7001C0
F001C0
E001E0
FFFFE0
FFFFE0
FFFFE0
E00000
F00000
700000
7001C0
7803C0
3C0780
1FFF00
0FFE00
03FC00
ENDCHAR
STARTCHAR 0066
ENCODING 102
SWIDTH 360 0
DWIDTH 14 0
BBX 11 29 2 0
BITMAP
01C0
0FE0
1FE0
1E00
1C00
1C00
1C00
1C00
FFE0
FFE0
FFE0
1C00
1C00
1C00
1C00
1C00
1C00
1C00
1C00
1C00
1C00
1C00
1C00
1C00
1C00
1C00
1C00
1C00
1C00
ENDCHAR
STARTCHAR 0067
ENCODING 103
SWIDTH 617 0
DWIDTH 24 0
BBX 19 29 2 -8
BITMAP
07F000
0FF8E0
1FFCE0
3E0EE0
7803E0
7801E0
F001E0
F001E0
F000E0
F000E0
F000E0
F000E0
F000E0
F001E0
7001E0
7803E0
7C06E0
3F1EE0
1FFCE0
0FF8E0
01C0E0
0000E0
0001E0
0001E0
0003C0
0007C0
01FF80
01FF00
01FC00
ENDCHAR
STARTCHAR 0068
ENCODING 104
SWIDTH 591 0
DWIDTH 23 0
BBX 18 29 3 0
BITMAP
E00000
E00000
E00000
E00000
E00000
E00000
E00000
E00000
E1F800
E3FE00
E7FF00
EC0F80
F80780
F003C0
F003C0
E001C0
E001C0
E001C0
E001C0
E001C0
E001C0
E001C0
E001C0
E001C0
E001C0
E001C0
E001C0
E001C0
E001C0
ENDCHAR
STARTCHAR 0069
ENCODING 105
SWIDTH 231 0
DWIDTH 9 0
BBX 4 29 3 0
BITMAP
60
F0
F0
F0
60
00
00
00
F0
F0
F0
F0
F0
F0
F0
F0
F0
F0
F0
F0
F0
F0
F0
F0
F0
F0
F0
F0
F0
ENDCHAR
STARTCHAR 006A
ENCODING 106
SWIDTH 231 0
DWIDTH 9 0
BBX 9 37 -2 -9
BITMAP
0300
0780
0780
0780
0300
0000
0000
0000
0780
0780
0780
0780
0780
0780
0780
0780
0780
0780
0780
0780
0780
0780
0780
0780
0780
0780
0780
0780
0780
0780
0780
0780
0780
0780
0F00
FF00
FE00
ENDCHAR
STARTCHAR 006B
ENCODING 107
SWIDTH 514 0
DWIDTH 20 0
BBX 15 29 3 0
BITMAP
E000
E000
E000
E000
E000
E000
E000
E000
E01E
E03C
E078
E0F0
E1E0
E3C0
E780
EF00
FE00
FC00
FE00
EF00
E700
E380
E3C0
E1E0
E0F0
E078
E038
E03C
E01E
ENDCHAR
STARTCHAR 006C
ENCODING 108
SWIDTH 308 0
DWIDTH 12 0
BBX 8 29 3 0
BITMAP
E0
E0
E0
E0
E0
E0
E0
E0
E0
E0
E0
E0
E0
E0
E0
E0
E0
E0
E0
E0
E0
E0
E0
E0
E0
F0
F8
7F
3F
ENDCHAR
STARTCHAR 006D
ENCODING 109
SWIDTH 951 0
DWIDTH 37 0
BBX 32 21 3 0
BITMAP
E1F807E0
E3FC1FF8
E7FE3FFC
EE1F387C
F807E01E
F007C01E
F003C00E
E003C00F
E003800F
E003800F
E003800F
E003800F
E003800F
E003800F
E003800F
E003800F
E003800F
E003800F
E003800F
E003800F
E003800F
ENDCHAR
STARTCHAR 006E
ENCODING 110
SWIDTH 591 0
DWIDTH 23 0
BBX 18 21 3 0
BITMAP
E1F800
E3FE00
E7FF00
EE0F80
F80780
F003C0
F003C0
E001C0
E001C0
E001C0
E001C0
E001C0
E001C0
E001C0
E001C0
E001C0
E001C0
E001C0
E001C0
E001C0
E001C0
ENDCHAR
STARTCHAR 006F
ENCODING 111
SWIDTH 591 0
DWIDTH 23 0
BBX 19 21 2 0
BITMAP
03F800
0FFE00
1FFF00
3E0F80
7C03C0
7803C0
7001C0
F001E0
F000E0
E000E0
E000E0
E000E0
E000E0
F001E0
7001E0
7801C0
7803C0
3C0780
1FFF00
0FFE00
03F800
ENDCHAR
STARTCHAR 0070
ENCODING 112
SWIDTH 617 0
DWIDTH 24 0
BBX 19 29 3 -8
BITMAP
E1FC00
E3FE00
E7FF00
EE0F80
F803C0
F803C0
F001E0
F001E0
F001E0
E000E0
E000E0
E000E0
E000E0
F001E0
F001E0
F801C0
F803C0
EC0780
E7FF80
E3FF00
E1FC00
E00000
E00000
E00000
E00000
E00000
E00000
E00000
E00000
ENDCHAR
STARTCHAR 0071
ENCODING 113
SWIDTH 617 0
DWIDTH 24 0
BBX 19 29 2 -8
BITMAP
03F0E0
0FF8E0
1FFCE0
3E0EE0
7C03E0
7801E0
7001E0
F001E0
F000E0
F000E0
E000E0
F000E0
F000E0
F001E0
F001E0
7801E0
7803E0
3C06E0
3FFEE0
1FFCE0
07F0E0
0000E0
0000E0
0000E0
0000E0
0000E0
0000E0
0000E0
0000E0
ENDCHAR
STARTCHAR 0072
ENCODING 114
SWIDTH 334 0
DWIDTH 13 0
BBX 10 21 3 0
BITMAP
E080
E7C0
EFC0
FFC0
F800
F000
F000
E000
E000
E000
E000
E000
E000
E000
E000
E000
E000
E000
E000
E000
E000
ENDCHAR
STARTCHAR 0073
ENCODING 115
SWIDTH 488 0
DWIDTH 19 0
BBX 16 21 2 0
BITMAP
0FE0
3FF8
7FFC
783E
701E
E00E
E000
7000
7800
3FC0
1FF8
03FC
001E
000E
E00F
E00F
F00E
781E
7FFC
3FFC
0FF0
ENDCHAR
STARTCHAR 0074
ENCODING 116
SWIDTH 385 0
DWIDTH 15 0
BBX 12 27 1 0
BITMAP
0E00
0E00
0E00
0E00
0E00
0E00
FFF0
FFF0
FFF0
0E00
0E00
0E00
0E00
0E00
0E00
0E00
0E00
0E00
0E00
0E00
0E00
0E00
0E00
0F00
0F90
07F0
03F0
ENDCHAR
STARTCHAR 0075
ENCODING 117
SWIDTH 591 0
DWIDTH 23 0
BBX 18 21 3 0
BITMAP
E003C0
E003C0
E003C0
E003C0
E003C0
E003C0
E003C0
E003C0
E003C0
E003C0
E003C0
E003C0
E003C0
E003C0
F003C0
F003C0
7807C0
7C0FC0
3FFBC0
3FF3C0
0FE3C0
ENDCHAR
STARTCHAR 0076
ENCODING 118
SWIDTH 540 0
DWIDTH 21 0
BBX 19 21 1 0
BITMAP
F000E0
7000E0
7001E0
7801C0
3801C0
380380
3C0380
1C0780
1C0700
0E0700
0E0F00
0F0E00
070E00
071E00
079C00
039C00
03B800
03F800
01F800
01F000
01F000
ENDCHAR
STARTCHAR 0077
ENCODING 119
SWIDTH 797 0
DWIDTH 31 0
BBX 30 21 1 0
BITMAP
E007003C
70078038
70078038
700F8038
780FC070
380FC070
380FC070
381CE0F0
3C1CE0E0
1C1CE0E0
1C38F0E0
1C3871E0
0E3871C0
0E7871C0
0E7039C0
0F703B80
07F03B80
07E01F80
07E01F80
03E01F00
03C01F00
ENDCHAR
STARTCHAR 0078
ENCODING 120
SWIDTH 540 0
DWIDTH 21 0
BBX 18 21 1 0
BITMAP
F001C0
7803C0
380780
3C0700
1E0F00
0E0E00
0F1C00
07BC00
03B800
03F800
01F000
01F000
03F800
07B800
071C00
0F1E00
1E0E00
1C0F00
3C0780
780380
7003C0
ENDCHAR
STARTCHAR 0079
ENCODING 121
SWIDTH 514 0
DWIDTH 20 0
BBX 19 29 1 -8
BITMAP
F000E0
7001E0
7001C0
7803C0
380380
380380
3C0780
1C0700
1E0700
0E0E00
0E0E00
0F1E00
071C00
071C00
03B800
03B800
03F800
01F000
01F000
00E000
01E000
01C000
01C000
03C000
038000
078000
7F0000
7E0000
7C0000
ENDCHAR
STARTCHAR 007A
ENCODING 122
SWIDTH 488 0
DWIDTH 19 0
BBX 16 21 2 0
BITMAP
7FFF
7FFF
7FFF
000E
001E
003C
0078
0070
00E0
01E0
03C0
0780
0700
0E00
1E00
3C00
7800
7000
FFFF
FFFF
FFFF
ENDCHAR
STARTCHAR 007B
ENCODING 123
SWIDTH 437 0
DWIDTH 17 0
BBX 12 40 4 -8
BITMAP
07F0
0FF0
1E00
1C00
1C00
1C00
1C00
1C00
1C00
1C00
1C00
1C00
1C00
1C00
1C00
1C00
1C00
1C00
1C00
F800
F800
1C00
1C00
1C00
1C00
1C00
1C00
1C00
1C00
1C00
1C00
1C00
1C00
1C00
1C00
1C00
1C00
0E00
0FF0
07F0
ENDCHAR
STARTCHAR 007C
ENCODING 124
SWIDTH 282 0
DWIDTH 11 0
BBX 3 46 4 -9
BITMAP
E0
E0
E0
E0
E0
E0
E0
E0
E0
E0
E0
E0
E0
E0
E0
E0
E0
E0
E0
E0
E0
E0
E0
E0
E0
E0
E0
E0
E0
E0
E0
E0
E0
E0
E0
E0
E0
E0
E0
E0
E0
E0
E0
E0
E0
E0
ENDCHAR
STARTCHAR 007D
ENCODING 125
SWIDTH 462 0
DWIDTH 18 0
BBX 11 40 5 -8
BITMAP
FC00
FE00
0F00
0700
0700
0700
0700
0700
0700
0700
0700
0700
0700
0700
0700
0700
0700
0700
0380
03E0
03E0
0380
0700
0700
0700
0700
0700
0700
0700
0700
0700
0700
0700
0700
0700
0700
0700
0F00
FE00
FC00
ENDCHAR
STARTCHAR 007E
ENCODING 126
SWIDTH 540 0
DWIDTH 21 0
BBX 14 4 4 13
BITMAP
3C0C
7F1C
F7F8
C1F0
ENDCHAR
STARTCHAR 00A0
ENCODING 160
SWIDTH 205 0
DWIDTH 8 0
BBX 0 0 0 0
BITMAP
ENDCHAR
STARTCHAR 00A1
ENCODING 161
SWIDTH 205 0
DWIDTH 8 0
BBX 4 30 3 -10
BITMAP
60
F0
F0
F0
00
00
00
00
60
60
E0
E0
E0
E0
E0
E0
E0
E0
E0
E0
E0
E0
E0
F0
F0
F0
F0
F0
F0
F0
ENDCHAR
STARTCHAR 00A2
ENCODING 162
SWIDTH 591 0
DWIDTH 23 0
BBX 19 27 2 -3
BITMAP
004000
004000
004000
03F800
0FFE00
1FFF00
3E4780
7843C0
7841C0
7041C0
F041E0
F04000
E04000
E04000
E04000
E04000
F041E0
7041C0
7841C0
7843C0
3C4780
1FFF00
0FFE00
03FC00
004000
004000
004000
ENDCHAR
STARTCHAR 00A3
ENCODING 163
SWIDTH 591 0
DWIDTH 23 0
BBX 19 28 2 0
BITMAP
01F000
0FFE00
1FFF00
3E0F80
3C07C0
7803C0
7803C0
7801C0
7801C0
780000
780000
3C0000
3E0000
1E0000
0F0000
FFFC00
FFFC00
FFFC00
078000
038000
078000
070000
070000
0E0000
1C0000
FFFFE0
FFFFE0
FFFFE0
ENDCHAR
STARTCHAR 00A4
ENCODING 164
SWIDTH 565 0
DWIDTH 22 0
BBX 17 18 3 5
BITMAP
400100
E7F380
7FFF00
3FFE00
780E00
700700
E00700
E00380
E00380
E00380
E00380
E00300
700700
780F00
7C3E00
7FFF00
EFF380
C08100
ENDCHAR
STARTCHAR 00A5
ENCODING 165
SWIDTH 617 0
DWIDTH 24 0
BBX 20 27 2 0
BITMAP
E000F0
F000F0
7001E0
7801E0
3803C0
3C03C0
1C0780
1E0780
0E0F00
0F0E00
071E00
079C00
03BC00
03F800
01F800
01F000
1FFF80
1FFF80
00F000
00F000
1FFF80
1FFF80
00F000
00F000
00F000
00F000
00F000
ENDCHAR
STARTCHAR 00A6
ENCODING 166
SWIDTH 282 0
DWIDTH 11 0
BBX 3 46 4 -9
BITMAP
E0
E0
E0
E0
E0
E0
E0
E0
E0
E0
E0
E0
E0
E0
E0
E0
E0
E0
E0
E0
E0
00
00
00
00
00
00
E0
E0
E0
E0
E0
E0
E0
E0
E0
E0
E0
E0
E0
E0
E0
E0
E0
E0
E0
ENDCHAR
STARTCHAR 00A7
ENCODING 167
SWIDTH 540 0
DWIDTH 21 0
BBX 18 28 2 0
BITMAP
03E000
0FFC00
3FFE00
3C1E00
780F00
700700
700000
780000
3F0000
1FF800
7FFE00
703F00
E00780
E00380
E003C0
F003C0
7E0380
3FFF80
0FFE00
00FE00
000F00
000700
700780
700700
780F00
3F7F00
1FFE00
07F800
ENDCHAR
STARTCHAR 00A8
ENCODING 168
SWIDTH 360 0
DWIDTH 14 0
BBX 12 5 1 24
BITMAP
2060
F0F0
F8F0
F0F0
6060
ENDCHAR
STARTCHAR 00A9
ENCODING 169
SWIDTH 797 0
DWIDTH 31 0
BBX 28 28 2 0
BITMAP
001F8000
00FFF000
03FFFC00
0F801E00
1E000700
1C000380
381F81C0
707FE0C0
60F0F0E0
E1C03860
E1801860
C3801870
C3000070
C3000070
C3000070
C3000070
C3801070
C3801860
E1C03860
60E070E0
70FFE0C0
703FC1C0
38040380
1C000780
0F000F00
07C03E00
03FFF800
00FFE000
ENDCHAR
STARTCHAR 00AA
ENCODING 170
SWIDTH 128 0
DWIDTH 5 0
BBX 5 6 0 15
BITMAP
28
F8
C8
C8
D8
68
ENDCHAR
STARTCHAR 00AB
ENCODING 171
SWIDTH 617 0
DWIDTH 24 0
BBX 21 17 2 4
BITMAP
01E038
03C070
0780E0
0F01C0
1E03C0
1C0780
380F00
701E00
E03C00
F01C00
780E00
3C0700
1E0380
0F01C0
0780E0
03C0F0
01C078
ENDCHAR
STARTCHAR 00AC
ENCODING 172
SWIDTH 642 0
DWIDTH 25 0
BBX 19 10 3 11
BITMAP
FFFFE0
FFFFE0
FFFFE0
000060
000060
000060
000060
000060
000060
000060
ENDCHAR
STARTCHAR 00AD
ENCODING 173
SWIDTH 591 0
DWIDTH 23 0
BBX 14 3 5 11
BITMAP
FFFC
FFFC
FFFC
ENDCHAR
STARTCHAR 00AE
ENCODING 174
SWIDTH 334 0
DWIDTH 13 0
BBX 9 10 2 17
BITMAP
3E00
6100
DC80
9280
9C80
9480
9480
4180
3F00
0800
ENDCHAR
STARTCHAR 00AF
ENCODING 175
SWIDTH 360 0
DWIDTH 14 0
BBX 12 2 1 25
BITMAP
FFF0
FFF0
ENDCHAR
STARTCHAR 00B0
ENCODING 176
SWIDTH 282 0
DWIDTH 11 0
BBX 8 8 2 26
BITMAP
18
7E
E6
C3
C3
C6
7E
38
ENDCHAR
STARTCHAR 00B1
ENCODING 177
SWIDTH 591 0
DWIDTH 23 0
BBX 16 21 4 0
BITMAP
0380
0380
0380
0380
0380
0380
FFFF
FFFF
FFFF
0380
0380
0380
0380
0380
0380
0000
0000
0000
0000
FFFF
FFFF
ENDCHAR
STARTCHAR 00B2
ENCODING 178
SWIDTH 282 0
DWIDTH 11 0
BBX 10 14 1 16
BITMAP
3F00
7380
E180
C1C0
01C0
0180
0380
0700
0E00
1C00
3800
7000
FFC0
FFC0
ENDCHAR
STARTCHAR 00B3
ENCODING 179
SWIDTH 308 0
DWIDTH 12 0
BBX 10 16 1 14
BITMAP
0400
3F80
7380
E0C0
00C0
00C0
0180
0F00
0F80
01C0
00C0
C0C0
E1C0
7F80
3F80
0400
ENDCHAR
STARTCHAR 00B4
ENCODING 180
SWIDTH 231 0
DWIDTH 9 0
BBX 7 7 1 24
BITMAP
0E
1C
1C
38
70
70
E0
ENDCHAR
STARTCHAR 00B5
ENCODING 181
SWIDTH 642 0
DWIDTH 25 0
BBX 21 29 3 -8
BITMAP
E00700
E00700
E00700
E00700
E00700
E00700
E00700
E00700
E00700
E00700
E00700
E00700
E00700
E00700
E00F00
E00F00
F01F00
F03F80
FFF7C0
FFE3F8
EFC1F8
E00000
E00000
E00000
E00000
E00000
E00000
E00000
E00000
ENDCHAR
STARTCHAR 00B6
ENCODING 182
SWIDTH 514 0
DWIDTH 20 0
BBX 17 27 1 0
BITMAP
0FFF80
3FFF80
7FFF80
7FF180
FFF180
FFF180
FFF180
FFF180
FFF180
FFF180
7FF180
3FF180
1FF180
03F180
003180
003180
003180
003180
003180
003180
003180
003180
003180
003180
003180
003180
003180
ENDCHAR
STARTCHAR 00B7
ENCODING 183
SWIDTH 282 0
DWIDTH 11 0
BBX 5 4 3 12
BITMAP
70
F8
F8
70
ENDCHAR
STARTCHAR 00B8
ENCODING 184
SWIDTH 231 0
DWIDTH 9 0
BBX 7 10 1 -10
BITMAP
60
60
78
FE
06
06
06
4E
7C
30
ENDCHAR
STARTCHAR 00B9
ENCODING 185
SWIDTH 257 0
DWIDTH 10 0
BBX 8 15 1 15
BITMAP
18
38
78
F8
98
18
18
18
18
18
18
18
18
FF
FF
ENDCHAR
STARTCHAR 00BA
ENCODING 186
SWIDTH 154 0
DWIDTH 6 0
BBX 5 6 1 15
BITMAP
60
D0
98
98
90
70
ENDCHAR
STARTCHAR 00BB
ENCODING 187
SWIDTH 617 0
DWIDTH 24 0
BBX 21 17 2 4
BITMAP
E03800
F01C00
780E00
3C0700
1E0380
0F01C0
0780E0
03C070
01E078
03C070
0780F0
0701E0
0E03C0
1C0780
380F00
701E00
E03C00
ENDCHAR
STARTCHAR 00BC
ENCODING 188
SWIDTH 797 0
DWIDTH 31 0
BBX 28 27 2 0
BITMAP
38000E00
78000E00
F8001C00
F8003C00
B8003800
38007000
38007000
3800E000
3801E000
3801C000
38038000
FE038000
FE070000
000F01C0
000E03C0
001C03C0
001C06C0
003806C0
00780CC0
007018C0
00E018C0
00E030C0
01C03FF0
03C03FF0
038000C0
070000C0
070000C0
ENDCHAR
STARTCHAR 00BD
ENCODING 189
SWIDTH 822 0
DWIDTH 32 0
BBX 29 27 2 0
BITMAP
38000700
78000F00
F8000E00
F8001C00
B8001C00
38003800
38007800
38007000
3800E000
3800E000
3801C000
FE03C000
FE038000
000701E0
000707F0
000E0E38
001E0E18
001C0C18
00380038
00380030
00700070
00F000E0
00E003C0
01C00700
01C00E00
03800FF8
07800FF8
ENDCHAR
STARTCHAR 00BE
ENCODING 190
SWIDTH 822 0
DWIDTH 32 0
BBX 29 27 2 0
BITMAP
7F000780
FF800700
E3800E00
01800E00
01801C00
07803C00
1E003800
07007000
01807000
0180E000
C181E000
F381C000
7F038000
3E0380F0
000700F0
000F01F0
000E03F0
001C0370
001C0670
00380670
00780C70
00701870
00E01FF8
00E01FF8
01C00070
03C00070
03800070
ENDCHAR
STARTCHAR 00BF
ENCODING 191
SWIDTH 565 0
DWIDTH 22 0
BBX 18 29 2 -10
BITMAP
004000
00E000
01F000
00F000
006000
000000
000000
000000
00E000
00E000
01E000
03C000
03C000
0F8000
1F0000
1E0000
3C0000
780000
700000
F00000
F001C0
F001C0
F003C0
7803C0
7C0780
3FFF00
1FFF00
0FFC00
00E000
ENDCHAR
STARTCHAR 00C0
ENCODING 192
SWIDTH 668 0
DWIDTH 26 0
BBX 23 37 2 0
BITMAP
078000
038000
01C000
01E000
00E000
007000
007000
000000
000000
000000
007800
007800
007C00
00FC00
00FE00
01EE00
01CE00
01C700
03C700
038780
038380
070380
0703C0
0F01C0
0E01C0
0E01E0
1FFFE0
1FFFF0
1FFFF0
3C0070
380078
780038
700038
70003C
F0001C
E0001E
E0000E
ENDCHAR
STARTCHAR 00C1
ENCODING 193
SWIDTH 668 0
DWIDTH 26 0
BBX 23 37 2 0
BITMAP
000380
000700
000F00
000E00
001C00
001C00
003800
000000
000000
000000
007800
007800
007C00
00FC00
00FE00
01EE00
01CE00
01C700
03C700
038780
038380
070380
0703C0
0F01C0
0E01C0
0E01E0
1FFFE0
1FFFF0
1FFFF0
3C0070
380078
780038
700038
70003C
F0001C
E0001E
E0000E
ENDCHAR
STARTCHAR 00C2
ENCODING 194
SWIDTH 668 0
DWIDTH 26 0
BBX 23 35 2 0
BITMAP
007C00
00FC00
01CE00
03C700
078380
000000
000000
000000
007800
007800
007C00
00FC00
00FE00
01EE00
01CE00
01C700
03C700
038780
038380
070380
0703C0
0F01C0
0E01C0
0E01E0
1FFFE0
1FFFF0
1FFFF0
3C0070
380078
780038
700038
70003C
F0001C
E0001E
E0000E
ENDCHAR
STARTCHAR 00C3
ENCODING 195
SWIDTH 668 0
DWIDTH 26 0
BBX 23 35 2 0
BITMAP
01E180
03F380
033F00
031E00
000000
000000
000000
000000
007800
007800
007C00
00FC00
00FE00
01EE00
01CE00
01C700
03C700
038780
038380
070380
0703C0
0F01C0
0E01C0
0E01E0
1FFFE0
1FFFF0
1FFFF0
3C0070
380078
780038
700038
70003C
F0001C
E0001E
E0000E
ENDCHAR
STARTCHAR 00C4
ENCODING 196
SWIDTH 668 0
DWIDTH 26 0
BBX 23 35 2 0
BITMAP
038780
07C780
07C780
038300
000000
000000
000000
000000
007800
007800
007C00
00FC00
00FE00
01EE00
01CE00
01C700
03C700
038780
038380
070380
0703C0
0F01C0
0E01C0
0E01E0
1FFFE0
1FFFF0
1FFFF0
3C0070
380078
780038
700038
70003C
F0001C
E0001E
E0000E
ENDCHAR
STARTCHAR 00C5
ENCODING 197
SWIDTH 668 0
DWIDTH 26 0
BBX 23 37 2 0
BITMAP
007800
00CC00
008600
008600
00CC00
007C00
000000
000000
000000
000000
007800
007800
007C00
00FC00
00FE00
01EE00
01CE00
01C700
03C700
038780
038380
070380
0703C0
0F01C0
0E01C0
0E01E0
1FFFE0
1FFFF0
1FFFF0
3C0070
380078
780038
700038
70003C
F0001C
E0001E
E0000E
ENDCHAR
STARTCHAR 00C6
ENCODING 198
SWIDTH 951 0
DWIDTH 37 0
BBX 34 27 1 0
BITMAP
0003FFFFC0
0007FFFFC0
0007FFFFC0
000F700000
000F700000
001E700000
001E700000
003C700000
003C700000
0078700000
0070700000
00F0700000
00E07FFF00
01E07FFF00
03C0700000
03C0700000
07FFF00000
07FFF00000
0FFFF00000
0F00700000
1E00700000
1E00700000
3C00700000
3800700000
78007FFFC0
70007FFFC0
F0007FFFC0
ENDCHAR
STARTCHAR 00C7
ENCODING 199
SWIDTH 694 0
DWIDTH 27 0
BBX 24 37 2 -10
BITMAP
007E00
01FFC0
07FFF0
0FC3F8
1F007C
3E003C
3C001E
78000E
78000F
700007
F00000
F00000
F00000
F00000
F00000
F00000
F00000
F00000
700000
70000F
78000E
38001E
3C001C
1E003C
0F80F8
07FFF0
03FFE0
00FF80
001800
001800
001F00
003F80
0001C0
0000C0
0001C0
001F80
001F00
ENDCHAR
STARTCHAR 00C8
ENCODING 200
SWIDTH 565 0
DWIDTH 22 0
BBX 17 37 3 0
BITMAP
3C0000
1C0000
0E0000
0F0000
070000
038000
038000
000000
000000
000000
FFFF80
FFFF80
FFFF80
E00000
E00000
E00000
E00000
E00000
E00000
E00000
E00000
E00000
FFFE00
FFFE00
E00000
E00000
E00000
E00000
E00000
E00000
E00000
E00000
E00000
E00000
FFFF80
FFFF80
FFFF80
ENDCHAR
STARTCHAR 00C9
ENCODING 201
SWIDTH 565 0
DWIDTH 22 0
BBX 17 37 3 0
BITMAP
001C00
003800
007800
007000
00E000
00E000
01C000
000000
000000
000000
FFFF80
FFFF80
FFFF80
E00000
E00000
E00000
E00000
E00000
E00000
E00000
E00000
E00000
FFFE00
FFFE00
E00000
E00000
E00000
E00000
E00000
E00000
E00000
E00000
E00000
E00000
FFFF80
FFFF80
FFFF80
ENDCHAR
STARTCHAR 00CA
ENCODING 202
SWIDTH 565 0
DWIDTH 22 0
BBX 17 35 3 0
BITMAP
03E000
07F000
0E7000
1E3800
3C1C00
000000
000000
000000
FFFF80
FFFF80
FFFF80
E00000
E00000
E00000
E00000
E00000
E00000
E00000
E00000
E00000
FFFE00
FFFE00
E00000
E00000
E00000
E00000
E00000
E00000
E00000
E00000
E00000
E00000
FFFF80
FFFF80
FFFF80
ENDCHAR
STARTCHAR 00CB
ENCODING 203
SWIDTH 565 0
DWIDTH 22 0
BBX 17 35 3 0
BITMAP
1C3C00
3E3C00
3E3C00
1C1800
000000
000000
000000
000000
FFFF80
FFFF80
FFFF80
E00000
E00000
E00000
E00000
E00000
E00000
E00000
E00000
E00000
FFFE00
FFFE00
E00000
E00000
E00000
E00000
E00000
E00000
E00000
E00000
E00000
E00000
FFFF80
FFFF80
FFFF80
ENDCHAR
STARTCHAR 00CC
ENCODING 204
SWIDTH 231 0
DWIDTH 9 0
BBX 7 37 -1 0
BITMAP
E0
70
70
38
1C
1C
0E
00
00
00
0E
0E
0E
0E
0E
0E
0E
0E
0E
0E
0E
0E
0E
0E
0E
0E
0E
0E
0E
0E
0E
0E
0E
0E
0E
0E
0E
ENDCHAR
STARTCHAR 00CD
ENCODING 205
SWIDTH 231 0
DWIDTH 9 0
BBX 8 37 3 0
BITMAP
0F
0E
1C
3C
38
70
70
00
00
00
E0
E0
E0
E0
E0
E0
E0
E0
E0
E0
E0
E0
E0
E0
E0
E0
E0
E0
E0
E0
E0
E0
E0
E0
E0
E0
E0
ENDCHAR
STARTCHAR 00CE
ENCODING 206
SWIDTH 231 0
DWIDTH 9 0
BBX 12 35 -1 0
BITMAP
1F00
1F80
39C0
71E0
E0F0
0000
0000
0000
0E00
0E00
0E00
0E00
0E00
0E00
0E00
0E00
0E00
0E00
0E00
0E00
0E00
0E00
0E00
0E00
0E00
0E00
0E00
0E00
0E00
0E00
0E00
0E00
0E00
0E00
0E00
ENDCHAR
STARTCHAR 00CF
ENCODING 207
SWIDTH 231 0
DWIDTH 9 0
BBX 12 35 -1 0
BITMAP
F0E0
F1F0
F0F0
60E0
0000
0000
0000
0000
0E00
0E00
0E00
0E00
0E00
0E00
0E00
0E00
0E00
0E00
0E00
0E00
0E00
0E00
0E00
0E00
0E00
0E00
0E00
0E00
0E00
0E00
0E00
0E00
0E00
0E00
0E00
ENDCHAR
STARTCHAR 00D0
ENCODING 208
SWIDTH 694 0
DWIDTH 27 0
BBX 24 27 2 0
BITMAP
3FFF00
3FFFC0
3FFFF0
3801F8
38007C
38003C
38001E
38001E
38000E
38000F
38000F
38000F
FFC007
FFC007
380007
38000F
38000F
38000F
38000E
38001E
38001E
38003C
380078
3803F8
3FFFE0
3FFFC0
3FFE00
ENDCHAR
STARTCHAR 00D1
ENCODING 209
SWIDTH 694 0
DWIDTH 27 0
BBX 22 35 3 0
BITMAP
01E300
03F300
073F00
061E00
000000
000000
000000
000000
F0003C
F8003C
FC003C
FC003C
FE003C
FF003C
EF003C
E7803C
E7C03C
E3C03C
E1E03C
E1F03C
E0F03C
E0783C
E07C3C
E03C3C
E01E3C
E01F3C
E00F3C
E007BC
E003FC
E003FC
E001FC
E000FC
E000FC
E0007C
E0003C
ENDCHAR
STARTCHAR 00D2
ENCODING 210
SWIDTH 720 0
DWIDTH 28 0
BBX 25 37 2 0
BITMAP
03C00000
01E00000
00E00000
00F00000
00700000
00380000
00380000
00000000
00000000
003E0000
01FFC000
07FFF000
0FE3F800
1F007C00
3E003C00
3C001E00
78001E00
78000F00
70000F00
F0000700
F0000700
F0000700
F0000700
F0000780
F0000700
F0000700
F0000700
F0000F00
70000F00
78000E00
78001E00
3C003E00
1E007C00
1F80F800
0FFFF000
03FFE000
00FF8000
ENDCHAR
STARTCHAR 00D3
ENCODING 211
SWIDTH 720 0
DWIDTH 28 0
BBX 25 37 2 0
BITMAP
0001C000
00038000
00038000
00070000
000E0000
000E0000
001C0000
00000000
00000000
003E0000
01FFC000
07FFF000
0FE3F800
1F007C00
3E003C00
3C001E00
78001E00
78000F00
70000F00
F0000700
F0000700
F0000700
F0000700
F0000780
F0000700
F0000700
F0000700
F0000F00
70000F00
78000E00
78001E00
3C003E00
1E007C00
1F80F800
0FFFF000
03FFE000
00FF8000
ENDCHAR
STARTCHAR 00D4
ENCODING 212
SWIDTH 720 0
DWIDTH 28 0
BBX 25 35 2 0
BITMAP
003E0000
007F0000
00F70000
01E38000
03C1C000
00000000
00000000
003E0000
01FFC000
07FFF000
0FE3F800
1F007C00
3E003C00
3C001E00
78001E00
78000F00
70000F00
F0000700
F0000700
F0000700
F0000700
F0000780
F0000700
F0000700
F0000700
F0000F00
70000F00
78000E00
78001E00
3C003E00
1E007C00
1F80F800
0FFFF000
03FFE000
00FF8000
ENDCHAR
STARTCHAR 00D5
ENCODING 213
SWIDTH 720 0
DWIDTH 28 0
BBX 25 35 2 0
BITMAP
00F0C000
01FDC000
019F8000
01878000
00000000
00000000
00000000
003E0000
01FFC000
07FFF000
0FE3F800
1F007C00
3E003C00
3C001E00
78001E00
78000F00
70000F00
F0000700
F0000700
F0000700
F0000700
F0000780
F0000700
F0000700
F0000700
F0000F00
70000F00
78000E00
78001E00
3C003E00
1E007C00
1F80F800
0FFFF000
03FFE000
00FF8000
ENDCHAR
STARTCHAR 00D6
ENCODING 214
SWIDTH 720 0
DWIDTH 28 0
BBX 25 35 2 0
BITMAP
01C3C000
03E3C000
03E3C000
01C18000
00000000
00000000
00000000
003E0000
01FFC000
07FFF000
0FE3F800
1F007C00
3E003C00
3C001E00
78001E00
78000F00
70000F00
F0000700
F0000700
F0000700
F0000700
F0000780
F0000700
F0000700
F0000700
F0000F00
70000F00
78000E00
78001E00
3C003E00
1E007C00
1F80F800
0FFFF000
03FFE000
00FF8000
ENDCHAR
STARTCHAR 00D7
ENCODING 215
SWIDTH 540 0
DWIDTH 21 0
BBX 13 13 4 6
BITMAP
2000
7030
F878
7CF0
3FE0
1FC0
0F80
0FC0
1FE0
3DF0
78F8
7078
2030
ENDCHAR
STARTCHAR 00D8
ENCODING 216
SWIDTH 720 0
DWIDTH 28 0
BBX 25 31 2 -2
BITMAP
00000F00
007E0E00
01FFDC00
07FFFC00
0FE3F800
1F007C00
3E007C00
3C00FE00
7801CE00
7801CF00
70038F00
F0078700
F0070700
F00E0780
F01E0780
F01C0780
F0380780
F0780780
F0700700
70E00700
78E00F00
79C00F00
3F801E00
3F803E00
1F007C00
1F80F800
0FFFF000
1FFFE000
3CFF8000
38000000
70000000
ENDCHAR
STARTCHAR 00D9
ENCODING 217
SWIDTH 668 0
DWIDTH 26 0
BBX 21 37 3 0
BITMAP
0F0000
078000
038000
03C000
01C000
00E000
006000
000000
000000
000000
E00038
E00038
E00038
E00038
E00038
E00038
E00038
E00038
E00038
E00038
E00038
E00038
E00038
E00038
E00038
E00038
E00038
E00078
E00078
F00078
F00070
7800F0
7801E0
3E03E0
1FFFC0
0FFF80
03FE00
ENDCHAR
STARTCHAR 00DA
ENCODING 218
SWIDTH 668 0
DWIDTH 26 0
BBX 21 37 3 0
BITMAP
000700
000F00
000E00
001C00
003800
003800
007000
000000
000000
000000
E00038
E00038
E00038
E00038
E00038
E00038
E00038
E00038
E00038
E00038
E00038
E00038
E00038
E00038
E00038
E00038
E00038
E00078
E00078
F00078
F00070
7800F0
7801E0
3E03E0
1FFFC0
0FFF80
03FE00
ENDCHAR
STARTCHAR 00DB
ENCODING 219
SWIDTH 668 0
DWIDTH 26 0
BBX 21 35 3 0
BITMAP
00F800
01FC00
03DC00
078E00
0F0700
000000
000000
000000
E00038
E00038
E00038
E00038
E00038
E00038
E00038
E00038
E00038
E00038
E00038
E00038
E00038
E00038
E00038
E00038
E00038
E00078
E00078
F00078
F00070
7800F0
7801E0
3E03E0
1FFFC0
0FFF80
03FE00
ENDCHAR
STARTCHAR 00DC
ENCODING 220
SWIDTH 668 0
DWIDTH 26 0
BBX 21 35 3 0
BITMAP
070F00
0F8F00
0F8F00
070600
000000
000000
000000
000000
E00038
E00038
E00038
E00038
E00038
E00038
E00038
E00038
E00038
E00038
E00038
E00038
E00038
E00038
E00038
E00038
E00038
E00078
E00078
F00078
F00070
7800F0
7801E0
3E03E0
1FFFC0
0FFF80
03FE00
ENDCHAR
STARTCHAR 00DD
ENCODING 221
SWIDTH 591 0
DWIDTH 23 0
BBX 20 37 2 0
BITMAP
000F00
000E00
001C00
001C00
003800
007000
007000
000000
000000
000000
E000F0
F000F0
7001E0
7801E0
3803C0
3C03C0
1C0780
1E0780
0E0F00
0F0E00
071E00
079C00
03BC00
03F800
01F800
01F000
00F000
00F000
00F000
00F000
00F000
00F000
00F000
00F000
00F000
00F000
00F000
ENDCHAR
STARTCHAR 00DE
ENCODING 222
SWIDTH 591 0
DWIDTH 23 0
BBX 19 27 3 0
BITMAP
E00000
E00000
E00000
E00000
FF8000
FFFC00
FFFF00
FFFF80
E00780
E003C0
E001C0
E001C0
E001E0
E001E0
E001E0
E001C0
E001C0
E003C0
E00780
FFFF00
FFFE00
FFFC00
E00000
E00000
E00000
E00000
E00000
ENDCHAR
STARTCHAR 00DF
ENCODING 223
SWIDTH 565 0
DWIDTH 22 0
BBX 17 28 3 0
BITMAP
07E000
1FF800
3FFE00
7C1E00
700F00
F00700
E00700
E00700
E00700
E00700
E00F00
E01E00
E7FC00
E7F000
E7FC00
E01E00
E00700
E00780
E00380
E00380
E00380
E00380
E00780
E00700
E00F00
E3FE00
E3FC00
E3F800
ENDCHAR
STARTCHAR 00E0
ENCODING 224
SWIDTH 617 0
DWIDTH 24 0
BBX 19 30 2 0
BITMAP
0F0000
070000
038000
038000
01C000
00C000
00E000
000000
000000
07F0E0
0FF8E0
1FFCE0
3E0EE0
7803E0
7803E0
F001E0
F001E0
E001E0
E000E0
E000E0
E000E0
E001E0
F001E0
F001E0
7003E0
7803E0
3C06E0
3FFCE0
1FF8E0
07F0E0
ENDCHAR
STARTCHAR 00E1
ENCODING 225
SWIDTH 617 0
DWIDTH 24 0
BBX 19 30 2 0
BITMAP
000F00
000E00
001C00
003C00
003800
007000
007000
000000
000000
07F0E0
0FF8E0
1FFCE0
3E0EE0
7803E0
7803E0
F001E0
F001E0
E001E0
E000E0
E000E0
E000E0
E001E0
F001E0
F001E0
7003E0
7803E0
3C06E0
3FFCE0
1FF8E0
07F0E0
ENDCHAR
STARTCHAR 00E2
ENCODING 226
SWIDTH 617 0
DWIDTH 24 0
BBX 19 29 2 0
BITMAP
00F000
01F000
03F800
039C00
070E00
0E0700
000000
000000
07F0E0
0FF8E0
1FFCE0
3E0EE0
7803E0
7803E0
F001E0
F001E0
E001E0
E000E0
E000E0
E000E0
E001E0
F001E0
F001E0
7003E0
7803E0
3C06E0
3FFCE0
1FF8E0
07F0E0
ENDCHAR
STARTCHAR 00E3
ENCODING 227
SWIDTH 617 0
DWIDTH 24 0
BBX 19 28 2 0
BITMAP
07C600
07F600
0E7E00
0C1C00
000000
000000
000000
07F0E0
0FF8E0
1FFCE0
3E0EE0
7803E0
7803E0
F001E0
F001E0
E001E0
E000E0
E000E0
E000E0
E001E0
F001E0
F001E0
7003E0
7803E0
3C06E0
3FFCE0
1FF8E0
07F0E0
ENDCHAR
STARTCHAR 00E4
ENCODING 228
SWIDTH 617 0
DWIDTH 24 0
BBX 19 29 2 0
BITMAP
060600
0F0F00
0F0F00
0F0F00
060600
000000
000000
000000
07F0E0
0FF8E0
1FFCE0
3E0EE0
7803E0
7803E0
F001E0
F001E0
E001E0
E000E0
E000E0
E000E0
E001E0
F001E0
F001E0
7003E0
7803E0
3C06E0
3FFCE0
1FF8E0
07F0E0
ENDCHAR
STARTCHAR 00E5
ENCODING 229
SWIDTH 617 0
DWIDTH 24 0
BBX 19 31 2 0
BITMAP
004000
01F000
019800
030800
010800
01B800
00F000
000000
000000
000000
07F0E0
0FF8E0
1FFCE0
3E0EE0
7803E0
7803E0
F001E0
F001E0
E001E0
E000E0
E000E0
E000E0
E001E0
F001E0
F001E0
7003E0
7803E0
3C06E0
3FFCE0
1FF8E0
07F0E0
ENDCHAR
STARTCHAR 00E6
ENCODING 230
SWIDTH 925 0
DWIDTH 36 0
BBX 33 21 2 0
BITMAP
03F00FE000
0FF81FF800
3FFC7FFC00
3C0E701E00
7807E00E00
7007C00F00
F003C00700
0003C00700
0003800700
01FFFFFF80
1FFFFFFF80
7FFFFFFF80
7003800000
F003800000
E003C00000
E007C00700
F006E00F00
F00EF01E00
7E7C7FFC00
3FF83FF800
1FE00FE000
ENDCHAR
STARTCHAR 00E7
ENCODING 231
SWIDTH 565 0
DWIDTH 22 0
BBX 19 31 2 -10
BITMAP
03F800
0FFE00
1FFF00
3E0780
7803C0
7801C0
7001C0
F001E0
F00000
E00000
E00000
E00000
E00000
F001E0
7001C0
7801C0
7803C0
3C0780
1FFF00
0FFE00
03FC00
006000
00C000
00F800
00FC00
000600
000600
000600
00DC00
00FC00
003000
ENDCHAR
STARTCHAR 00E8
ENCODING 232
SWIDTH 565 0
DWIDTH 22 0
BBX 19 30 2 0
BITMAP
0E0000
070000
070000
038000
01C000
01C000
00E000
000000
000000
03F800
0FFE00
1FFF00
3C0780
780380
7001C0
7001C0
F001C0
E001E0
FFFFE0
FFFFE0
FFFFE0
E00000
F00000
700000
7001C0
7803C0
3C0780
1FFF00
0FFE00
03FC00
ENDCHAR
STARTCHAR 00E9
ENCODING 233
SWIDTH 565 0
DWIDTH 22 0
BBX 19 30 2 0
BITMAP
000E00
001E00
001C00
003800
003800
007000
00E000
000000
000000
03F800
0FFE00
1FFF00
3C0780
780380
7001C0
7001C0
F001C0
E001E0
FFFFE0
FFFFE0
FFFFE0
E00000
F00000
700000
7001C0
7803C0
3C0780
1FFF00
0FFE00
03FC00
ENDCHAR
STARTCHAR 00EA
ENCODING 234
SWIDTH 565 0
DWIDTH 22 0
BBX 19 29 2 0
BITMAP
00E000
01F000
03B800
079C00
0F0E00
1E0F00
000000
000000
03F800
0FFE00
1FFF00
3C0780
780380
7001C0
7001C0
F001C0
E001E0
FFFFE0
FFFFE0
FFFFE0
E00000
F00000
700000
7001C0
7803C0
3C0780
1FFF00
0FFE00
03FC00
ENDCHAR
STARTCHAR 00EB
ENCODING 235
SWIDTH 565 0
DWIDTH 22 0
BBX 19 29 2 0
BITMAP
060400
0F1E00
0F1F00
0F1E00
060C00
000000
000000
000000
03F800
0FFE00
1FFF00
3C0780
780380
7001C0
7001C0
F001C0
E001E0
FFFFE0
FFFFE0
FFFFE0
E00000
F00000
700000
7001C0
7803C0
3C0780
1FFF00
0FFE00
03FC00
ENDCHAR
STARTCHAR 00EC
ENCODING 236
SWIDTH 231 0
DWIDTH 9 0
BBX 8 30 -1 0
BITMAP
F0
70
38
38
1C
0C
0E
00
00
0F
0F
0F
0F
0F
0F
0F
0F
0F
0F
0F
0F
0F
0F
0F
0F
0F
0F
0F
0F
0F
ENDCHAR
STARTCHAR 00ED
ENCODING 237
SWIDTH 231 0
DWIDTH 9 0
BBX 8 30 3 0
BITMAP
0F
1E
1C
3C
38
70
60
00
00
F0
F0
F0
F0
F0
F0
F0
F0
F0
F0
F0
F0
F0
F0
F0
F0
F0
F0
F0
F0
F0
ENDCHAR
STARTCHAR 00EE
ENCODING 238
SWIDTH 231 0
DWIDTH 9 0
BBX 12 29 -1 0
BITMAP
0F00
1F00
3F80
79C0
70E0
E070
0000
0000
0F00
0F00
0F00
0F00
0F00
0F00
0F00
0F00
0F00
0F00
0F00
0F00
0F00
0F00
0F00
0F00
0F00
0F00
0F00
0F00
0F00
ENDCHAR
STARTCHAR 00EF
ENCODING 239
SWIDTH 231 0
DWIDTH 9 0
BBX 12 29 -1 0
BITMAP
6060
F0F0
F0F0
F0F0
6060
0000
0000
0000
0F00
0F00
0F00
0F00
0F00
0F00
0F00
0F00
0F00
0F00
0F00
0F00
0F00
0F00
0F00
0F00
0F00
0F00
0F00
0F00
0F00
ENDCHAR
STARTCHAR 00F0
ENCODING 240
SWIDTH 591 0
DWIDTH 23 0
BBX 19 31 2 0
BITMAP
038000
03F0C0
03FFC0
003F00
003F00
007F80
00E780
0003C0
0001C0
0001C0
07E1E0
1FF9E0
3FFDE0
3C0FE0
7807E0
F003E0
F001E0
E001E0
E001E0
E001E0
E001E0
E001E0
E001E0
E001C0
F001C0
7003C0
780380
3C0F80
3FFF00
0FFE00
07F800
ENDCHAR
STARTCHAR 00F1
ENCODING 241
SWIDTH 591 0
DWIDTH 23 0
BBX 18 28 3 0
BITMAP
0F8C00
0FEC00
1CFC00
183800
000000
000000
000000
E1F800
E3FE00
E7FF00
EE0F80
F80780
F003C0
F003C0
E001C0
E001C0
E001C0
E001C0
E001C0
E001C0
E001C0
E001C0
E001C0
E001C0
E001C0
E001C0
E001C0
E001C0
ENDCHAR
STARTCHAR 00F2
ENCODING 242
SWIDTH 591 0
DWIDTH 23 0
BBX 19 30 2 0
BITMAP
0E0000
070000
070000
038000
01C000
01C000
00E000
000000
000000
03F800
0FFE00
1FFF00
3E0F80
7C03C0
7803C0
7001C0
F001E0
F000E0
E000E0
E000E0
E000E0
E000E0
F001E0
7001E0
7801C0
7803C0
3C0780
1FFF00
0FFE00
03F800
ENDCHAR
STARTCHAR 00F3
ENCODING 243
SWIDTH 591 0
DWIDTH 23 0
BBX 19 30 2 0
BITMAP
000E00
001E00
001C00
003800
003800
007000
00E000
000000
000000
03F800
0FFE00
1FFF00
3E0F80
7C03C0
7803C0
7001C0
F001E0
F000E0
E000E0
E000E0
E000E0
E000E0
F001E0
7001E0
7801C0
7803C0
3C0780
1FFF00
0FFE00
03F800
ENDCHAR
STARTCHAR 00F4
ENCODING 244
SWIDTH 591 0
DWIDTH 23 0
BBX 19 29 2 0
BITMAP
00E000
01F000
03B800
079C00
0F0E00
1E0F00
000000
000000
03F800
0FFE00
1FFF00
3E0F80
7C03C0
7803C0
7001C0
F001E0
F000E0
E000E0
E000E0
E000E0
E000E0
F001E0
7001E0
7801C0
7803C0
3C0780
1FFF00
0FFE00
03F800
ENDCHAR
STARTCHAR 00F5
ENCODING 245
SWIDTH 591 0
DWIDTH 23 0
BBX 19 28 2 0
BITMAP
07C600
0FEE00
0C7C00
0C3800
000000
000000
000000
03F800
0FFE00
1FFF00
3E0F80
7C03C0
7803C0
7001C0
F001E0
F000E0
E000E0
E000E0
E000E0
E000E0
F001E0
7001E0
7801C0
7803C0
3C0780
1FFF00
0FFE00
03F800
ENDCHAR
STARTCHAR 00F6
ENCODING 246
SWIDTH 591 0
DWIDTH 23 0
BBX 19 29 2 0
BITMAP
060400
0F1E00
0F1F00
0F1E00
060C00
000000
000000
000000
03F800
0FFE00
1FFF00
3E0F80
7C03C0
7803C0
7001C0
F001E0
F000E0
E000E0
E000E0
E000E0
E000E0
F001E0
7001E0
7801C0
7803C0
3C0780
1FFF00
0FFE00
03F800
ENDCHAR
STARTCHAR 00F7
ENCODING 247
SWIDTH 591 0
DWIDTH 23 0
BBX 15 18 3 3
BITMAP
0380
07C0
07C0
0380
0000
0000
0000
FFFE
FFFE
FFFE
0000
0000
0000
0100
03C0
07C0
03C0
0380
ENDCHAR
STARTCHAR 00F8
ENCODING 248
SWIDTH 591 0
DWIDTH 23 0
BBX 19 25 2 -2
BITMAP
000180
000380
03FB00
0FFF00
1FFF00
3E0F80
780FC0
781FC0
7039E0
F039E0
F070E0
E060E0
E0E0E0
E0C0E0
E1C0E0
F181E0
7381E0
7F01C0
7F03C0
3E0780
1FFF00
1FFE00
1BF800
380000
300000
ENDCHAR
STARTCHAR 00F9
ENCODING 249
SWIDTH 591 0
DWIDTH 23 0
BBX 18 30 3 0
BITMAP
1C0000
1E0000
0E0000
070000
070000
038000
018000
000000
000000
E003C0
E003C0
E003C0
E003C0
E003C0
E003C0
E003C0
E003C0
E003C0
E003C0
E003C0
E003C0
E003C0
E003C0
F003C0
F003C0
7807C0
7C0FC0
3FFBC0
3FF3C0
0FE3C0
ENDCHAR
STARTCHAR 00FA
ENCODING 250
SWIDTH 591 0
DWIDTH 23 0
BBX 18 30 3 0
BITMAP
003C00
003800
007800
007000
00E000
00E000
01C000
000000
000000
E003C0
E003C0
E003C0
E003C0
E003C0
E003C0
E003C0
E003C0
E003C0
E003C0
E003C0
E003C0
E003C0
E003C0
F003C0
F003C0
7807C0
7C0FC0
3FFBC0
3FF3C0
0FE3C0
ENDCHAR
STARTCHAR 00FB
ENCODING 251
SWIDTH 591 0
DWIDTH 23 0
BBX 18 29 3 0
BITMAP
01C000
03E000
07F000
0E7800
1C3C00
381C00
000000
000000
E003C0
E003C0
E003C0
E003C0
E003C0
E003C0
E003C0
E003C0
E003C0
E003C0
E003C0
E003C0
E003C0
E003C0
F003C0
F003C0
7807C0
7C0FC0
3FFBC0
3FF3C0
0FE3C0
ENDCHAR
STARTCHAR 00FC
ENCODING 252
SWIDTH 591 0
DWIDTH 23 0
BBX 18 29 3 0
BITMAP
081800
1C3C00
3E3C00
1C3C00
081800
000000
000000
000000
E003C0
E003C0
E003C0
E003C0
E003C0
E003C0
E003C0
E003C0
E003C0
E003C0
E003C0
E003C0
E003C0
E003C0
F003C0
F003C0
7807C0
7C0FC0
3FFBC0
3FF3C0
0FE3C0
ENDCHAR
STARTCHAR 00FD
ENCODING 253
SWIDTH 514 0
DWIDTH 20 0
BBX 19 38 1 -8
BITMAP
000E00
001C00
001C00
003800
007000
007000
00E000
000000
000000
F000E0
7001E0
7001C0
7803C0
380380
380380
3C0780
1C0700
1E0700
0E0E00
0E0E00
0F1E00
071C00
071C00
03B800
03B800
03F800
01F000
01F000
00E000
01E000
01C000
01C000
03C000
038000
078000
7F0000
7E0000
7C0000
ENDCHAR
STARTCHAR 00FE
ENCODING 254
SWIDTH 617 0
DWIDTH 24 0
BBX 19 38 3 -9
BITMAP
E00000
E00000
E00000
E00000
E00000
E00000
E00000
E00000
E1FC00
E3FE00
E7FF00
EE0F80
F803C0
F803C0
F001E0
F001E0
F001E0
E000E0
E000E0
E000E0
E000E0
F001E0
F001E0
F801C0
F803C0
EC0780
E7FF80
E3FF00
E1FC00
E00000
E00000
E00000
E00000
E00000
E00000
E00000
E00000
E00000
ENDCHAR
STARTCHAR 00FF
ENCODING 255
SWIDTH 514 0
DWIDTH 20 0
BBX 19 37 1 -8
BITMAP
060400
0F1E00
1F1F00
0F1E00
060C00
000000
000000
000000
F000E0
7001E0
7001C0
7803C0
380380
380380
3C0780
1C0700
1E0700
0E0E00
0E0E00
0F1E00
071C00
071C00
03B800
03B800
03F800
01F000
01F000
00E000
01E000
01C000
01C000
03C000
038000
078000
7F0000
7E0000
7C0000
ENDCHAR
STARTCHAR 0100
ENCODING 256
SWIDTH 668 0
DWIDTH 26 0
BBX 23 33 2 0
BITMAP
07FF80
07FF80
000000
000000
000000
000000
007800
007800
007C00
00FC00
00FE00
01EE00
01CE00
01C700
03C700
038780
038380
070380
0703C0
0F01C0
0E01C0
0E01E0
1FFFE0
1FFFF0
1FFFF0
3C0070
380078
780038
700038
70003C
F0001C
E0001E
E0000E
ENDCHAR
STARTCHAR 0101
ENCODING 257
SWIDTH 617 0
DWIDTH 24 0
BBX 19 26 2 0
BITMAP
0FFF00
0FFF00
000000
000000
000000
07F0E0
0FF8E0
1FFCE0
3E0EE0
7803E0
7803E0
F001E0
F001E0
E001E0
E000E0
E000E0
E000E0
E001E0
F001E0
F001E0
7003E0
7803E0
3C06E0
3FFCE0
1FF8E0
07F0E0
ENDCHAR
STARTCHAR 0102
ENCODING 258
SWIDTH 668 0
DWIDTH 26 0
BBX 23 34 2 0
BITMAP
070380
03EF00
01FE00
003000
000000
000000
000000
007800
007800
007C00
00FC00
00FE00
01EE00
01CE00
01C700
03C700
038780
038380
070380
0703C0
0F01C0
0E01C0
0E01E0
1FFFE0
1FFFF0
1FFFF0
3C0070
380078
780038
700038
70003C
F0001C
E0001E
E0000E
ENDCHAR
STARTCHAR 0103
ENCODING 259
SWIDTH 617 0
DWIDTH 24 0
BBX 19 28 2 0
BITMAP
1C0700
0E0700
07FE00
03F800
000000
000000
000000
07F0E0
0FF8E0
1FFCE0
3E0EE0
7803E0
7803E0
F001E0
F001E0
E001E0
E000E0
E000E0
E000E0
E001E0
F001E0
F001E0
7003E0
7803E0
3C06E0
3FFCE0
1FF8E0
07F0E0
ENDCHAR
STARTCHAR 0104
ENCODING 260
SWIDTH 668 0
DWIDTH 26 0
BBX 24 33 2 -6
BITMAP
007800
007800
007C00
00FC00
00FE00
01EE00
01CE00
01C700
03C700
038780
038380
070380
0703C0
0F01C0
0E01C0
0E01E0
1FFFE0
1FFFF0
1FFFF0
3C0070
380078
780038
700038
70003C
F0001C
E0001E
E0000E
00001C
000038
000030
000038
00003F
00001F
ENDCHAR
STARTCHAR 0105
ENCODING 261
SWIDTH 617 0
DWIDTH 24 0
BBX 21 27 2 -6
BITMAP
07F0E0
0FF8E0
1FFCE0
3E0EE0
7803E0
7803E0
F001E0
F001E0
E001E0
E000E0
E000E0
E000E0
E001E0
F001E0
F001E0
7003E0
7803E0
3C06E0
3FFCE0
1FF8E0
07F0E0
0001C0
000180
000180
000180
0001F8
0000F8
ENDCHAR
STARTCHAR 0106
ENCODING 262
SWIDTH 694 0
DWIDTH 27 0
BBX 24 37 2 0
BITMAP
0003C0
000380
000700
000700
000E00
000C00
001C00
000000
000000
007E00
01FFC0
07FFF0
0FC3F8
1F007C
3E003C
3C001E
78000E
78000F
700007
F00000
F00000
F00000
F00000
F00000
F00000
F00000
F00000
700000
70000F
78000E
38001E
3C001C
1E003C
0F80F8
07FFF0
03FFE0
00FF80
ENDCHAR
STARTCHAR 0107
ENCODING 263
SWIDTH 565 0
DWIDTH 22 0
BBX 19 30 2 0
BITMAP
000E00
001E00
001C00
003800
003800
007000
006000
000000
000000
03F800
0FFE00
1FFF00
3E0780
7803C0
7801C0
7001C0
F001E0
F00000
E00000
E00000
E00000
E00000
F001E0
7001C0
7801C0
7803C0
3C0780
1FFF00
0FFE00
03FC00
ENDCHAR
STARTCHAR 010A
ENCODING 266
SWIDTH 694 0
DWIDTH 27 0
BBX 24 35 2 0
BITMAP
003C00
003C00
003C00
001800
000000
000000
000000
007E00
01FFC0
07FFF0
0FC3F8
1F007C
3E003C
3C001E
78000E
78000F
700007
F00000
F00000
F00000
F00000
F00000
F00000
F00000
F00000
700000
70000F
78000E
38001E
3C001C
1E003C
0F80F8
07FFF0
03FFE0
00FF80
ENDCHAR
STARTCHAR 010B
ENCODING 267
SWIDTH 565 0
DWIDTH 22 0
BBX 19 29 2 0
BITMAP
004000
00F000
01F000
00F000
006000
000000
000000
000000
03F800
0FFE00
1FFF00
3E0780
7803C0
7801C0
7001C0
F001E0
F00000
E00000
E00000
E00000
E00000
F001E0
7001C0
7801C0
7803C0
3C0780
1FFF00
0FFE00
03FC00
ENDCHAR
STARTCHAR 010C
ENCODING 268
SWIDTH 694 0
DWIDTH 27 0
BBX 24 35 2 0
BITMAP
03C3C0
01E780
00EF00
007E00
003C00
000000
000000
007E00
01FFC0
07FFF0
0FC3F8
1F007C
3E003C
3C001E
78000E
78000F
700007
F00000
F00000
F00000
F00000
F00000
F00000
F00000
F00000
700000
70000F
78000E
38001E
3C001C
1E003C
0F80F8
07FFF0
03FFE0
00FF80
ENDCHAR
STARTCHAR 010D
ENCODING 269
SWIDTH 565 0
DWIDTH 22 0
BBX 19 29 2 0
BITMAP
1E0700
0F0E00
071C00
03B800
01F000
00E000
000000
000000
03F800
0FFE00
1FFF00
3E0780
7803C0
7801C0
7001C0
F001E0
F00000
E00000
E00000
E00000
E00000
F001E0
7001C0
7801C0
7803C0
3C0780
1FFF00
0FFE00
03FC00
ENDCHAR
STARTCHAR 010E
ENCODING 270
SWIDTH 668 0
DWIDTH 26 0
BBX 22 36 3 0
BITMAP
1E0700
0F0F00
071E00
03BC00
01F800
00F000
000000
000000
000000
FFFC00
FFFF00
FFFFC0
E007E0
E001F0
E000F0
E00078
E00078
E00038
E0003C
E0003C
E0003C
E0003C
E0003C
E0003C
E0003C
E0003C
E0003C
E00038
E00078
E00078
E000F0
E003E0
E00FE0
FFFF80
FFFF00
FFFC00
ENDCHAR
STARTCHAR 010F
ENCODING 271
SWIDTH 720 0
DWIDTH 28 0
BBX 26 30 2 0
BITMAP
000007C0
0000E7C0
0000E7C0
0000E3C0
0000E0C0
0000E0C0
0000E0C0
0000E180
0000E300
07F0E200
0FF8E000
1FFCE000
3E0EE000
7803E000
7803E000
F001E000
F001E000
F000E000
E000E000
E000E000
E000E000
E000E000
F001E000
F001E000
7001E000
7803E000
3C06E000
3FFCE000
1FF8E000
07F0E000
ENDCHAR
STARTCHAR 0110
ENCODING 272
SWIDTH 694 0
DWIDTH 27 0
BBX 24 27 2 0
BITMAP
3FFF00
3FFFC0
3FFFF0
3801F8
38007C
38003C
38001E
38001E
38000E
38000F
38000F
38000F
FFC007
FFC007
380007
38000F
38000F
38000F
38000E
38001E
38001E
38003C
380078
3803F8
3FFFE0
3FFFC0
3FFE00
ENDCHAR
STARTCHAR 0111
ENCODING 273
SWIDTH 617 0
DWIDTH 24 0
BBX 22 29 2 0
BITMAP
0000E0
0000E0
0000E0
003FFC
003FFC
0000E0
0000E0
0000E0
07F0E0
0FF8E0
1FFCE0
3E0EE0
7803E0
7803E0
F001E0
F001E0
F000E0
E000E0
E000E0
E000E0
E000E0
F001E0
F001E0
7001E0
7803E0
3C06E0
3FFCE0
1FF8E0
07F0E0
ENDCHAR
STARTCHAR 0112
ENCODING 274
SWIDTH 565 0
DWIDTH 22 0
BBX 17 33 3 0
BITMAP
3FFC00
3FFC00
000000
000000
000000
000000
FFFF80
FFFF80
FFFF80
E00000
E00000
E00000
E00000
E00000
E00000
E00000
E00000
E00000
FFFE00
FFFE00
E00000
E00000
E00000
E00000
E00000
E00000
E00000
E00000
E00000
E00000
FFFF80
FFFF80
FFFF80
ENDCHAR
STARTCHAR 0113
ENCODING 275
SWIDTH 565 0
DWIDTH 22 0
BBX 19 26 2 0
BITMAP
0FFE00
0FFE00
000000
000000
000000
03F800
0FFE00
1FFF00
3C0780
780380
7001C0
7001C0
F001C0
E001E0
FFFFE0
FFFFE0
FFFFE0
E00000
F00000
700000
7001C0
7803C0
3C0780
1FFF00
0FFE00
03FC00
ENDCHAR
STARTCHAR 0116
ENCODING 278
SWIDTH 565 0
DWIDTH 22 0
BBX 17 35 3 0
BITMAP
03C000
03C000
03C000
01C000
000000
000000
000000
000000
FFFF80
FFFF80
FFFF80
E00000
E00000
E00000
E00000
E00000
E00000
E00000
E00000
E00000
FFFE00
FFFE00
E00000
E00000
E00000
E00000
E00000
E00000
E00000
E00000
E00000
E00000
FFFF80
FFFF80
FFFF80
ENDCHAR
STARTCHAR 0117
ENCODING 279
SWIDTH 565 0
DWIDTH 22 0
BBX 19 29 2 0
BITMAP
004000
00E000
01F000
00F000
004000
000000
000000
000000
03F800
0FFE00
1FFF00
3C0780
780380
7001C0
7001C0
F001C0
E001E0
FFFFE0
FFFFE0
FFFFE0
E00000
F00000
700000
7001C0
7803C0
3C0780
1FFF00
0FFE00
03FC00
ENDCHAR
STARTCHAR 0118
ENCODING 280
SWIDTH 565 0
DWIDTH 22 0
BBX 18 33 3 -6
BITMAP
FFFF80
FFFF80
FFFF80
E00000
E00000
E00000
E00000
E00000
E00000
E00000
E00000
E00000
FFFE00
FFFE00
E00000
E00000
E00000
E00000
E00000
E00000
E00000
E00000
E00000
E00000
FFFF80
FFFF80
FFFF80
000700
000E00
000E00
000E00
000FC0
0007C0
ENDCHAR
STARTCHAR 0119
ENCODING 281
SWIDTH 565 0
DWIDTH 22 0
BBX 19 27 2 -6
BITMAP
03F800
0FFE00
1FFF00
3C0780
780380
7001C0
7001C0
F001C0
E001E0
FFFFE0
FFFFE0
FFFFE0
E00000
F00000
700000
7001C0
7803C0
3C0780
1FFF00
0FFE00
03F800
00E000
018000
018000
018000
01F800
00F800
ENDCHAR
STARTCHAR 011A
ENCODING 282
SWIDTH 565 0
DWIDTH 22 0
BBX 17 35 3 0
BITMAP
3C1C00
1E3800
0F7000
07E000
03C000
000000
000000
000000
FFFF80
FFFF80
FFFF80
E00000
E00000
E00000
E00000
E00000
E00000
E00000
E00000
E00000
FFFE00
FFFE00
E00000
E00000
E00000
E00000
E00000
E00000
E00000
E00000
E00000
E00000
FFFF80
FFFF80
FFFF80
ENDCHAR
STARTCHAR 011B
ENCODING 283
SWIDTH 565 0
DWIDTH 22 0
BBX 19 29 2 0
BITMAP
1E0700
0E0E00
071C00
03B800
01F000
00E000
000000
000000
03F800
0FFE00
1FFF00
3C0780
780380
7001C0
7001C0
F001C0
E001E0
FFFFE0
FFFFE0
FFFFE0
E00000
F00000
700000
7001C0
7803C0
3C0780
1FFF00
0FFE00
03FC00
ENDCHAR
STARTCHAR 011E
ENCODING 286
SWIDTH 694 0
DWIDTH 27 0
BBX 23 34 2 0
BITMAP
0381C0
01F780
00FF00
001800
000000
000000
007E00
03FFC0
07FFE0
0FC3F0
1F0078
3C003C
3C001E
78001E
70000E
700000
F00000
F00000
F00000
F00000
E007FE
F007FE
F0000E
F0000E
70000E
70000E
78000E
38001E
3C001E
1E0036
1F00F6
0FFFE6
03FFC6
01FF06
ENDCHAR
STARTCHAR 011F
ENCODING 287
SWIDTH 617 0
DWIDTH 24 0
BBX 19 36 2 -8
BITMAP
1C0700
0E0F00
07FE00
03F800
000000
000000
000000
07F000
0FF8E0
1FFCE0
3E0EE0
7803E0
7801E0
F001E0
F001E0
F000E0
F000E0
F000E0
F000E0
F000E0
F001E0
7001E0
7803E0
7C06E0
3F1EE0
1FFCE0
0FF8E0
01C0E0
0000E0
0001E0
0001E0
0003C0
0007C0
01FF80
01FF00
01FC00
ENDCHAR
STARTCHAR 0120
ENCODING 288
SWIDTH 694 0
DWIDTH 27 0
BBX 23 35 2 0
BITMAP
003C00
003C00
003C00
001800
000000
000000
000000
007E00
03FFC0
07FFE0
0FC3F0
1F0078
3C003C
3C001E
78001E
70000E
700000
F00000
F00000
F00000
F00000
E007FE
F007FE
F0000E
F0000E
70000E
70000E
78000E
38001E
3C001E
1E0036
1F00F6
0FFFE6
03FFC6
01FF06
ENDCHAR
STARTCHAR 0121
ENCODING 289
SWIDTH 617 0
DWIDTH 24 0
BBX 19 37 2 -8
BITMAP
006000
00F000
00F000
00F000
006000
000000
000000
000000
07F000
0FF8E0
1FFCE0
3E0EE0
7803E0
7801E0
F001E0
F001E0
F000E0
F000E0
F000E0
F000E0
F000E0
F001E0
7001E0
7803E0
7C06E0
3F1EE0
1FFCE0
0FF8E0
01C0E0
0000E0
0001E0
0001E0
0003C0
0007C0
01FF80
01FF00
01FC00
ENDCHAR
STARTCHAR 0126
ENCODING 294
SWIDTH 668 0
DWIDTH 26 0
BBX 25 27 1 0
BITMAP
3C001E00
3C001E00
3C001E00
3C001E00
FFFFFF80
FFFFFF80
FFFFFF80
3C001E00
3C001E00
3C001E00
3C001E00
3C001E00
3FFFFE00
3FFFFE00
3FFFFE00
3C001E00
3C001E00
3C001E00
3C001E00
3C001E00
3C001E00
3C001E00
3C001E00
3C001E00
3C001E00
3C001E00
3C001E00
ENDCHAR
STARTCHAR 0127
ENCODING 295
SWIDTH 591 0
DWIDTH 23 0
BBX 21 29 0 0
BITMAP
1E0000
1E0000
1E0000
FFF800
FFF800
1E0000
1E0000
1E0000
1E1FC0
1E7FE0
1EFFF0
1FC0F0
1F8078
1F0078
1E0038
1E0038
1E0038
1E0038
1E0038
1E0038
1E0038
1E0038
1E0038
1E0038
1E0038
1E0038
1E0038
1E0038
1E0038
ENDCHAR
STARTCHAR 0128
ENCODING 296
SWIDTH 231 0
DWIDTH 9 0
BBX 11 35 -1 0
BITMAP
7860
7E60
E7E0
C3C0
0000
0000
0000
0000
0E00
0E00
0E00
0E00
0E00
0E00
0E00
0E00
0E00
0E00
0E00
0E00
0E00
0E00
0E00
0E00
0E00
0E00
0E00
0E00
0E00
0E00
0E00
0E00
0E00
0E00
0E00
ENDCHAR
STARTCHAR 0129
ENCODING 297
SWIDTH 231 0
DWIDTH 9 0
BBX 11 28 -1 0
BITMAP
7C60
7F60
E7E0
C1C0
0000
0000
0000
0F00
0F00
0F00
0F00
0F00
0F00
0F00
0F00
0F00
0F00
0F00
0F00
0F00
0F00
0F00
0F00
0F00
0F00
0F00
0F00
0F00
ENDCHAR
STARTCHAR 012A
ENCODING 298
SWIDTH 231 0
DWIDTH 9 0
BBX 12 33 -1 0
BITMAP
FFF0
FFF0
0000
0000
0000
0000
0E00
0E00
0E00
0E00
0E00
0E00
0E00
0E00
0E00
0E00
0E00
0E00
0E00
0E00
0E00
0E00
0E00
0E00
0E00
0E00
0E00
0E00
0E00
0E00
0E00
0E00
0E00
ENDCHAR
STARTCHAR 012B
ENCODING 299
SWIDTH 231 0
DWIDTH 9 0
BBX 12 26 -1 0
BITMAP
FFF0
FFF0
0000
0000
0000
0F00
0F00
0F00
0F00
0F00
0F00
0F00
0F00
0F00
0F00
0F00
0F00
0F00
0F00
0F00
0F00
0F00
0F00
0F00
0F00
0F00
ENDCHAR
STARTCHAR 012E
ENCODING 302
SWIDTH 231 0
DWIDTH 9 0
BBX 6 33 2 -6
BITMAP
70
70
70
70
70
70
70
70
70
70
70
70
70
70
70
70
70
70
70
70
70
70
70
70
70
70
70
70
E0
C0
E0
FC
7C
ENDCHAR
STARTCHAR 012F
ENCODING 303
SWIDTH 231 0
DWIDTH 9 0
BBX 6 35 2 -6
BITMAP
30
78
78
78
30
00
00
00
78
78
78
78
78
78
78
78
78
78
78
78
78
78
78
78
78
78
78
78
78
70
E0
C0
E0
FC
7C
ENDCHAR
STARTCHAR 0130
ENCODING 304
SWIDTH 231 0
DWIDTH 9 0
BBX 4 35 3 0
BITMAP
E0
F0
F0
E0
00
00
00
00
E0
E0
E0
E0
E0
E0
E0
E0
E0
E0
E0
E0
E0
E0
E0
E0
E0
E0
E0
E0
E0
E0
E0
E0
E0
E0
E0
ENDCHAR
STARTCHAR 0131
ENCODING 305
SWIDTH 231 0
DWIDTH 9 0
BBX 4 21 3 0
BITMAP
F0
F0
F0
F0
F0
F0
F0
F0
F0
F0
F0
F0
F0
F0
F0
F0
F0
F0
F0
F0
F0
ENDCHAR
STARTCHAR 0139
ENCODING 313
SWIDTH 514 0
DWIDTH 20 0
BBX 16 37 3 0
BITMAP
0E00
1E00
1C00
3800
3800
7000
6000
0000
0000
0000
E000
E000
E000
E000
E000
E000
E000
E000
E000
E000
E000
E000
E000
E000
E000
E000
E000
E000
E000
E000
E000
E000
E000
E000
FFFF
FFFF
FFFF
ENDCHAR
STARTCHAR 013A
ENCODING 314
SWIDTH 308 0
DWIDTH 12 0
BBX 8 39 3 0
BITMAP
0F
0E
1C
3C
38
70
70
00
00
00
E0
E0
E0
E0
E0
E0
E0
E0
E0
E0
E0
E0
E0
E0
E0
E0
E0
E0
E0
E0
E0
E0
E0
E0
E0
F0
F8
7F
3F
ENDCHAR
STARTCHAR 013D
ENCODING 317
SWIDTH 514 0
DWIDTH 20 0
BBX 20 35 -1 0
BITMAP
E0F000
71C000
3B8000
1F8000
1F0000
000000
000000
000000
0E0000
0E0000
0E0000
0E0000
0E0000
0E0000
0E0000
0E0000
0E0000
0E0000
0E0000
0E0000
0E0000
0E0000
0E0000
0E0000
0E0000
0E0000
0E0000
0E0000
0E0000
0E0000
0E0000
0E0000
0FFFF0
0FFFF0
0FFFF0
ENDCHAR
STARTCHAR 013E
ENCODING 318
SWIDTH 334 0
DWIDTH 13 0
BBX 10 30 3 0
BITMAP
07C0
E7C0
E7C0
E3C0
E0C0
E0C0
E0C0
E180
E300
E200
E000
E000
E000
E000
E000
E000
E000
E000
E000
E000
E000
E000
E000
E000
E000
E000
F000
F800
7F00
3F00
ENDCHAR
STARTCHAR 0143
ENCODING 323
SWIDTH 694 0
DWIDTH 27 0
BBX 22 37 3 0
BITMAP
000780
000700
000E00
000E00
001C00
003800
003800
000000
000000
000000
F0003C
F8003C
FC003C
FC003C
FE003C
FF003C
EF003C
E7803C
E7C03C
E3C03C
E1E03C
E1F03C
E0F03C
E0783C
E07C3C
E03C3C
E01E3C
E01F3C
E00F3C
E007BC
E003FC
E003FC
E001FC
E000FC
E000FC
E0007C
E0003C
ENDCHAR
STARTCHAR 0144
ENCODING 324
SWIDTH 591 0
DWIDTH 23 0
BBX 18 30 3 0
BITMAP
001E00
001C00
003800
007800
007000
00E000
00E000
000000
000000
E1F800
E3FE00
E7FF00
EE0F80
F80780
F003C0
F003C0
E001C0
E001C0
E001C0
E001C0
E001C0
E001C0
E001C0
E001C0
E001C0
E001C0
E001C0
E001C0
E001C0
E001C0
ENDCHAR
STARTCHAR 0147
ENCODING 327
SWIDTH 694 0
DWIDTH 27 0
BBX 22 35 3 0
BITMAP
078780
038F00
01DE00
00FC00
007800
000000
000000
000000
F0003C
F8003C
FC003C
FC003C
FE003C
FF003C
EF003C
E7803C
E7C03C
E3C03C
E1E03C
E1F03C
E0F03C
E0783C
E07C3C
E03C3C
E01E3C
E01F3C
E00F3C
E007BC
E003FC
E003FC
E001FC
E000FC
E000FC
E0007C
E0003C
ENDCHAR
STARTCHAR 0148
ENCODING 328
SWIDTH 591 0
DWIDTH 23 0
BBX 18 29 3 0
BITMAP
1C0E00
1E1C00
0F3800
07F800
03F000
01E000
000000
000000
E1F800
E3FE00
E7FF00
EE0F80
F80780
F003C0
F003C0
E001C0
E001C0
E001C0
E001C0
E001C0
E001C0
E001C0
E001C0
E001C0
E001C0
E001C0
E001C0
E001C0
E001C0
ENDCHAR
STARTCHAR 014C
ENCODING 332
SWIDTH 720 0
DWIDTH 28 0
BBX 25 33 2 0
BITMAP
03FFC000
03FFC000
00000000
00000000
00000000
003E0000
01FFC000
07FFF000
0FE3F800
1F007C00
3E003C00
3C001E00
78001E00
78000F00
70000F00
F0000700
F0000700
F0000700
F0000700
F0000780
F0000700
F0000700
F0000700
F0000F00
70000F00
78000E00
78001E00
3C003E00
1E007C00
1F80F800
0FFFF000
03FFE000
00FF8000
ENDCHAR
STARTCHAR 014D
ENCODING 333
SWIDTH 591 0
DWIDTH 23 0
BBX 19 26 2 0
BITMAP
0FFE00
0FFE00
000000
000000
000000
03F800
0FFE00
1FFF00
3E0F80
7C03C0
7803C0
7001C0
F001E0
F000E0
E000E0
E000E0
E000E0
E000E0
F001E0
7001E0
7801C0
7803C0
3C0780
1FFF00
0FFE00
03F800
ENDCHAR
STARTCHAR 0152
ENCODING 338
SWIDTH 951 0
DWIDTH 37 0
BBX 33 27 2 0
BITMAP
00FFFFFF80
07FFFFFF80
0FFFFFFF80
1F80F00000
3E00F00000
3C00F00000
7800F00000
7000F00000
F000F00000
F000F00000
E000F00000
E000F00000
E000FFFE00
E000FFFE00
E000F00000
E000F00000
F000F00000
F000F00000
F000F00000
7800F00000
7800F00000
3C00F00000
3E00F00000
1F80F00000
0FFFFFFF80
03FFFFFF80
00FFFFFF80
ENDCHAR
STARTCHAR 0153
ENCODING 339
SWIDTH 977 0
DWIDTH 38 0
BBX 34 21 2 0
BITMAP
03F003F800
0FFC0FFE00
1FFF1FFF00
3E0F1C0780
3807B80380
7803F003C0
7001F001C0
F001F001C0
E001E001C0
E000FFFFC0
E000FFFFC0
E000FFFFC0
E000E00000
F001E00000
7001F00000
7003F001C0
7803B80380
3C07BC0780
1FFF1FFF00
0FFE0FFE00
07F803F800
ENDCHAR
STARTCHAR 0154
ENCODING 340
SWIDTH 591 0
DWIDTH 23 0
BBX 19 37 3 0
BITMAP
003C00
003800
007800
007000
00E000
00E000
01C000
000000
000000
000000
FFFC00
FFFE00
FFFF80
E00F80
E003C0
E001C0
E001C0
E001E0
E001E0
E001C0
E001C0
E003C0
E00780
FFFF80
FFFE00
FFF800
E0F000
E07800
E03800
E03C00
E01E00
E00E00
E00F00
E00780
E00380
E003C0
E001C0
ENDCHAR
STARTCHAR 0155
ENCODING 341
SWIDTH 334 0
DWIDTH 13 0
BBX 10 30 3 0
BITMAP
03C0
0380
0700
0700
0E00
1C00
1C00
0000
0000
E080
E7C0
EFC0
FFC0
F800
F000
F000
E000
E000
E000
E000
E000
E000
E000
E000
E000
E000
E000
E000
E000
E000
ENDCHAR
STARTCHAR 0158
ENCODING 344
SWIDTH 591 0
DWIDTH 23 0
BBX 19 35 3 0
BITMAP
3C3C00
1E7800
0F7000
07E000
03C000
000000
000000
000000
FFFC00
FFFE00
FFFF80
E00F80
E003C0
E001C0
E001C0
E001E0
E001E0
E001C0
E001C0
E003C0
E00780
FFFF80
FFFE00
FFF800
E0F000
E07800
E03800
E03C00
E01E00
E00E00
E00F00
E00780
E00380
E003C0
E001C0
ENDCHAR
STARTCHAR 0159
ENCODING 345
SWIDTH 334 0
DWIDTH 13 0
BBX 12 29 1 0
BITMAP
E070
70E0
79E0
3FC0
1F80
0F00
0000
0000
3820
39F0
3BF0
3FF0
3E00
3C00
3C00
3800
3800
3800
3800
3800
3800
3800
3800
3800
3800
3800
3800
3800
3800
ENDCHAR
STARTCHAR 015A
ENCODING 346
SWIDTH 591 0
DWIDTH 23 0
BBX 19 37 2 0
BITMAP
000700
000E00
000E00
001C00
003800
003800
007000
000000
000000
01F000
0FFE00
1FFF00
3E0F80
7C03C0
7803C0
7001E0
7001E0
7001E0
700000
780000
3C0000
3FC000
1FFC00
07FF00
007FC0
0007C0
0001E0
0001E0
F000E0
F000E0
F000E0
7801E0
7801E0
3E07C0
1FFF80
0FFF00
07FC00
ENDCHAR
STARTCHAR 015B
ENCODING 347
SWIDTH 488 0
DWIDTH 19 0
BBX 16 31 2 0
BITMAP
003C
0038
0078
0070
00E0
00E0
01C0
0000
0000
0000
0FE0
3FF8
7FFC
783E
701E
E00E
E000
7000
7800
3FC0
1FF8
03FC
001E
000E
E00F
E00F
F00E
781E
7FFC
3FFC
0FF0
ENDCHAR
STARTCHAR 015E
ENCODING 350
SWIDTH 591 0
DWIDTH 23 0
BBX 19 38 2 -10
BITMAP
01F000
0FFE00
1FFF00
3E0F80
7C03C0
7803C0
7001E0
7001E0
7001E0
700000
780000
3C0000
3FC000
1FFC00
07FF00
007FC0
0007C0
0001E0
0001E0
F000E0
F000E0
F000E0
7801E0
7801E0
3E07C0
1FFF80
0FFF00
03FC00
006000
00C000
00F800
00FC00
000E00
000600
000600
009C00
00FC00
007000
ENDCHAR
STARTCHAR 015F
ENCODING 351
SWIDTH 488 0
DWIDTH 19 0
BBX 16 31 2 -10
BITMAP
0FE0
3FF8
7FFC
783E
701E
E00E
E000
7000
7800
3FC0
1FF8
03FC
001E
000E
E00F
E00F
F00E
781E
7FFC
3FF8
0FF0
0180
0180
03E0
03F8
0018
0018
0018
0238
03F0
00C0
ENDCHAR
STARTCHAR 0160
ENCODING 352
SWIDTH 591 0
DWIDTH 23 0
BBX 19 35 2 0
BITMAP
0F0700
038E00
03DC00
01F800
00F000
000000
000000
01F000
0FFE00
1FFF00
3E0F80
7C03C0
7803C0
7001E0
7001E0
7001E0
700000
780000
3C0000
3FC000
1FFC00
07FF00
007FC0
0007C0
0001E0
0001E0
F000E0
F000E0
F000E0
7801E0
7801E0
3E07C0
1FFF80
0FFF00
07FC00
ENDCHAR
STARTCHAR 0161
ENCODING 353
SWIDTH 488 0
DWIDTH 19 0
BBX 16 29 2 0
BITMAP
381C
1C38
1E70
0FE0
07C0
0380
0000
0000
0FE0
3FF8
7FFC
783E
701E
E00E
E000
7000
7800
3FC0
1FF8
03FC
001E
000E
E00F
E00F
F00E
781E
7FFC
3FFC
0FF0
ENDCHAR
STARTCHAR 0162
ENCODING 354
SWIDTH 565 0
DWIDTH 22 0
BBX 19 37 2 -10
BITMAP
FFFFE0
FFFFE0
FFFFE0
00E000
00E000
00E000
00E000
00E000
00E000
00E000
00E000
00E000
00E000
00E000
00E000
00E000
00E000
00E000
00E000
00E000
00E000
00E000
00E000
00E000
00E000
00E000
00E000
00C000
00C000
01F000
01F800
000C00
000C00
000C00
011C00
01F800
00E000
ENDCHAR
STARTCHAR 0163
ENCODING 355
SWIDTH 385 0
DWIDTH 15 0
BBX 13 37 1 -10
BITMAP
0E00
0E00
0E00
0E00
0E00
0E00
FFF0
FFF0
FFF0
0E00
0E00
0E00
0E00
0E00
0E00
0E00
0E00
0E00
0E00
0E00
0E00
0E00
0E00
0F00
0F90
07F0
03F0
0180
0180
03E0
03F0
0018
0018
0018
0378
03F0
0080
ENDCHAR
STARTCHAR 0164
ENCODING 356
SWIDTH 565 0
DWIDTH 22 0
BBX 19 35 2 0
BITMAP
1E0F00
071C00
03B800
03F000
01F000
000000
000000
000000
FFFFE0
FFFFE0
FFFFE0
00E000
00E000
00E000
00E000
00E000
00E000
00E000
00E000
00E000
00E000
00E000
00E000
00E000
00E000
00E000
00E000
00E000
00E000
00E000
00E000
00E000
00E000
00E000
00E000
ENDCHAR
STARTCHAR 0165
ENCODING 357
SWIDTH 488 0
DWIDTH 19 0
BBX 18 30 1 0
BITMAP
000780
0007C0
0007C0
0E03C0
0E00C0
0E00C0
0E0080
0E0180
0E0700
FFF400
FFF000
FFF000
0E0000
0E0000
0E0000
0E0000
0E0000
0E0000
0E0000
0E0000
0E0000
0E0000
0E0000
0E0000
0E0000
0E0000
0F0000
0F9000
07F000
03F000
ENDCHAR
STARTCHAR 0166
ENCODING 358
SWIDTH 565 0
DWIDTH 22 0
BBX 19 27 2 0
BITMAP
FFFFE0
FFFFE0
FFFFE0
00E000
00E000
00E000
00E000
00E000
00E000
00E000
00E000
7FFFC0
7FFFC0
00E000
00E000
00E000
00E000
00E000
00E000
00E000
00E000
00E000
00E000
00E000
00E000
00E000
00E000
ENDCHAR
STARTCHAR 0167
ENCODING 359
SWIDTH 385 0
DWIDTH 15 0
BBX 12 27 1 0
BITMAP
0E00
0E00
0E00
0E00
0E00
0E00
FFF0
FFF0
FFF0
0E00
0E00
0E00
0E00
0E00
FFF0
FFF0
0E00
0E00
0E00
0E00
0E00
0E00
0E00
0F00
0F90
07F0
03F0
ENDCHAR
STARTCHAR 0168
ENCODING 360
SWIDTH 668 0
DWIDTH 26 0
BBX 21 35 3 0
BITMAP
03C300
07F700
067E00
061E00
000000
000000
000000
000000
E00038
E00038
E00038
E00038
E00038
E00038
E00038
E00038
E00038
E00038
E00038
E00038
E00038
E00038
E00038
E00038
E00038
E00078
E00078
F00078
F00070
7800F0
7801E0
3E03E0
1FFFC0
0FFF80
03FE00
ENDCHAR
STARTCHAR 0169
ENCODING 361
SWIDTH 591 0
DWIDTH 23 0
BBX 18 28 3 0
BITMAP
0F0C00
1FDC00
19F800
187000
000000
000000
000000
E003C0
E003C0
E003C0
E003C0
E003C0
E003C0
E003C0
E003C0
E003C0
E003C0
E003C0
E003C0
E003C0
E003C0
F003C0
F003C0
7807C0
7C0FC0
3FFBC0
3FF3C0
0FE3C0
ENDCHAR
STARTCHAR 016A
ENCODING 362
SWIDTH 668 0
DWIDTH 26 0
BBX 21 33 3 0
BITMAP
0FFF00
0FFF00
000000
000000
000000
000000
E00038
E00038
E00038
E00038
E00038
E00038
E00038
E00038
E00038
E00038
E00038
E00038
E00038
E00038
E00038
E00038
E00038
E00078
E00078
F00078
F00070
7800F0
7801E0
3E03E0
1FFFC0
0FFF80
03FE00
ENDCHAR
STARTCHAR 016B
ENCODING 363
SWIDTH 591 0
DWIDTH 23 0
BBX 18 26 3 0
BITMAP
3FFC00
3FFC00
000000
000000
000000
E003C0
E003C0
E003C0
E003C0
E003C0
E003C0
E003C0
E003C0
E003C0
E003C0
E003C0
E003C0
E003C0
E003C0
F003C0
F003C0
7807C0
7C0FC0
3FFBC0
3FF3C0
0FE3C0
ENDCHAR
STARTCHAR 016E
ENCODING 366
SWIDTH 668 0
DWIDTH 26 0
BBX 21 37 3 0
BITMAP
00F800
019800
018C00
018C00
019800
00F800
000000
000000
000000
000000
E00038
E00038
E00038
E00038
E00038
E00038
E00038
E00038
E00038
E00038
E00038
E00038
E00038
E00038
E00038
E00038
E00038
E00078
E00078
F00078
F00070
7800F0
7801E0
3E03E0
1FFFC0
0FFF80
03FE00
ENDCHAR
STARTCHAR 016F
ENCODING 367
SWIDTH 591 0
DWIDTH 23 0
BBX 18 31 3 0
BITMAP
008000
03E000
066000
043000
063000
076000
03C000
000000
000000
000000
E003C0
E003C0
E003C0
E003C0
E003C0
E003C0
E003C0
E003C0
E003C0
E003C0
E003C0
E003C0
E003C0
E003C0
F003C0
F003C0
7807C0
7C0FC0
3FFBC0
3FF3C0
0FE3C0
ENDCHAR
STARTCHAR 0172
ENCODING 370
SWIDTH 668 0
DWIDTH 26 0
BBX 21 34 3 -7
BITMAP
E00038
E00038
E00038
E00038
E00038
E00038
E00038
E00038
E00038
E00038
E00038
E00038
E00038
E00038
E00038
E00038
E00038
E00078
E00078
F00078
F00070
7800F0
7801E0
3E03E0
1FFFC0
0FFF80
03FE00
007000
00C000
01C000
01C000
00F000
00F800
001000
ENDCHAR
STARTCHAR 0173
ENCODING 371
SWIDTH 591 0
DWIDTH 23 0
BBX 19 27 3 -6
BITMAP
E003C0
E003C0
E003C0
E003C0
E003C0
E003C0
E003C0
E003C0
E003C0
E003C0
E003C0
E003C0
E003C0
E003C0
F003C0
F003C0
7807C0
7C0FC0
3FFBC0
3FF3C0
0FE3C0
000300
000600
000600
000600
0007E0
0003E0
ENDCHAR
STARTCHAR 0174
ENCODING 372
SWIDTH 977 0
DWIDTH 38 0
BBX 37 35 1 0
BITMAP
0000F80000
0001FC0000
0003DC0000
00078E0000
000F070000
0000000000
0000000000
0000000000
E000700078
E000F00078
F000F80070
7000F80070
7001F800F0
7001FC00F0
7801DC00E0
3803DC00E0
38039E01E0
38038E01C0
3C078E01C0
1C070F01C0
1C070703C0
1E0F070380
0E0E078380
0E0E038380
0E1E038780
0F1C03C700
071C01C700
073C01CF00
073801EE00
07B800EE00
03F800EE00
03F000FE00
03F000FC00
03F0007C00
01E0007C00
ENDCHAR
STARTCHAR 0175
ENCODING 373
SWIDTH 797 0
DWIDTH 31 0
BBX 30 29 1 0
BITMAP
00078000
000F8000
001FC000
001CE000
00387000
00703800
00000000
00000000
E007003C
70078038
70078038
700F8038
780FC070
380FC070
380FC070
381CE0F0
3C1CE0E0
1C1CE0E0
1C38F0E0
1C3871E0
0E3871C0
0E7871C0
0E7039C0
0F703B80
07F03B80
07E01F80
07E01F80
03E01F00
03C01F00
ENDCHAR
STARTCHAR 0176
ENCODING 374
SWIDTH 591 0
DWIDTH 23 0
BBX 20 35 2 0
BITMAP
00F000
01F800
039C00
070E00
0E0F00
000000
000000
000000
E000F0
F000F0
7001E0
7801E0
3803C0
3C03C0
1C0780
1E0780
0E0F00
0F0E00
071E00
079C00
03BC00
03F800
01F800
01F000
00F000
00F000
00F000
00F000
00F000
00F000
00F000
00F000
00F000
00F000
00F000
ENDCHAR
STARTCHAR 0177
ENCODING 375
SWIDTH 514 0
DWIDTH 20 0
BBX 19 37 1 -8
BITMAP
00E000
01F000
03B800
071C00
0F1E00
1E0F00
000000
000000
F000E0
7001E0
7001C0
7803C0
380380
380380
3C0780
1C0700
1E0700
0E0E00
0E0E00
0F1E00
071C00
071C00
03B800
03B800
03F800
01F000
01F000
00E000
01E000
01C000
01C000
03C000
038000
078000
7F0000
7E0000
7C0000
ENDCHAR
STARTCHAR 0178
ENCODING 376
SWIDTH 591 0
DWIDTH 23 0
BBX 20 35 2 0
BITMAP
0F0E00
0F0F00
0F0F00
060E00
000000
000000
000000
000000
E000F0
F000F0
7001E0
7801E0
3803C0
3C03C0
1C0780
1E0780
0E0F00
0F0E00
071E00
079C00
03BC00
03F800
01F800
01F000
00F000
00F000
00F000
00F000
00F000
00F000
00F000
00F000
00F000
00F000
00F000
ENDCHAR
STARTCHAR 0179
ENCODING 377
SWIDTH 591 0
DWIDTH 23 0
BBX 19 37 2 0
BITMAP
000F00
000E00
001C00
001C00
003800
003000
007000
000000
000000
000000
FFFFE0
FFFFE0
FFFFE0
0001E0
0003C0
000780
000780
000F00
001E00
003C00
003C00
007800
00F000
00F000
01E000
03C000
078000
078000
0F0000
1E0000
3E0000
3C0000
780000
F00000
FFFFE0
FFFFE0
FFFFE0
ENDCHAR
STARTCHAR 017A
ENCODING 378
SWIDTH 488 0
DWIDTH 19 0
BBX 16 30 2 0
BITMAP
003C
0038
0070
00F0
00E0
01C0
01C0
0000
0000
7FFF
7FFF
7FFF
000E
001E
003C
0078
0070
00E0
01E0
03C0
0780
0700
0E00
1E00
3C00
7800
7000
FFFF
FFFF
FFFF
ENDCHAR
STARTCHAR 017B
ENCODING 379
SWIDTH 591 0
DWIDTH 23 0
BBX 19 35 2 0
BITMAP
00F000
00F000
00F000
00E000
000000
000000
000000
000000
FFFFE0
FFFFE0
FFFFE0
0001E0
0003C0
000780
000780
000F00
001E00
003C00
003C00
007800
00F000
00F000
01E000
03C000
078000
078000
0F0000
1E0000
3E0000
3C0000
780000
F00000
FFFFE0
FFFFE0
FFFFE0
ENDCHAR
STARTCHAR 017C
ENCODING 380
SWIDTH 488 0
DWIDTH 19 0
BBX 16 29 2 0
BITMAP
0180
03C0
03C0
03C0
0180
0000
0000
0000
7FFF
7FFF
7FFF
000E
001E
003C
0078
0070
00E0
01E0
03C0
0780
0700
0E00
1E00
3C00
7800
7000
FFFF
FFFF
FFFF
ENDCHAR
STARTCHAR 017D
ENCODING 381
SWIDTH 591 0
DWIDTH 23 0
BBX 19 35 2 0
BITMAP
0F0F00
071E00
03BC00
01F800
00F000
000000
000000
000000
FFFFE0
FFFFE0
FFFFE0
0001E0
0003C0
000780
000780
000F00
001E00
003C00
003C00
007800
00F000
00F000
01E000
03C000
078000
078000
0F0000
1E0000
3E0000
3C0000
780000
F00000
FFFFE0
FFFFE0
FFFFE0
ENDCHAR
STARTCHAR 017E
ENCODING 382
SWIDTH 488 0
DWIDTH 19 0
BBX 16 29 2 0
BITMAP
381C
3C38
1E78
0FF0
07E0
03C0
0000
0000
7FFF
7FFF
7FFF
000E
001E
003C
0078
0070
00E0
01E0
03C0
0780
0700
0E00
1E00
3C00
7800
7000
FFFF
FFFF
FFFF
ENDCHAR
STARTCHAR 01A0
ENCODING 416
SWIDTH 720 0
DWIDTH 28 0
BBX 25 31 2 0
BITMAP
00000E00
00000E00
00000E00
003E1C00
01FFFC00
07FFF000
0FE3F800
1F007C00
3E003C00
3C001E00
78001E00
78000F00
70000F00
F0000700
F0000700
F0000700
F0000700
F0000780
F0000700
F0000700
F0000700
F0000F00
70000F00
78000E00
78001E00
3C003E00
1E007C00
1F80F800
0FFFF000
03FFE000
00FF8000
ENDCHAR
STARTCHAR 01A1
ENCODING 417
SWIDTH 591 0
DWIDTH 23 0
BBX 19 24 2 0
BITMAP
000060
000060
0000E0
03FFE0
0FFFC0
1FFF00
3E0F80
7C03C0
7803C0
7001C0
F001E0
F000E0
E000E0
E000E0
E000E0
E000E0
F001E0
7001E0
7801C0
7803C0
3C0780
1FFF00
0FFE00
03F800
ENDCHAR
STARTCHAR 01AF
ENCODING 431
SWIDTH 668 0
DWIDTH 26 0
BBX 25 31 3 0
BITMAP
00000180
00000180
00000380
00000780
E0003F00
E0003800
E0003800
E0003800
E0003800
E0003800
E0003800
E0003800
E0003800
E0003800
E0003800
E0003800
E0003800
E0003800
E0003800
E0003800
E0003800
E0007800
E0007800
F0007800
F0007000
7800F000
7801E000
3E03E000
1FFFC000
0FFF8000
03FE0000
ENDCHAR
STARTCHAR 01B0
ENCODING 432
SWIDTH 591 0
DWIDTH 23 0
BBX 22 24 3 0
BITMAP
00001C
00001C
00001C
E003FC
E003F8
E003C0
E003C0
E003C0
E003C0
E003C0
E003C0
E003C0
E003C0
E003C0
E003C0
E003C0
E003C0
F003C0
F003C0
7807C0
7C0FC0
3FFBC0
3FF3C0
0FE3C0
ENDCHAR
STARTCHAR 02C6
ENCODING 710
SWIDTH 411 0
DWIDTH 16 0
BBX 12 6 2 23
BITMAP
0F00
1F80
1F80
39C0
70E0
E070
ENDCHAR
STARTCHAR 02C7
ENCODING 711
SWIDTH 385 0
DWIDTH 15 0
BBX 13 6 1 23
BITMAP
F038
7870
3CE0
1DC0
0F80
0780
ENDCHAR
STARTCHAR 02D8
ENCODING 728
SWIDTH 385 0
DWIDTH 15 0
BBX 13 4 1 24
BITMAP
E038
7078
3FF0
1FC0
ENDCHAR
STARTCHAR 02D9
ENCODING 729
SWIDTH 154 0
DWIDTH 6 0
BBX 5 5 1 24
BITMAP
20
F0
F8
F0
60
ENDCHAR
STARTCHAR 02DA
ENCODING 730
SWIDTH 231 0
DWIDTH 9 0
BBX 7 7 1 24
BITMAP
10
7C
C6
C6
C6
6E
7C
ENDCHAR
STARTCHAR 02DB
ENCODING 731
SWIDTH 205 0
DWIDTH 8 0
BBX 6 7 1 -7
BITMAP
30
70
E0
E0
E0
7C
7C
ENDCHAR
STARTCHAR 02DC
ENCODING 732
SWIDTH 360 0
DWIDTH 14 0
BBX 11 4 2 24
BITMAP
7C60
FEE0
C7C0
C380
ENDCHAR
STARTCHAR 0300
ENCODING 768
SWIDTH 0 0
DWIDTH 0 0
BBX 7 7 -9 24
BITMAP
F0
78
38
3C
1C
0E
06
ENDCHAR
STARTCHAR 0301
ENCODING 769
SWIDTH 0 0
DWIDTH 0 0
BBX 6 7 -7 24
BITMAP
1C
3C
38
70
70
E0
C0
ENDCHAR
STARTCHAR 0302
ENCODING 770
SWIDTH 0 0
DWIDTH 0 0
BBX 12 6 -13 23
BITMAP
0E00
1F00
3F80
79C0
F0E0
E070
ENDCHAR
STARTCHAR 0303
ENCODING 771
SWIDTH 0 0
DWIDTH 0 0
BBX 11 4 -12 24
BITMAP
7C60
FEE0
C7C0
C380
ENDCHAR
STARTCHAR 0304
ENCODING 772
SWIDTH 0 0
DWIDTH 0 0
BBX 12 2 -14 25
BITMAP
FFF0
FFF0
ENDCHAR
STARTCHAR 0306
ENCODING 774
SWIDTH 0 0
DWIDTH 0 0
BBX 13 4 -14 24
BITMAP
E038
7070
3FE0
1FC0
ENDCHAR
STARTCHAR 0307
ENCODING 775
SWIDTH 0 0
DWIDTH 0 0
BBX 4 5 -7 24
BITMAP
60
F0
F0
F0
60
ENDCHAR
STARTCHAR 0308
ENCODING 776
SWIDTH 0 0
DWIDTH 0 0
BBX 12 5 -15 24
BITMAP
2060
78F0
F8F0
78F0
2060
ENDCHAR
STARTCHAR 0309
ENCODING 777
SWIDTH 0 0
DWIDTH 0 0
BBX 8 7 -9 24
BITMAP
7E
FE
C7
07
06
0C
38
ENDCHAR
STARTCHAR 030A
ENCODING 778
SWIDTH 0 0
DWIDTH 0 0
BBX 7 7 -9 24
BITMAP
18
7C
C6
C6
C6
6E
3C
ENDCHAR
STARTCHAR 030C
ENCODING 780
SWIDTH 0 0
DWIDTH 0 0
BBX 12 6 -14 23
BITMAP
E070
70E0
79E0
3FC0
1F80
0F00
ENDCHAR
STARTCHAR 031B
ENCODING 795
SWIDTH 0 0
DWIDTH 0 0
BBX 7 6 -8 21
BITMAP
0E
0E
0E
1E
FC
F0
ENDCHAR
STARTCHAR 0323
ENCODING 803
SWIDTH 0 0
DWIDTH 0 0
BBX 4 5 -5 -9
BITMAP
60
F0
F0
F0
60
ENDCHAR
STARTCHAR 0327
ENCODING 807
SWIDTH 0 0
DWIDTH 0 0
BBX 7 10 -8 -10
BITMAP
60
C0
F8
FC
0E
06
06
9C
FC
60
ENDCHAR
STARTCHAR 0328
ENCODING 808
SWIDTH 0 0
DWIDTH 0 0
BBX 6 7 -7 -7
BITMAP
30
60
C0
C0
C0
FC
7C
ENDCHAR
STARTCHAR 1E80
ENCODING 7808
SWIDTH 977 0
DWIDTH 38 0
BBX 37 37 1 0
BITMAP
000F000000
0007800000
0003800000
0003C00000
0001C00000
0000E00000
0000E00000
0000000000
0000000000
0000000000
E000700078
E000F00078
F000F80070
7000F80070
7001F800F0
7001FC00F0
7801DC00E0
3803DC00E0
38039E01E0
38038E01C0
3C078E01C0
1C070F01C0
1C070703C0
1E0F070380
0E0E078380
0E0E038380
0E1E038780
0F1C03C700
071C01C700
073C01CF00
073801EE00
07B800EE00
03F800EE00
03F000FE00
03F000FC00
03F0007C00
01E0007C00
ENDCHAR
STARTCHAR 1E81
ENCODING 7809
SWIDTH 797 0
DWIDTH 31 0
BBX 30 30 1 0
BITMAP
00780000
00380000
001C0000
001C0000
000E0000
00070000
00070000
00000000
00000000
E007003C
70078038
70078038
700F8038
780FC070
380FC070
380FC070
381CE0F0
3C1CE0E0
1C1CE0E0
1C38F0E0
1C3871E0
0E3871C0
0E7871C0
0E7039C0
0F703B80
07F03B80
07E01F80
07E01F80
03E01F00
03C01F00
ENDCHAR
STARTCHAR 1E82
ENCODING 7810
SWIDTH 977 0
DWIDTH 38 0
BBX 37 37 1 0
BITMAP
0000070000
00000E0000
00000E0000
00001C0000
0000380000
0000380000
0000700000
0000000000
0000000000
0000000000
E000700078
E000F00078
F000F80070
7000F80070
7001F800F0
7001FC00F0
7801DC00E0
3803DC00E0
38039E01E0
38038E01C0
3C078E01C0
1C070F01C0
1C070703C0
1E0F070380
0E0E078380
0E0E038380
0E1E038780
0F1C03C700
071C01C700
073C01CF00
073801EE00
07B800EE00
03F800EE00
03F000FE00
03F000FC00
03F0007C00
01E0007C00
ENDCHAR
STARTCHAR 1E83
ENCODING 7811
SWIDTH 797 0
DWIDTH 31 0
BBX 30 30 1 0
BITMAP
00007800
00007000
0000E000
0001E000
0001C000
00038000
00038000
00000000
00000000
E007003C
70078038
70078038
700F8038
780FC070
380FC070
380FC070
381CE0F0
3C1CE0E0
1C1CE0E0
1C38F0E0
1C3871E0
0E3871C0
0E7871C0
0E7039C0
0F703B80
07F03B80
07E01F80
07E01F80
03E01F00
03C01F00
ENDCHAR
STARTCHAR 1E84
ENCODING 7812
SWIDTH 977 0
DWIDTH 38 0
BBX 37 35 1 0
BITMAP
00070F0000
000F8F0000
000F8F0000
0007060000
0000000000
0000000000
0000000000
0000000000
E000700078
E000F00078
F000F80070
7000F80070
7001F800F0
7001FC00F0
7801DC00E0
3803DC00E0
38039E01E0
38038E01C0
3C078E01C0
1C070F01C0
1C070703C0
1E0F070380
0E0E078380
0E0E038380
0E1E038780
0F1C03C700
071C01C700
073C01CF00
073801EE00
07B800EE00
03F800EE00
03F000FE00
03F000FC00
03F0007C00
01E0007C00
ENDCHAR
STARTCHAR 1E85
ENCODING 7813
SWIDTH 797 0
DWIDTH 31 0
BBX 30 29 1 0
BITMAP
00303000
00787800
00787800
00787800
00303000
00000000
00000000
00000000
E007003C
70078038
70078038
700F8038
780FC070
380FC070
380FC070
381CE0F0
3C1CE0E0
1C1CE0E0
1C38F0E0
1C3871E0
0E3871C0
0E7871C0
0E7039C0
0F703B80
07F03B80
07E01F80
07E01F80
03E01F00
03C01F00
ENDCHAR
STARTCHAR 1EA0
ENCODING 7840
SWIDTH 668 0
DWIDTH 26 0
BBX 23 36 2 -9
BITMAP
007800
007800
007C00
00FC00
00FE00
01EE00
01CE00
01C700
03C700
038780
038380
070380
0703C0
0F01C0
0E01C0
0E01E0
1FFFE0
1FFFF0
1FFFF0
3C0070
380078
780038
700038
70003C
F0001C
E0001E
E0000E
000000
000000
000000
000000
003000
007800
007800
007800
003000
ENDCHAR
STARTCHAR 1EA1
ENCODING 7841
SWIDTH 617 0
DWIDTH 24 0
BBX 19 30 2 -9
BITMAP
07F0E0
0FF8E0
1FFCE0
3E0EE0
7803E0
7803E0
F001E0
F001E0
E001E0
E000E0
E000E0
E000E0
E001E0
F001E0
F001E0
7003E0
7803E0
3C06E0
3FFCE0
1FF8E0
07F0E0
000000
000000
000000
000000
006000
00F000
00F000
00F000
006000
ENDCHAR
STARTCHAR 1EA2
ENCODING 7842
SWIDTH 668 0
DWIDTH 26 0
BBX 23 37 2 0
BITMAP
007C00
00FE00
01C600
000600
000E00
001C00
003800
000000
000000
000000
007800
007800
007C00
00FC00
00FE00
01EE00
01CE00
01C700
03C700
038780
038380
070380
0703C0
0F01C0
0E01C0
0E01E0
1FFFE0
1FFFF0
1FFFF0
3C0070
380078
780038
700038
70003C
F0001C
E0001E
E0000E
ENDCHAR
STARTCHAR 1EA3
ENCODING 7843
SWIDTH 617 0
DWIDTH 24 0
BBX 19 30 2 0
BITMAP
01F800
03FC00
030C00
000C00
001C00
003800
007000
000000
000000
07F0E0
0FF8E0
1FFCE0
3E0EE0
7803E0
7803E0
F001E0
F001E0
E001E0
E000E0
E000E0
E000E0
E001E0
F001E0
F001E0
7003E0
7803E0
3C06E0
3FFCE0
1FF8E0
07F0E0
ENDCHAR
STARTCHAR 1EA4
ENCODING 7844
SWIDTH 668 0
DWIDTH 26 0
BBX 23 42 2 0
BITMAP
00000E
00001E
00001C
000038
000078
000070
0000E0
007C00
00FC00
01CE00
03C700
078380
000000
000000
000000
007800
007800
007C00
00FC00
00FE00
01EE00
01CE00
01C700
03C700
038780
038380
070380
0703C0
0F01C0
0E01C0
0E01E0
1FFFE0
1FFFF0
1FFFF0
3C0070
380078
780038
700038
70003C
F0001C
E0001E
E0000E
ENDCHAR
STARTCHAR 1EA5
ENCODING 7845
SWIDTH 617 0
DWIDTH 24 0
BBX 22 35 2 0
BITMAP
00003C
000038
000070
000070
0000E0
0001C0
00F1C0
01F000
03F800
039C00
070E00
0E0700
000000
000000
07F0E0
0FF8E0
1FFCE0
3E0EE0
7803E0
7803E0
F001E0
F001E0
E001E0
E000E0
E000E0
E000E0
E001E0
F001E0
F001E0
7003E0
7803E0
3C06E0
3FFCE0
1FF8E0
07F0E0
ENDCHAR
STARTCHAR 1EA6
ENCODING 7846
SWIDTH 668 0
DWIDTH 26 0
BBX 23 42 2 0
BITMAP
001E00
000E00
000700
000780
000380
0001C0
0001C0
007C00
00FC00
01CE00
03C700
078380
000000
000000
000000
007800
007800
007C00
00FC00
00FE00
01EE00
01CE00
01C700
03C700
038780
038380
070380
0703C0
0F01C0
0E01C0
0E01E0
1FFFE0
1FFFF0
1FFFF0
3C0070
380078
780038
700038
70003C
F0001C
E0001E
E0000E
ENDCHAR
STARTCHAR 1EA7
ENCODING 7847
SWIDTH 617 0
DWIDTH 24 0
BBX 19 35 2 0
BITMAP
003C00
001C00
000E00
000E00
000700
000380
00F380
01F000
03F800
039C00
070E00
0E0700
000000
000000
07F0E0
0FF8E0
1FFCE0
3E0EE0
7803E0
7803E0
F001E0
F001E0
E001E0
E000E0
E000E0
E000E0
E001E0
F001E0
F001E0
7003E0
7803E0
3C06E0
3FFCE0
1FF8E0
07F0E0
ENDCHAR
STARTCHAR 1EA8
ENCODING 7848
SWIDTH 668 0
DWIDTH 26 0
BBX 23 42 2 0
BITMAP
0001F0
0003F8
000718
000018
000018
000070
0000E0
007C00
00FC00
01CE00
03C700
078380
000000
000000
000000
007800
007800
007C00
00FC00
00FE00
01EE00
01CE00
01C700
03C700
038780
038380
070380
0703C0
0F01C0
0E01C0
0E01E0
1FFFE0
1FFFF0
1FFFF0
3C0070
380078
780038
700038
70003C
F0001C
E0001E
E0000E
ENDCHAR
STARTCHAR 1EA9
ENCODING 7849
SWIDTH 617 0
DWIDTH 24 0
BBX 20 35 2 0
BITMAP
0007E0
000FF0
000C70
000070
000070
0000E0
00F1C0
01F000
03F800
039C00
070E00
0E0700
000000
000000
07F0E0
0FF8E0
1FFCE0
3E0EE0
7803E0
7803E0
F001E0
F001E0
E001E0
E000E0
E000E0
E000E0
E001E0
F001E0
F001E0
7003E0
7803E0
3C06E0
3FFCE0
1FF8E0
07F0E0
ENDCHAR
STARTCHAR 1EAA
ENCODING 7850
SWIDTH 668 0
DWIDTH 26 0
BBX 23 41 2 0
BITMAP
01E180
03FB80
033F00
030E00
000000
000000
007C00
00FC00
01CE00
03C700
078380
000000
000000
000000
007800
007800
007C00
00FC00
00FE00
01EE00
01CE00
01C700
03C700
038780
038380
070380
0703C0
0F01C0
0E01C0
0E01E0
1FFFE0
1FFFF0
1FFFF0
3C0070
380078
780038
700038
70003C
F0001C
E0001E
E0000E
ENDCHAR
STARTCHAR 1EAB
ENCODING 7851
SWIDTH 617 0
DWIDTH 24 0
BBX 19 34 2 0
BITMAP
07C600
07FE00
0E7E00
0C1C00
000000
00F000
01F000
03F800
039C00
070E00
0E0700
000000
000000
07F0E0
0FF8E0
1FFCE0
3E0EE0
7803E0
7803E0
F001E0
F001E0
E001E0
E000E0
E000E0
E000E0
E001E0
F001E0
F001E0
7003E0
7803E0
3C06E0
3FFCE0
1FF8E0
07F0E0
ENDCHAR
STARTCHAR 1EAC
ENCODING 7852
SWIDTH 668 0
DWIDTH 26 0
BBX 23 44 2 -9
BITMAP
007C00
00FC00
01CE00
03C700
078380
000000
000000
000000
007800
007800
007C00
00FC00
00FE00
01EE00
01CE00
01C700
03C700
038780
038380
070380
0703C0
0F01C0
0E01C0
0E01E0
1FFFE0
1FFFF0
1FFFF0
3C0070
380078
780038
700038
70003C
F0001C
E0001E
E0000E
000000
000000
000000
000000
003000
007800
007800
007800
003000
ENDCHAR
STARTCHAR 1EAD
ENCODING 7853
SWIDTH 617 0
DWIDTH 24 0
BBX 19 38 2 -9
BITMAP
00F000
01F000
03F800
039C00
070E00
0E0700
000000
000000
07F0E0
0FF8E0
1FFCE0
3E0EE0
7803E0
7803E0
F001E0
F001E0
E001E0
E000E0
E000E0
E000E0
E001E0
F001E0
F001E0
7003E0
7803E0
3C06E0
3FFCE0
1FF8E0
07F0E0
000000
000000
000000
000000
006000
00F000
00F000
00F000
006000
ENDCHAR
STARTCHAR 1EAE
ENCODING 7854
SWIDTH 668 0
DWIDTH 26 0
BBX 23 42 2 0
BITMAP
000780
000700
000E00
000E00
001C00
001800
002000
000000
070380
03EF00
01FE00
003000
000000
000000
000000
007800
007800
007C00
00FC00
00FE00
01EE00
01CE00
01C700
03C700
038780
038380
070380
0703C0
0F01C0
0E01C0
0E01E0
1FFFE0
1FFFF0
1FFFF0
3C0070
380078
780038
700038
70003C
F0001C
E0001E
E0000E
ENDCHAR
STARTCHAR 1EAF
ENCODING 7855
SWIDTH 617 0
DWIDTH 24 0
BBX 19 36 2 0
BITMAP
000F00
000E00
001E00
001C00
003800
003800
007000
000000
1C0700
0E0700
07FE00
03F800
000000
000000
000000
07F0E0
0FF8E0
1FFCE0
3E0EE0
7803E0
7803E0
F001E0
F001E0
E001E0
E000E0
E000E0
E000E0
E001E0
F001E0
F001E0
7003E0
7803E0
3C06E0
3FFCE0
1FF8E0
07F0E0
ENDCHAR
STARTCHAR 1EB0
ENCODING 7856
SWIDTH 668 0
DWIDTH 26 0
BBX 23 42 2 0
BITMAP
038000
01C000
01C000
00E000
006000
007000
000000
000000
070380
03EF80
01FE00
003000
000000
000000
000000
007800
007800
007C00
00FC00
00FE00
01EE00
01CE00
01C700
03C700
038780
038380
070380
0703C0
0F01C0
0E01C0
0E01E0
1FFFE0
1FFFF0
1FFFF0
3C0070
380078
780038
700038
70003C
F0001C
E0001E
E0000E
ENDCHAR
STARTCHAR 1EB1
ENCODING 7857
SWIDTH 617 0
DWIDTH 24 0
BBX 19 36 2 0
BITMAP
0F0000
070000
078000
038000
01C000
01C000
00E000
000000
0E0300
0E0700
07FE00
03FC00
000000
000000
000000
07F0E0
0FF8E0
1FFCE0
3E0EE0
7803E0
7803E0
F001E0
F001E0
E001E0
E000E0
E000E0
E000E0
E001E0
F001E0
F001E0
7003E0
7803E0
3C06E0
3FFCE0
1FF8E0
07F0E0
ENDCHAR
STARTCHAR 1EB2
ENCODING 7858
SWIDTH 668 0
DWIDTH 26 0
BBX 23 43 2 0
BITMAP
003800
00FE00
01EE00
01C600
000600
000E00
001C00
002000
000000
070380
03EF00
01FE00
003000
000000
000000
000000
007800
007800
007C00
00FC00
00FE00
01EE00
01CE00
01C700
03C700
038780
038380
070380
0703C0
0F01C0
0E01C0
0E01E0
1FFFE0
1FFFF0
1FFFF0
3C0070
380078
780038
700038
70003C
F0001C
E0001E
E0000E
ENDCHAR
STARTCHAR 1EB3
ENCODING 7859
SWIDTH 617 0
DWIDTH 24 0
BBX 19 36 2 0
BITMAP
00F000
03F800
039C00
000C00
001C00
003800
007000
000000
1C0700
0E0700
07FE00
03F800
000000
000000
000000
07F0E0
0FF8E0
1FFCE0
3E0EE0
7803E0
7803E0
F001E0
F001E0
E001E0
E000E0
E000E0
E000E0
E001E0
F001E0
F001E0
7003E0
7803E0
3C06E0
3FFCE0
1FF8E0
07F0E0
ENDCHAR
STARTCHAR 1EB4
ENCODING 7860
SWIDTH 668 0
DWIDTH 26 0
BBX 23 41 2 0
BITMAP
00C180
03F180
03FF00
031F00
030400
000000
000000
070380
03EF00
01FE00
007000
000000
000000
000000
007800
007800
007C00
00FC00
00FE00
01EE00
01CE00
01C700
03C700
038780
038380
070380
0703C0
0F01C0
0E01C0
0E01E0
1FFFE0
1FFFF0
1FFFF0
3C0070
380078
780038
700038
70003C
F0001C
E0001E
E0000E
ENDCHAR
STARTCHAR 1EB5
ENCODING 7861
SWIDTH 617 0
DWIDTH 24 0
BBX 19 34 2 0
BITMAP
038600
07E600
06FE00
0C3C00
000000
000000
1C0700
0E0700
07FE00
03F800
000000
000000
000000
07F0E0
0FF8E0
1FFCE0
3E0EE0
7803E0
7803E0
F001E0
F001E0
E001E0
E000E0
E000E0
E000E0
E001E0
F001E0
F001E0
7003E0
7803E0
3C06E0
3FFCE0
1FF8E0
07F0E0
ENDCHAR
STARTCHAR 1EB6
ENCODING 7862
SWIDTH 668 0
DWIDTH 26 0
BBX 23 43 2 -9
BITMAP
070380
03EF00
01FE00
003000
000000
000000
000000
007800
007800
007C00
00FC00
00FE00
01EE00
01CE00
01C700
03C700
038780
038380
070380
0703C0
0F01C0
0E01C0
0E01E0
1FFFE0
1FFFF0
1FFFF0
3C0070
380078
780038
700038
70003C
F0001C
E0001E
E0000E
000000
000000
000000
000000
003000
007800
007800
007800
003000
ENDCHAR
STARTCHAR 1EB7
ENCODING 7863
SWIDTH 617 0
DWIDTH 24 0
BBX 19 37 2 -9
BITMAP
1C0700
0E0700
07FE00
03F800
000000
000000
000000
07F0E0
0FF8E0
1FFCE0
3E0EE0
7803E0
7803E0
F001E0
F001E0
E001E0
E000E0
E000E0
E000E0
E001E0
F001E0
F001E0
7003E0
7803E0
3C06E0
3FFCE0
1FF8E0
07F0E0
000000
000000
000000
000000
006000
00F000
00F000
00F000
006000
ENDCHAR
STARTCHAR 1EB8
ENCODING 7864
SWIDTH 565 0
DWIDTH 22 0
BBX 17 36 3 -9
BITMAP
FFFF80
FFFF80
FFFF80
E00000
E00000
E00000
E00000
E00000
E00000
E00000
E00000
E00000
FFFE00
FFFE00
E00000
E00000
E00000
E00000
E00000
E00000
E00000
E00000
E00000
E00000
FFFF80
FFFF80
FFFF80
000000
000000
000000
000000
018000
03C000
03E000
03C000
018000
ENDCHAR
STARTCHAR 1EB9
ENCODING 7865
SWIDTH 565 0
DWIDTH 22 0
BBX 19 30 2 -9
BITMAP
03F800
0FFE00
1FFF00
3C0780
780380
7001C0
7001C0
F001C0
E001E0
FFFFE0
FFFFE0
FFFFE0
E00000
F00000
700000
7001C0
7803C0
3C0780
1FFF00
0FFE00
03FC00
000000
000000
000000
000000
006000
00F000
01F000
00F000
006000
ENDCHAR
STARTCHAR 1EBA
ENCODING 7866
SWIDTH 565 0
DWIDTH 22 0
BBX 17 37 3 0
BITMAP
03E000
07F000
0E3000
003000
003000
00E000
01C000
000000
000000
000000
FFFF80
FFFF80
FFFF80
E00000
E00000
E00000
E00000
E00000
E00000
E00000
E00000
E00000
FFFE00
FFFE00
E00000
E00000
E00000
E00000
E00000
E00000
E00000
E00000
E00000
E00000
FFFF80
FFFF80
FFFF80
ENDCHAR
STARTCHAR 1EBB
ENCODING 7867
SWIDTH 565 0
DWIDTH 22 0
BBX 19 30 2 0
BITMAP
01F800
03F800
071C00
001C00
001800
007000
00E000
000000
000000
03F800
0FFE00
1FFF00
3C0780
780380
7001C0
7001C0
F001C0
E001E0
FFFFE0
FFFFE0
FFFFE0
E00000
F00000
700000
7001C0
7803C0
3C0780
1FFF00
0FFE00
03FC00
ENDCHAR
STARTCHAR 1EBC
ENCODING 7868
SWIDTH 565 0
DWIDTH 22 0
BBX 17 35 3 0
BITMAP
0F0C00
1FDC00
19F800
187800
000000
000000
000000
000000
FFFF80
FFFF80
FFFF80
E00000
E00000
E00000
E00000
E00000
E00000
E00000
E00000
E00000
FFFE00
FFFE00
E00000
E00000
E00000
E00000
E00000
E00000
E00000
E00000
E00000
E00000
FFFF80
FFFF80
FFFF80
ENDCHAR
STARTCHAR 1EBD
ENCODING 7869
SWIDTH 565 0
DWIDTH 22 0
BBX 19 28 2 0
BITMAP
07C600
0FEE00
0C7C00
0C3800
000000
000000
000000
03F800
0FFE00
1FFF00
3C0780
780380
7001C0
7001C0
F001C0
E001E0
FFFFE0
FFFFE0
FFFFE0
E00000
F00000
700000
7001C0
7803C0
3C0780
1FFF00
0FFE00
03FC00
ENDCHAR
STARTCHAR 1EBE
ENCODING 7870
SWIDTH 565 0
DWIDTH 22 0
BBX 20 42 3 0
BITMAP
000070
0000F0
0000E0
0001C0
0001C0
000380
000700
03E000
07F000
0E7000
1E3800
3C1C00
000000
000000
000000
FFFF80
FFFF80
FFFF80
E00000
E00000
E00000
E00000
E00000
E00000
E00000
E00000
E00000
FFFE00
FFFE00
E00000
E00000
E00000
E00000
E00000
E00000
E00000
E00000
E00000
E00000
FFFF80
FFFF80
FFFF80
ENDCHAR
STARTCHAR 1EBF
ENCODING 7871
SWIDTH 565 0
DWIDTH 22 0
BBX 21 35 2 0
BITMAP
000038
000078
000070
0000E0
0000E0
0001C0
00E180
01F000
03B800
079C00
0F0E00
1E0F00
000000
000000
03F800
0FFE00
1FFF00
3C0780
780380
7001C0
7001C0
F001C0
E001E0
FFFFE0
FFFFE0
FFFFE0
E00000
F00000
700000
7001C0
7803C0
3C0780
1FFF00
0FFE00
03FC00
ENDCHAR
STARTCHAR 1EC0
ENCODING 7872
SWIDTH 565 0
DWIDTH 22 0
BBX 17 42 3 0
BITMAP
00F000
007800
003800
003C00
001C00
000E00
000E00
03E000
07E000
0E7000
1E3800
3C1C00
000000
000000
000000
FFFF80
FFFF80
FFFF80
E00000
E00000
E00000
E00000
E00000
E00000
E00000
E00000
E00000
FFFE00
FFFE00
E00000
E00000
E00000
E00000
E00000
E00000
E00000
E00000
E00000
E00000
FFFF80
FFFF80
FFFF80
ENDCHAR
STARTCHAR 1EC1
ENCODING 7873
SWIDTH 565 0
DWIDTH 22 0
BBX 19 35 2 0
BITMAP
003800
001C00
001E00
000E00
000700
000700
00E380
01F000
03B800
079C00
0F0E00
1E0F00
000000
000000
03F800
0FFE00
1FFF00
3C0780
780380
7001C0
7001C0
F001C0
E001E0
FFFFE0
FFFFE0
FFFFE0
E00000
F00000
700000
7001C0
7803C0
3C0780
1FFF00
0FFE00
03FC00
ENDCHAR
STARTCHAR 1EC2
ENCODING 7874
SWIDTH 565 0
DWIDTH 22 0
BBX 18 42 3 0
BITMAP
000F80
001FC0
0038C0
0000C0
0000C0
000180
000700
03E000
07F000
0E7000
1E3800
3C1C00
000000
000000
000000
FFFF80
FFFF80
FFFF80
E00000
E00000
E00000
E00000
E00000
E00000
E00000
E00000
E00000
FFFE00
FFFE00
E00000
E00000
E00000
E00000
E00000
E00000
E00000
E00000
E00000
E00000
FFFF80
FFFF80
FFFF80
ENDCHAR
STARTCHAR 1EC3
ENCODING 7875
SWIDTH 565 0
DWIDTH 22 0
BBX 20 35 2 0
BITMAP
0007C0
000FE0
001C70
000070
000060
0000C0
00E380
01F000
03B800
079C00
0F0E00
1E0F00
000000
000000
03F800
0FFE00
1FFF00
3C0780
780380
7001C0
7001C0
F001C0
E001E0
FFFFE0
FFFFE0
FFFFE0
E00000
F00000
700000
7001C0
7803C0
3C0780
1FFF00
0FFE00
03FC00
ENDCHAR
STARTCHAR 1EC4
ENCODING 7876
SWIDTH 565 0
DWIDTH 22 0
BBX 17 41 3 0
BITMAP
0F0C00
1FDC00
19F800
187800
000000
000000
03E000
07F000
0F7000
1E3800
3C1C00
000000
000000
000000
FFFF80
FFFF80
FFFF80
E00000
E00000
E00000
E00000
E00000
E00000
E00000
E00000
E00000
FFFE00
FFFE00
E00000
E00000
E00000
E00000
E00000
E00000
E00000
E00000
E00000
E00000
FFFF80
FFFF80
FFFF80
ENDCHAR
STARTCHAR 1EC5
ENCODING 7877
SWIDTH 565 0
DWIDTH 22 0
BBX 19 34 2 0
BITMAP
07C600
0FFE00
0C7E00
0C1800
000000
00E000
01F000
03B800
079C00
0F0E00
1E0F00
000000
000000
03F800
0FFE00
1FFF00
3C0780
780380
7001C0
7001C0
F001C0
E001E0
FFFFE0
FFFFE0
FFFFE0
E00000
F00000
700000
7001C0
7803C0
3C0780
1FFF00
0FFE00
03FC00
ENDCHAR
STARTCHAR 1EC6
ENCODING 7878
SWIDTH 565 0
DWIDTH 22 0
BBX 17 44 3 -9
BITMAP
03E000
07F000
0E7000
1E3800
3C1C00
000000
000000
000000
FFFF80
FFFF80
FFFF80
E00000
E00000
E00000
E00000
E00000
E00000
E00000
E00000
E00000
FFFE00
FFFE00
E00000
E00000
E00000
E00000
E00000
E00000
E00000
E00000
E00000
E00000
FFFF80
FFFF80
FFFF80
000000
000000
000000
000000
018000
03C000
03E000
03C000
018000
ENDCHAR
STARTCHAR 1EC7
ENCODING 7879
SWIDTH 565 0
DWIDTH 22 0
BBX 19 38 2 -9
BITMAP
00E000
01F000
03B800
079C00
0F0E00
1E0F00
000000
000000
03F800
0FFE00
1FFF00
3C0780
780380
7001C0
7001C0
F001C0
E001E0
FFFFE0
FFFFE0
FFFFE0
E00000
F00000
700000
7001C0
7803C0
3C0780
1FFF00
0FFE00
03FC00
000000
000000
000000
000000
006000
00F000
01F000
00F000
006000
ENDCHAR
STARTCHAR 1EC8
ENCODING 7880
SWIDTH 231 0
DWIDTH 9 0
BBX 8 37 1 0
BITMAP
7C
FE
C7
07
07
0E
1C
00
00
00
38
38
38
38
38
38
38
38
38
38
38
38
38
38
38
38
38
38
38
38
38
38
38
38
38
38
38
ENDCHAR
STARTCHAR 1EC9
ENCODING 7881
SWIDTH 231 0
DWIDTH 9 0
BBX 8 30 1 0
BITMAP
7E
FF
C7
03
07
0E
18
00
00
3C
3C
3C
3C
3C
3C
3C
3C
3C
3C
3C
3C
3C
3C
3C
3C
3C
3C
3C
3C
3C
ENDCHAR
STARTCHAR 1ECA
ENCODING 7882
SWIDTH 231 0
DWIDTH 9 0
BBX 4 36 3 -9
BITMAP
E0
E0
E0
E0
E0
E0
E0
E0
E0
E0
E0
E0
E0
E0
E0
E0
E0
E0
E0
E0
E0
E0
E0
E0
E0
E0
E0
00
00
00
00
60
F0
F0
F0
60
ENDCHAR
STARTCHAR 1ECB
ENCODING 7883
SWIDTH 231 0
DWIDTH 9 0
BBX 4 38 3 -9
BITMAP
60
F0
F0
F0
60
00
00
00
F0
F0
F0
F0
F0
F0
F0
F0
F0
F0
F0
F0
F0
F0
F0
F0
F0
F0
F0
F0
F0
00
00
00
00
60
F0
F0
F0
60
ENDCHAR
STARTCHAR 1ECC
ENCODING 7884
SWIDTH 720 0
DWIDTH 28 0
BBX 25 37 2 -9
BITMAP
003E0000
01FFC000
07FFF000
0FE3F800
1F007C00
3E003C00
3C001E00
78001E00
78000F00
70000F00
F0000700
F0000700
F0000700
F0000700
F0000780
F0000700
F0000700
F0000700
F0000F00
70000F00
78000E00
78001E00
3C003E00
1E007C00
1F80F800
0FFFF000
03FFE000
00FF8000
00000000
00000000
00000000
00000000
00180000
003C0000
003E0000
003C0000
00180000
ENDCHAR
STARTCHAR 1ECD
ENCODING 7885
SWIDTH 591 0
DWIDTH 23 0
BBX 19 30 2 -9
BITMAP
03F800
0FFE00
1FFF00
3E0F80
7C03C0
7803C0
7001C0
F001E0
F000E0
E000E0
E000E0
E000E0
E000E0
F001E0
7001E0
7801C0
7803C0
3C0780
1FFF00
0FFE00
03F800
000000
000000
000000
000000
006000
00F000
01F000
00F000
006000
ENDCHAR
STARTCHAR 1ECE
ENCODING 7886
SWIDTH 720 0
DWIDTH 28 0
BBX 25 37 2 0
BITMAP
003E0000
007F0000
00E30000
00030000
00030000
000E0000
001C0000
00000000
00000000
003E0000
01FFC000
07FFF000
0FE3F800
1F007C00
3E003C00
3C001E00
78001E00
78000F00
70000F00
F0000700
F0000700
F0000700
F0000700
F0000780
F0000700
F0000700
F0000700
F0000F00
70000F00
78000E00
78001E00
3C003E00
1E007C00
1F80F800
0FFFF000
03FFE000
00FF8000
ENDCHAR
STARTCHAR 1ECF
ENCODING 7887
SWIDTH 591 0
DWIDTH 23 0
BBX 19 30 2 0
BITMAP
01F800
03F800
071C00
001C00
001800
007000
00E000
000000
000000
03F800
0FFE00
1FFF00
3E0F80
7C03C0
7803C0
7001C0
F001E0
F000E0
E000E0
E000E0
E000E0
E000E0
F001E0
7001E0
7801C0
7803C0
3C0780
1FFF00
0FFE00
03F800
ENDCHAR
STARTCHAR 1ED0
ENCODING 7888
SWIDTH 720 0
DWIDTH 28 0
BBX 25 42 2 0
BITMAP
00000700
00000F00
00000E00
00001C00
00001C00
00003800
00007000
003E0000
007F0000
00F70000
01E38000
03C1C000
00000000
00000000
003E0000
01FFC000
07FFF000
0FE3F800
1F007C00
3E003C00
3C001E00
78001E00
78000F00
70000F00
F0000700
F0000700
F0000700
F0000700
F0000780
F0000700
F0000700
F0000700
F0000F00
70000F00
78000E00
78001E00
3C003E00
1E007C00
1F80F800
0FFFF000
03FFE000
00FF8000
ENDCHAR
STARTCHAR 1ED1
ENCODING 7889
SWIDTH 591 0
DWIDTH 23 0
BBX 21 35 2 0
BITMAP
000038
000078
000070
0000E0
0000E0
0001C0
00E180
01F000
03B800
079C00
0F0E00
1E0F00
000000
000000
03F800
0FFE00
1FFF00
3E0F80
7C03C0
7803C0
7001C0
F001E0
F000E0
E000E0
E000E0
E000E0
E000E0
F001E0
7001E0
7801C0
7803C0
3C0780
1FFF00
0FFE00
03F800
ENDCHAR
STARTCHAR 1ED2
ENCODING 7890
SWIDTH 720 0
DWIDTH 28 0
BBX 25 42 2 0
BITMAP
000F0000
00078000
00038000
0003C000
0001C000
0000E000
0000E000
003E0000
007F0000
00E70000
01E38000
03C1C000
00000000
00000000
003E0000
01FFC000
07FFF000
0FE3F800
1F007C00
3E003C00
3C001E00
78001E00
78000F00
70000F00
F0000700
F0000700
F0000700
F0000700
F0000780
F0000700
F0000700
F0000700
F0000F00
70000F00
78000E00
78001E00
3C003E00
1E007C00
1F80F800
0FFFF000
03FFE000
00FF8000
ENDCHAR
STARTCHAR 1ED3
ENCODING 7891
SWIDTH 591 0
DWIDTH 23 0
BBX 19 35 2 0
BITMAP
003800
001C00
001E00
000E00
000700
000700
00E380
01F000
03B800
079C00
0F1E00
1E0F00
000000
000000
03F800
0FFE00
1FFF00
3E0F80
7C03C0
7803C0
7001C0
F001E0
F000E0
E000E0
E000E0
E000E0
E000E0
F001E0
7001E0
7801C0
7803C0
3C0780
1FFF00
0FFE00
03F800
ENDCHAR
STARTCHAR 1ED4
ENCODING 7892
SWIDTH 720 0
DWIDTH 28 0
BBX 25 42 2 0
BITMAP
0000F800
0001FC00
00038C00
00000C00
00000C00
00001800
00007000
003E0000
007F0000
00F70000
01E38000
03C1C000
00000000
00000000
003E0000
01FFC000
07FFF000
0FE3F800
1F007C00
3E003C00
3C001E00
78001E00
78000F00
70000F00
F0000700
F0000700
F0000700
F0000700
F0000780
F0000700
F0000700
F0000700
F0000F00
70000F00
78000E00
78001E00
3C003E00
1E007C00
1F80F800
0FFFF000
03FFE000
00FF8000
ENDCHAR
STARTCHAR 1ED5
ENCODING 7893
SWIDTH 591 0
DWIDTH 23 0
BBX 20 35 2 0
BITMAP
0007C0
000FE0
001C70
000070
000060
0000C0
00E380
01F000
03B800
079C00
0F0E00
1E0F00
000000
000000
03F800
0FFE00
1FFF00
3E0F80
7C03C0
7803C0
7001C0
F001E0
F000E0
E000E0
E000E0
E000E0
E000E0
F001E0
7001E0
7801C0
7803C0
3C0780
1FFF00
0FFE00
03F800
ENDCHAR
STARTCHAR 1ED6
ENCODING 7894
SWIDTH 720 0
DWIDTH 28 0
BBX 25 41 2 0
BITMAP
00F0C000
01FDC000
019F8000
01878000
00000000
00000000
003E0000
007F0000
00F70000
01E38000
03C1C000
00000000
00000000
003E0000
01FFC000
07FFF000
0FE3F800
1F007C00
3E003C00
3C001E00
78001E00
78000F00
70000F00
F0000700
F0000700
F0000700
F0000700
F0000780
F0000700
F0000700
F0000700
F0000F00
70000F00
78000E00
78001E00
3C003E00
1E007C00
1F80F800
0FFFF000
03FFE000
00FF8000
ENDCHAR
STARTCHAR 1ED7
ENCODING 7895
SWIDTH 591 0
DWIDTH 23 0
BBX 19 34 2 0
BITMAP
07C600
0FFE00
0C7E00
0C1800
000000
00E000
01F000
03B800
079C00
0F0E00
1E0F00
000000
000000
03F800
0FFE00
1FFF00
3E0F80
7C03C0
7803C0
7001C0
F001E0
F000E0
E000E0
E000E0
E000E0
E000E0
F001E0
7001E0
7801C0
7803C0
3C0780
1FFF00
0FFE00
03F800
ENDCHAR
STARTCHAR 1ED8
ENCODING 7896
SWIDTH 720 0
DWIDTH 28 0
BBX 25 44 2 -9
BITMAP
003E0000
007F0000
00F70000
01E38000
03C1C000
00000000
00000000
003E0000
01FFC000
07FFF000
0FE3F800
1F007C00
3E003C00
3C001E00
78001E00
78000F00
70000F00
F0000700
F0000700
F0000700
F0000700
F0000780
F0000700
F0000700
F0000700
F0000F00
70000F00
78000E00
78001E00
3C003E00
1E007C00
1F80F800
0FFFF000
03FFE000
00FF8000
00000000
00000000
00000000
00000000
00180000
003C0000
003E0000
003C0000
00180000
ENDCHAR
STARTCHAR 1ED9
ENCODING 7897
SWIDTH 591 0
DWIDTH 23 0
BBX 19 38 2 -9
BITMAP
00E000
01F000
03B800
079C00
0F0E00
1E0F00
000000
000000
03F800
0FFE00
1FFF00
3E0F80
7C03C0
7803C0
7001C0
F001E0
F000E0
E000E0
E000E0
E000E0
E000E0
F001E0
7001E0
7801C0
7803C0
3C0780
1FFF00
0FFE00
03F800
000000
000000
000000
000000
006000
00F000
01F000
00F000
006000
ENDCHAR
STARTCHAR 1EDA
ENCODING 7898
SWIDTH 720 0
DWIDTH 28 0
BBX 25 37 2 0
BITMAP
0001C000
00038000
00038000
00070000
000E0000
000E0000
001C0E00
00000E00
00000E00
003E1C00
01FFFC00
07FFF000
0FE3F800
1F007C00
3E003C00
3C001E00
78001E00
78000F00
70000F00
F0000700
F0000700
F0000700
F0000700
F0000780
F0000700
F0000700
F0000700
F0000F00
70000F00
78000E00
78001E00
3C003E00
1E007C00
1F80F800
0FFFF000
03FFE000
00FF8000
ENDCHAR
STARTCHAR 1EDB
ENCODING 7899
SWIDTH 591 0
DWIDTH 23 0
BBX 19 30 2 0
BITMAP
000E00
001E00
001C00
003800
003800
007000
00E060
000060
0000E0
03FFE0
0FFFC0
1FFF00
3E0F80
7C03C0
7803C0
7001C0
F001E0
F000E0
E000E0
E000E0
E000E0
E000E0
F001E0
7001E0
7801C0
7803C0
3C0780
1FFF00
0FFE00
03F800
ENDCHAR
STARTCHAR 1EDC
ENCODING 7900
SWIDTH 720 0
DWIDTH 28 0
BBX 25 37 2 0
BITMAP
03C00000
01E00000
00E00000
00F00000
00700000
00380000
00380E00
00000E00
00000E00
003E1C00
01FFFC00
07FFF000
0FE3F800
1F007C00
3E003C00
3C001E00
78001E00
78000F00
70000F00
F0000700
F0000700
F0000700
F0000700
F0000780
F0000700
F0000700
F0000700
F0000F00
70000F00
78000E00
78001E00
3C003E00
1E007C00
1F80F800
0FFFF000
03FFE000
00FF8000
ENDCHAR
STARTCHAR 1EDD
ENCODING 7901
SWIDTH 591 0
DWIDTH 23 0
BBX 19 30 2 0
BITMAP
0E0000
070000
070000
038000
01C000
01C000
00E060
000060
0000E0
03FFE0
0FFFC0
1FFF00
3E0F80
7C03C0
7803C0
7001C0
F001E0
F000E0
E000E0
E000E0
E000E0
E000E0
F001E0
7001E0
7801C0
7803C0
3C0780
1FFF00
0FFE00
03F800
ENDCHAR
STARTCHAR 1EDE
ENCODING 7902
SWIDTH 720 0
DWIDTH 28 0
BBX 25 37 2 0
BITMAP
003E0000
007F0000
00E30000
00030000
00030000
000E0000
001C0E00
00000E00
00000E00
003E1C00
01FFFC00
07FFF000
0FE3F800
1F007C00
3E003C00
3C001E00
78001E00
78000F00
70000F00
F0000700
F0000700
F0000700
F0000700
F0000780
F0000700
F0000700
F0000700
F0000F00
70000F00
78000E00
78001E00
3C003E00
1E007C00
1F80F800
0FFFF000
03FFE000
00FF8000
ENDCHAR
STARTCHAR 1EDF
ENCODING 7903
SWIDTH 591 0
DWIDTH 23 0
BBX 19 30 2 0
BITMAP
01F800
03F800
071C00
001C00
001800
007000
00E060
000060
0000E0
03FFE0
0FFFC0
1FFF00
3E0F80
7C03C0
7803C0
7001C0
F001E0
F000E0
E000E0
E000E0
E000E0
E000E0
F001E0
7001E0
7801C0
7803C0
3C0780
1FFF00
0FFE00
03F800
ENDCHAR
STARTCHAR 1EE0
ENCODING 7904
SWIDTH 720 0
DWIDTH 28 0
BBX 25 35 2 0
BITMAP
00F0C000
01FDC000
019F8000
01878000
00000E00
00000E00
00000E00
003E1C00
01FFFC00
07FFF000
0FE3F800
1F007C00
3E003C00
3C001E00
78001E00
78000F00
70000F00
F0000700
F0000700
F0000700
F0000700
F0000780
F0000700
F0000700
F0000700
F0000F00
70000F00
78000E00
78001E00
3C003E00
1E007C00
1F80F800
0FFFF000
03FFE000
00FF8000
ENDCHAR
STARTCHAR 1EE1
ENCODING 7905
SWIDTH 591 0
DWIDTH 23 0
BBX 19 28 2 0
BITMAP
07C600
0FEE00
0C7C00
0C3800
000060
000060
0000E0
03FFE0
0FFFC0
1FFF00
3E0F80
7C03C0
7803C0
7001C0
F001E0
F000E0
E000E0
E000E0
E000E0
E000E0
F001E0
7001E0
7801C0
7803C0
3C0780
1FFF00
0FFE00
03F800
ENDCHAR
STARTCHAR 1EE2
ENCODING 7906
SWIDTH 720 0
DWIDTH 28 0
BBX 25 40 2 -9
BITMAP
00000E00
00000E00
00000E00
003E1C00
01FFFC00
07FFF000
0FE3F800
1F007C00
3E003C00
3C001E00
78001E00
78000F00
70000F00
F0000700
F0000700
F0000700
F0000700
F0000780
F0000700
F0000700
F0000700
F0000F00
70000F00
78000E00
78001E00
3C003E00
1E007C00
1F80F800
0FFFF000
03FFE000
00FF8000
00000000
00000000
00000000
00000000
00180000
003C0000
003E0000
003C0000
00180000
ENDCHAR
STARTCHAR 1EE3
ENCODING 7907
SWIDTH 591 0
DWIDTH 23 0
BBX 19 33 2 -9
BITMAP
000060
000060
0000E0
03FFE0
0FFFC0
1FFF00
3E0F80
7C03C0
7803C0
7001C0
F001E0
F000E0
E000E0
E000E0
E000E0
E000E0
F001E0
7001E0
7801C0
7803C0
3C0780
1FFF00
0FFE00
03F800
000000
000000
000000
000000
006000
00F000
01F000
00F000
006000
ENDCHAR
STARTCHAR 1EE4
ENCODING 7908
SWIDTH 668 0
DWIDTH 26 0
BBX 21 36 3 -9
BITMAP
E00038
E00038
E00038
E00038
E00038
E00038
E00038
E00038
E00038
E00038
E00038
E00038
E00038
E00038
E00038
E00038
E00038
E00078
E00078
F00078
F00070
7800F0
7801E0
3E03E0
1FFFC0
0FFF80
03FE00
000000
000000
000000
000000
006000
00F000
00F800
00F000
006000
ENDCHAR
STARTCHAR 1EE5
ENCODING 7909
SWIDTH 591 0
DWIDTH 23 0
BBX 18 30 3 -9
BITMAP
E003C0
E003C0
E003C0
E003C0
E003C0
E003C0
E003C0
E003C0
E003C0
E003C0
E003C0
E003C0
E003C0
E003C0
F003C0
F003C0
7807C0
7C0FC0
3FFBC0
3FF3C0
0FE3C0
000000
000000
000000
000000
018000
03C000
03E000
03C000
018000
ENDCHAR
STARTCHAR 1EE6
ENCODING 7910
SWIDTH 668 0
DWIDTH 26 0
BBX 21 37 3 0
BITMAP
00F800
01FC00
038C00
000C00
000C00
003800
007000
000000
000000
000000
E00038
E00038
E00038
E00038
E00038
E00038
E00038
E00038
E00038
E00038
E00038
E00038
E00038
E00038
E00038
E00038
E00038
E00078
E00078
F00078
F00070
7800F0
7801E0
3E03E0
1FFFC0
0FFF80
03FE00
ENDCHAR
STARTCHAR 1EE7
ENCODING 7911
SWIDTH 591 0
DWIDTH 23 0
BBX 18 30 3 0
BITMAP
07E000
0FF000
0E3000
003000
007000
00E000
01C000
000000
000000
E003C0
E003C0
E003C0
E003C0
E003C0
E003C0
E003C0
E003C0
E003C0
E003C0
E003C0
E003C0
E003C0
E003C0
F003C0
F003C0
7807C0
7C0FC0
3FFBC0
3FF3C0
0FE3C0
ENDCHAR
STARTCHAR 1EE8
ENCODING 7912
SWIDTH 668 0
DWIDTH 26 0
BBX 25 37 3 0
BITMAP
00070000
000F0000
000E0000
001C0000
00380000
00380000
00700180
00000180
00000380
00000780
E0003F00
E0003800
E0003800
E0003800
E0003800
E0003800
E0003800
E0003800
E0003800
E0003800
E0003800
E0003800
E0003800
E0003800
E0003800
E0003800
E0003800
E0007800
E0007800
F0007800
F0007000
7800F000
7801E000
3E03E000
1FFFC000
0FFF8000
03FE0000
ENDCHAR
STARTCHAR 1EE9
ENCODING 7913
SWIDTH 591 0
DWIDTH 23 0
BBX 22 30 3 0
BITMAP
003C00
003800
007800
007000
00E000
00E000
01C01C
00001C
00001C
E003FC
E003F8
E003C0
E003C0
E003C0
E003C0
E003C0
E003C0
E003C0
E003C0
E003C0
E003C0
E003C0
E003C0
F003C0
F003C0
7807C0
7C0FC0
3FFBC0
3FF3C0
0FE3C0
ENDCHAR
STARTCHAR 1EEA
ENCODING 7914
SWIDTH 668 0
DWIDTH 26 0
BBX 25 37 3 0
BITMAP
0F000000
07800000
03800000
03C00000
01C00000
00E00000
00600180
00000180
00000380
00000780
E0003F00
E0003800
E0003800
E0003800
E0003800
E0003800
E0003800
E0003800
E0003800
E0003800
E0003800
E0003800
E0003800
E0003800
E0003800
E0003800
E0003800
E0007800
E0007800
F0007800
F0007000
7800F000
7801E000
3E03E000
1FFFC000
0FFF8000
03FE0000
ENDCHAR
STARTCHAR 1EEB
ENCODING 7915
SWIDTH 591 0
DWIDTH 23 0
BBX 22 30 3 0
BITMAP
1C0000
1E0000
0E0000
070000
070000
038000
01801C
00001C
00001C
E003FC
E003F8
E003C0
E003C0
E003C0
E003C0
E003C0
E003C0
E003C0
E003C0
E003C0
E003C0
E003C0
E003C0
F003C0
F003C0
7807C0
7C0FC0
3FFBC0
3FF3C0
0FE3C0
ENDCHAR
STARTCHAR 1EEC
ENCODING 7916
SWIDTH 668 0
DWIDTH 26 0
BBX 25 37 3 0
BITMAP
00F80000
01FC0000
038C0000
000C0000
000C0000
00380000
00700180
00000180
00000380
00000780
E0003F00
E0003800
E0003800
E0003800
E0003800
E0003800
E0003800
E0003800
E0003800
E0003800
E0003800
E0003800
E0003800
E0003800
E0003800
E0003800
E0003800
E0007800
E0007800
F0007800
F0007000
7800F000
7801E000
3E03E000
1FFFC000
0FFF8000
03FE0000
ENDCHAR
STARTCHAR 1EED
ENCODING 7917
SWIDTH 591 0
DWIDTH 23 0
BBX 22 30 3 0
BITMAP
07E000
0FF000
0E3000
003000
007000
00E000
01C01C
00001C
00001C
E003FC
E003F8
E003C0
E003C0
E003C0
E003C0
E003C0
E003C0
E003C0
E003C0
E003C0
E003C0
E003C0
E003C0
F003C0
F003C0
7807C0
7C0FC0
3FFBC0
3FF3C0
0FE3C0
ENDCHAR
STARTCHAR 1EEE
ENCODING 7918
SWIDTH 668 0
DWIDTH 26 0
BBX 25 35 3 0
BITMAP
03C30000
07F70000
067E0000
061E0000
00000180
00000180
00000380
00000780
E0003F00
E0003800
E0003800
E0003800
E0003800
E0003800
E0003800
E0003800
E0003800
E0003800
E0003800
E0003800
E0003800
E0003800
E0003800
E0003800
E0003800
E0007800
E0007800
F0007800
F0007000
7800F000
7801E000
3E03E000
1FFFC000
0FFF8000
03FE0000
ENDCHAR
STARTCHAR 1EEF
ENCODING 7919
SWIDTH 591 0
DWIDTH 23 0
BBX 22 28 3 0
BITMAP
0F8C00
0FEC00
1CFC00
183800
00001C
00001C
00001C
E003FC
E003F8
E003C0
E003C0
E003C0
E003C0
E003C0
E003C0
E003C0
E003C0
E003C0
E003C0
E003C0
E003C0
F003C0
F003C0
7807C0
7C0FC0
3FFBC0
3FF3C0
0FE3C0
ENDCHAR
STARTCHAR 1EF0
ENCODING 7920
SWIDTH 668 0
DWIDTH 26 0
BBX 25 40 3 -9
BITMAP
00000180
00000180
00000380
00000780
E0003F00
E0003800
E0003800
E0003800
E0003800
E0003800
E0003800
E0003800
E0003800
E0003800
E0003800
E0003800
E0003800
E0003800
E0003800
E0003800
E0003800
E0007800
E0007800
F0007800
F0007000
7800F000
7801E000
3E03E000
1FFFC000
0FFF8000
03FE0000
00000000
00000000
00000000
00000000
00600000
00F00000
00F80000
00F00000
00600000
ENDCHAR
STARTCHAR 1EF1
ENCODING 7921
SWIDTH 591 0
DWIDTH 23 0
BBX 22 33 3 -9
BITMAP
00001C
00001C
00001C
E003FC
E003F8
E003C0
E003C0
E003C0
E003C0
E003C0
E003C0
E003C0
E003C0
E003C0
E003C0
E003C0
E003C0
F003C0
F003C0
7807C0
7C0FC0
3FFBC0
3FF3C0
0FE3C0
000000
000000
000000
000000
018000
03C000
03E000
03C000
018000
ENDCHAR
STARTCHAR 1EF2
ENCODING 7922
SWIDTH 591 0
DWIDTH 23 0
BBX 20 37 2 0
BITMAP
0F0000
070000
078000
038000
01C000
01C000
00E000
000000
000000
000000
E000F0
F000F0
7001E0
7801E0
3803C0
3C03C0
1C0780
1E0780
0E0F00
0F0E00
071E00
079C00
03BC00
03F800
01F800
01F000
00F000
00F000
00F000
00F000
00F000
00F000
00F000
00F000
00F000
00F000
00F000
ENDCHAR
STARTCHAR 1EF3
ENCODING 7923
SWIDTH 514 0
DWIDTH 20 0
BBX 19 38 1 -8
BITMAP
0E0000
0F0000
070000
038000
038000
01C000
00E000
000000
000000
F000E0
7001E0
7001C0
7803C0
380380
380380
3C0780
1C0700
1E0700
0E0E00
0E0E00
0F1E00
071C00
071C00
03B800
03B800
03F800
01F000
01F000
00E000
01E000
01C000
01C000
03C000
038000
078000
7F0000
7E0000
7C0000
ENDCHAR
STARTCHAR 1EF4
ENCODING 7924
SWIDTH 591 0
DWIDTH 23 0
BBX 20 36 2 -9
BITMAP
E000F0
F000F0
7001E0
7801E0
3803C0
3C03C0
1C0780
1E0780
0E0F00
0F0E00
071E00
079C00
03BC00
03F800
01F800
01F000
00F000
00F000
00F000
00F000
00F000
00F000
00F000
00F000
00F000
00F000
00F000
000000
000000
000000
000000
006000
00F000
00F000
00F000
006000
ENDCHAR
STARTCHAR 1EF5
ENCODING 7925
SWIDTH 514 0
DWIDTH 20 0
BBX 19 30 1 -9
BITMAP
F000E0
7001E0
7001C0
7803C0
380380
380380
3C0780
1C0700
1E0700
0E0E00
0E0E00
0F1E00
071C00
071C00
03B800
03B800
03F800
01F000
01F000
00E000
01E000
01C000
01C000
03C000
038000
078300
7F0780
7E0780
7C0780
000300
ENDCHAR
STARTCHAR 1EF6
ENCODING 7926
SWIDTH 591 0
DWIDTH 23 0
BBX 20 37 2 0
BITMAP
01F800
03FC00
039C00
000C00
001C00
003800
007000
000000
000000
000000
E000F0
F000F0
7001E0
7801E0
3803C0
3C03C0
1C0780
1E0780
0E0F00
0F0E00
071E00
079C00
03BC00
03F800
01F800
01F000
00F000
00F000
00F000
00F000
00F000
00F000
00F000
00F000
00F000
00F000
00F000
ENDCHAR
STARTCHAR 1EF7
ENCODING 7927
SWIDTH 514 0
DWIDTH 20 0
BBX 19 38 1 -8
BITMAP
01F800
03F800
071C00
001C00
003800
007000
00E000
000000
000000
F000E0
7001E0
7001C0
7803C0
380380
380380
3C0780
1C0700
1E0700
0E0E00
0E0E00
0F1E00
071C00
071C00
03B800
03B800
03F800
01F000
01F000
00E000
01E000
01C000
01C000
03C000
038000
078000
7F0000
7E0000
7C0000
ENDCHAR
STARTCHAR 1EF8
ENCODING 7928
SWIDTH 591 0
DWIDTH 23 0
BBX 20 35 2 0
BITMAP
03C600
07E600
0E7E00
0C3C00
000000
000000
000000
000000
E000F0
F000F0
7001E0
7801E0
3803C0
3C03C0
1C0780
1E0780
0E0F00
0F0E00
071E00
079C00
03BC00
03F800
01F800
01F000
00F000
00F000
00F000
00F000
00F000
00F000
00F000
00F000
00F000
00F000
00F000
ENDCHAR
STARTCHAR 1EF9
ENCODING 7929
SWIDTH 514 0
DWIDTH 20 0
BBX 19 36 1 -8
BITMAP
07C600
0FEE00
0C7C00
0C3800
000000
000000
000000
F000E0
7001E0
7001C0
7803C0
380380
380380
3C0780
1C0700
1E0700
0E0E00
0E0E00
0F1E00
071C00
071C00
03B800
03B800
03F800
01F000
01F000
00E000
01E000
01C000
01C000
03C000
038000
078000
7F0000
7E0000
7C0000
ENDCHAR
STARTCHAR 2013
ENCODING 8211
SWIDTH 642 0
DWIDTH 25 0
BBX 17 3 4 11
BITMAP
FFFF80
FFFF80
FFFF80
ENDCHAR
STARTCHAR 2014
ENCODING 8212
SWIDTH 745 0
DWIDTH 29 0
BBX 21 3 4 11
BITMAP
FFFFF8
FFFFF8
FFFFF8
ENDCHAR
STARTCHAR 2018
ENCODING 8216
SWIDTH 282 0
DWIDTH 11 0
BBX 5 9 3 21
BITMAP
30
60
40
C0
C0
F0
F8
F8
78
ENDCHAR
STARTCHAR 2019
ENCODING 8217
SWIDTH 257 0
DWIDTH 10 0
BBX 5 10 3 18
BITMAP
30
78
F8
78
18
08
18
18
30
60
ENDCHAR
STARTCHAR 201A
ENCODING 8218
SWIDTH 282 0
DWIDTH 11 0
BBX 5 10 3 -6
BITMAP
70
F8
F8
F8
18
18
18
10
70
40
ENDCHAR
STARTCHAR 201C
ENCODING 8220
SWIDTH 488 0
DWIDTH 19 0
BBX 14 9 3 21
BITMAP
3018
6030
4060
C060
C060
F078
F87C
F87C
787C
ENDCHAR
STARTCHAR 201D
ENCODING 8221
SWIDTH 514 0
DWIDTH 20 0
BBX 14 10 3 18
BITMAP
7878
F87C
F87C
783C
180C
180C
1808
3018
6030
4000
ENDCHAR
STARTCHAR 201E
ENCODING 8222
SWIDTH 514 0
DWIDTH 20 0
BBX 14 10 3 -6
BITMAP
7038
F878
F87C
F87C
181C
180C
1808
1018
7030
4060
ENDCHAR
STARTCHAR 2020
ENCODING 8224
SWIDTH 565 0
DWIDTH 22 0
BBX 15 36 4 -9
BITMAP
0380
0380
0380
0380
0380
0380
FFFE
FFFE
FFFE
FFFE
0380
0380
0380
0380
0380
0380
0380
0380
0380
0380
0380
0380
0380
0380
0380
0380
0380
0380
0380
0380
0380
0380
0380
0380
0380
0380
ENDCHAR
STARTCHAR 2021
ENCODING 8225
SWIDTH 565 0
DWIDTH 22 0
BBX 15 36 4 -9
BITMAP
0380
0380
0380
0380
0380
0380
FFFE
FFFE
FFFE
FFFE
0380
0380
0380
0380
0380
0380
0380
0380
0380
0380
0380
0380
0380
0380
0380
0380
FFFE
FFFE
FFFE
0380
0380
0380
0380
0380
0380
0380
ENDCHAR
STARTCHAR 2022
ENCODING 8226
SWIDTH 385 0
DWIDTH 15 0
BBX 7 7 3 11
BITMAP
7C
FE
FE
FE
FE
FE
7C
ENDCHAR
STARTCHAR 2026
ENCODING 8230
SWIDTH 797 0
DWIDTH 31 0
BBX 24 4 3 0
BITMAP
703C0F
F03C0F
F03C0F
703C0F
ENDCHAR
STARTCHAR 2030
ENCODING 8240
SWIDTH 1182 0
DWIDTH 46 0
BBX 44 28 1 0
BITMAP
040000000000
3F800E000000
7BC00E000000
60C01C000000
E0C01C000000
E0E038000000
E0E038000000
E0C070000000
60C070000000
7BC0E0000000
3F80E0000000
0401C0000000
0001C0000000
000380000000
000380000000
000700000000
000E00000000
000E01E00780
001C07F01FC0
001C0E3838E0
00380C1C3870
00380C1C3070
00701C1C3030
00700C1C3030
00E00C1C3070
00E00E183860
01C007F81FE0
01C003F00FC0
ENDCHAR
STARTCHAR 2039
ENCODING 8249
SWIDTH 360 0
DWIDTH 14 0
BBX 11 17 2 4
BITMAP
01E0
03C0
0780
0F00
1E00
1C00
3800
7000
E000
F000
7800
3C00
1E00
0F00
0780
03C0
01C0
ENDCHAR
STARTCHAR 203A
ENCODING 8250
SWIDTH 360 0
DWIDTH 14 0
BBX 11 17 2 4
BITMAP
E000
F000
7800
3C00
1E00
0F00
0780
03C0
01E0
03C0
0780
0700
0E00
1C00
3800
7000
E000
ENDCHAR
STARTCHAR 2044
ENCODING 8260
SWIDTH 462 0
DWIDTH 18 0
BBX 18 27 0 0
BITMAP
0001C0
0001C0
000380
000780
000700
000E00
000E00
001C00
003C00
003800
007000
007000
00E000
01E000
01C000
038000
038000
070000
0F0000
0E0000
1C0000
1C0000
380000
780000
700000
E00000
E00000
ENDCHAR
STARTCHAR 2070
ENCODING 8304
SWIDTH 308 0
DWIDTH 12 0
BBX 11 15 1 15
BITMAP
0E00
3F80
7BC0
60C0
60C0
E0E0
E0E0
E0E0
E0E0
E0E0
E0E0
60C0
71C0
3B80
3F80
ENDCHAR
STARTCHAR 2074
ENCODING 8308
SWIDTH 308 0
DWIDTH 12 0
BBX 11 15 1 15
BITMAP
0380
0780
0780
0D80
1980
1980
3180
6180
6180
C180
FFE0
0180
0180
0180
0180
ENDCHAR
STARTCHAR 2075
ENCODING 8309
SWIDTH 308 0
DWIDTH 12 0
BBX 10 15 1 15
BITMAP
7F80
7F80
E000
C000
C000
CE00
FF80
E1C0
00C0
00C0
00C0
C0C0
E1C0
7F80
3F00
ENDCHAR
STARTCHAR 2076
ENCODING 8310
SWIDTH 308 0
DWIDTH 12 0
BBX 10 15 1 15
BITMAP
0600
0C00
1C00
1800
3000
7000
7F00
F380
E0C0
C0C0
C0C0
C0C0
E1C0
7F80
3F00
ENDCHAR
STARTCHAR 2077
ENCODING 8311
SWIDTH 282 0
DWIDTH 11 0
BBX 9 15 1 15
BITMAP
FF80
FF80
0180
0180
0180
0300
0300
0600
0600
0C00
0C00
1C00
1800
3800
3000
ENDCHAR
STARTCHAR 2078
ENCODING 8312
SWIDTH 308 0
DWIDTH 12 0
BBX 11 15 1 15
BITMAP
0600
3F80
71C0
60C0
60C0
60C0
7180
3F00
7380
E0C0
C0C0
C0E0
E0C0
7BC0
3F80
ENDCHAR
STARTCHAR 2079
ENCODING 8313
SWIDTH 308 0
DWIDTH 12 0
BBX 10 15 1 15
BITMAP
0400
3F00
7380
E0C0
C0C0
C0C0
C0C0
61C0
7FC0
3D80
0380
0300
0600
0E00
0C00
ENDCHAR
STARTCHAR 2080
ENCODING 8320
SWIDTH 308 0
DWIDTH 12 0
BBX 11 15 1 -10
BITMAP
1F00
3F80
71C0
60C0
E0E0
E0E0
C0E0
C0E0
E0E0
E0E0
E0C0
60C0
71C0
3F80
0E00
ENDCHAR
STARTCHAR 2081
ENCODING 8321
SWIDTH 257 0
DWIDTH 10 0
BBX 8 15 1 -10
BITMAP
18
38
78
D8
98
18
18
18
18
18
18
18
18
FF
FF
ENDCHAR
STARTCHAR 2082
ENCODING 8322
SWIDTH 282 0
DWIDTH 11 0
BBX 10 15 1 -10
BITMAP
1E00
7F80
6180
E1C0
C1C0
0180
0180
0300
0700
0E00
3800
7000
E000
FFC0
FFC0
ENDCHAR
STARTCHAR 2083
ENCODING 8323
SWIDTH 308 0
DWIDTH 12 0
BBX 10 15 1 -10
BITMAP
3F00
7F80
61C0
E0C0
00C0
01C0
0F80
0F00
01C0
00C0
00C0
E0C0
71C0
7F80
1E00
ENDCHAR
STARTCHAR 2084
ENCODING 8324
SWIDTH 308 0
DWIDTH 12 0
BBX 11 15 1 -10
BITMAP
0380
0780
0780
0D80
1980
1980
3180
6180
6180
C180
FFE0
0180
0180
0180
0180
ENDCHAR
STARTCHAR 2085
ENCODING 8325
SWIDTH 308 0
DWIDTH 12 0
BBX 10 15 1 -10
BITMAP
7F80
7F80
C000
C000
C000
DF00
FF80
E1C0
00C0
00C0
00C0
E1C0
7180
7F80
1E00
ENDCHAR
STARTCHAR 2086
ENCODING 8326
SWIDTH 308 0
DWIDTH 12 0
BBX 10 15 1 -10
BITMAP
0E00
0C00
1800
3800
3000
6E00
7F80
E180
E0C0
C0C0
C0C0
E0C0
6180
7F80
1E00
ENDCHAR
STARTCHAR 2087
ENCODING 8327
SWIDTH 282 0
DWIDTH 11 0
BBX 9 15 1 -10
BITMAP
FF80
FF80
0180
0180
0380
0300
0300
0600
0600
0C00
0C00
1800
1800
3800
3000
ENDCHAR
STARTCHAR 2088
ENCODING 8328
SWIDTH 308 0
DWIDTH 12 0
BBX 11 15 1 -10
BITMAP
3F00
7F80
61C0
60C0
60C0
61C0
3F80
3F80
60C0
C0C0
C0E0
E0C0
61C0
7F80
1F00
ENDCHAR
STARTCHAR 2089
ENCODING 8329
SWIDTH 308 0
DWIDTH 12 0
BBX 10 15 1 -10
BITMAP
1F00
7F80
61C0
C0C0
C0C0
C0C0
E0C0
71C0
3F80
0980
0300
0700
0600
0C00
1C00
ENDCHAR
STARTCHAR 20AB
ENCODING 8363
SWIDTH 591 0
DWIDTH 23 0
BBX 21 32 1 0
BITMAP
0000E0
0000E0
0000E0
003FF8
003FF8
0000E0
0000E0
03E0E0
0FF8E0
1FFEE0
3E0EE0
7C03E0
7801E0
7001E0
7000E0
F000E0
F000E0
F000E0
7001E0
7001E0
7801E0
7C03E0
3E0EE0
1FFEE0
0FF8E0
03E0E0
000000
000000
000000
000000
1FFFE0
1FFFE0
ENDCHAR
STARTCHAR 20AC
ENCODING 8364
SWIDTH 694 0
DWIDTH 27 0
BBX 24 27 1 0
BITMAP
001FC0
00FFF0
01FFF8
03E07C
07C01E
07800E
0F000F
0F0007
0E0007
1E0000
FFFC00
FFFC00
1C0000
1C0000
1C0000
FFFC00
FFFC00
1E0000
0E0000
0E0007
0F000F
07800E
07801E
03E07C
01FFF8
00FFF0
003FC0
ENDCHAR
STARTCHAR 2122
ENCODING 8482
SWIDTH 385 0
DWIDTH 15 0
BBX 13 6 1 21
BITMAP
FBB8
23B8
22F8
22F8
2258
2218
ENDCHAR
STARTCHAR 215B
ENCODING 8539
SWIDTH 874 0
DWIDTH 34 0
BBX 31 27 2 0
BITMAP
38000380
78000700
F8000E00
F8000E00
B8001C00
38001C00
38003800
38007800
38007000
3800E000
3800E000
FE01C000
FE03C000
000380F0
000701FC
0007038E
000E030E
001E0306
001C038E
003801FC
003801FC
0070030E
00F00706
00E00706
01C0030E
01C003FE
038001FC
ENDCHAR
STARTCHAR 215C
ENCODING 8540
SWIDTH 848 0
DWIDTH 33 0
BBX 30 27 2 0
BITMAP
7F000700
7F800E00
E3800E00
01801C00
01803C00
07803800
1E007000
1F007000
0180E000
0181E000
C181C000
F3838000
7F038000
3E0701E0
000F07F0
000E0E38
001C0E18
001C0E18
00380618
007807F0
007007F0
00E00E18
00E00C1C
01C00C1C
01C00E1C
03800FF8
070003F0
ENDCHAR
STARTCHAR 215D
ENCODING 8541
SWIDTH 874 0
DWIDTH 34 0
BBX 31 27 2 0
BITMAP
FF800700
FF800700
C0000E00
C0000E00
DE001C00
FF003800
E3803800
01807000
01807000
C180E000
C381C000
FF01C000
7E038000
000380F0
000701FC
000E038E
000E030E
001C0306
001C038E
003801FC
007001FC
0070030E
00E00706
00E00706
01C0030E
038003FE
038001FC
ENDCHAR
STARTCHAR 215E
ENCODING 8542
SWIDTH 900 0
DWIDTH 35 0
BBX 32 27 2 0
BITMAP
FF800700
FF800700
03800E00
03001E00
07001C00
06003800
0E003800
0C007000
1C00F000
1800E000
3801C000
3801C000
30038000
00078078
000701FC
000E038E
000E0306
001C0306
003C038E
003801FC
007001FC
00700386
00E00306
01E00307
01C00386
038003FE
038001FC
ENDCHAR
STARTCHAR 2212
ENCODING 8722
SWIDTH 591 0
DWIDTH 23 0
BBX 15 3 4 11
BITMAP
FFFE
FFFE
FFFE
ENDCHAR
STARTCHAR 2215
ENCODING 8725
SWIDTH 488 0
DWIDTH 19 0
BBX 16 27 2 0
BITMAP
0007
0007
000E
000E
001E
001C
003C
0038
0078
0070
00F0
00E0
01E0
01C0
03C0
0380
0780
0700
0F00
0E00
1E00
1C00
3C00
3800
7800
7000
F000
ENDCHAR
STARTCHAR 2248
ENCODING 8776
SWIDTH 540 0
DWIDTH 21 0
BBX 14 13 4 6
BITMAP
080C
7E1C
FFFC
C3F8
C0E0
0000
0000
0000
0000
7E0C
FFBC
E3F8
C0F0
ENDCHAR
STARTCHAR 2260
ENCODING 8800
SWIDTH 720 0
DWIDTH 28 0
BBX 18 23 5 1
BITMAP
000380
000380
000700
000E00
000E00
001C00
FFFFC0
FFFFC0
FFFFC0
007000
00E000
00E000
01C000
01C000
038000
FFFFC0
FFFFC0
FFFFC0
0E0000
1C0000
3C0000
380000
700000
ENDCHAR
STARTCHAR 2264
ENCODING 8804
SWIDTH 591 0
DWIDTH 23 0
BBX 16 23 4 0
BITMAP
0006
001E
003E
00FC
03F0
0FC0
3F00
7C00
7800
7E00
1F80
07E0
01F8
007E
003E
000E
0002
0000
0000
0000
0000
FFFF
FFFF
ENDCHAR
STARTCHAR 2265
ENCODING 8805
SWIDTH 617 0
DWIDTH 24 0
BBX 16 23 4 0
BITMAP
6000
7800
7E00
1F80
07C0
01F0
007C
003E
000E
003E
00F8
03E0
0FC0
3F00
7C00
7000
4000
0000
0000
0000
0000
FFFF
FFFF
ENDCHAR
ENDFONT
